<mxfile host="app.diagrams.net" modified="2020-06-26T00:06:41.182Z" agent="5.0 (X11; Linux x86_64) AppleWebKit/537.36 (KHTML, like Gecko) Chrome/80.0.3987.149 Safari/537.36" etag="_du1TwyqbFJw4-aN8-kF" version="13.3.5" type="github">
  <diagram id="Rq-ZN73bVAVXf1dldPuE" name="Page-1">
    <mxGraphModel dx="3019" dy="877" grid="1" gridSize="10" guides="1" tooltips="1" connect="1" arrows="1" fold="1" page="1" pageScale="1" pageWidth="1654" pageHeight="2336" math="1" shadow="0">
      <root>
        <mxCell id="0" />
        <mxCell id="1" parent="0" />
        <mxCell id="2lvLxO11U5quX8xkSqHF-5" value="" style="shape=image;verticalLabelPosition=bottom;labelBackgroundColor=#ffffff;verticalAlign=top;aspect=fixed;imageAspect=0;image=data:image/svg+xml,PHN2ZyB4bWxucz0iaHR0cDovL3d3dy53My5vcmcvMjAwMC9zdmciIHhtbG5zOnhsaW5rPSJodHRwOi8vd3d3LnczLm9yZy8xOTk5L3hsaW5rIiBoZWlnaHQ9IjEyMy44NHB0IiB2ZXJzaW9uPSIxLjEiIHZpZXdCb3g9IjAgMCAxNTkuODQgMTIzLjg0IiB3aWR0aD0iMTU5Ljg0cHQiPiYjeGE7IDxkZWZzPiYjeGE7ICA8c3R5bGUgdHlwZT0idGV4dC9jc3MiPiYjeGE7KntzdHJva2UtbGluZWNhcDpidXR0O3N0cm9rZS1saW5lam9pbjpyb3VuZDt9JiN4YTsgIDwvc3R5bGU+JiN4YTsgPC9kZWZzPiYjeGE7IDxnIGlkPSJmaWd1cmVfMSI+JiN4YTsgIDxnIGlkPSJwYXRjaF8xIj4mI3hhOyAgIDxwYXRoIGQ9Ik0gMCAxMjMuODQgIEwgMTU5Ljg0IDEyMy44NCAgTCAxNTkuODQgMCAgTCAwIDAgIHogIiBzdHlsZT0iZmlsbDojZmZmZmZmOyIvPiYjeGE7ICA8L2c+JiN4YTsgIDxnIGlkPSJheGVzXzEiPiYjeGE7ICAgPGcgaWQ9InBhdGNoXzIiPiYjeGE7ICAgIDxwYXRoIGQ9Ik0gMC43MiAxMjMuMTIgIEwgMTU5LjEyIDEyMy4xMiAgTCAxNTkuMTIgMC43MiAgTCAwLjcyIDAuNzIgIHogIiBzdHlsZT0iZmlsbDojZmZmZmZmOyIvPiYjeGE7ICAgPC9nPiYjeGE7ICAgPGcgaWQ9Im1hdHBsb3RsaWIuYXhpc18xIj4mI3hhOyAgICA8ZyBpZD0ieHRpY2tfMSIvPiYjeGE7ICAgIDxnIGlkPSJ4dGlja18yIi8+JiN4YTsgICA8L2c+JiN4YTsgICA8ZyBpZD0ibWF0cGxvdGxpYi5heGlzXzIiPiYjeGE7ICAgIDxnIGlkPSJ5dGlja18xIi8+JiN4YTsgICAgPGcgaWQ9Inl0aWNrXzIiLz4mI3hhOyAgICA8ZyBpZD0ieXRpY2tfMyIvPiYjeGE7ICAgPC9nPiYjeGE7ICAgPGcgaWQ9ImxpbmUyZF8xIj4mI3hhOyAgICA8cGF0aCBjbGlwLXBhdGg9InVybCgjcDZhNDUxNGYwZGYpIiBkPSJNIDcuOTIgMTE5Ljg3MzE2OCAgTCA5LjM3NDU0NSAxMTkuOTQwNSAgTCAxMC44MjkwOTEgMTE5LjIzNDA5ICBMIDEyLjI4MzYzNiAxMTguMzQyNzEyICBMIDEzLjczODE4MiAxMTcuMTk0MjM2ICBMIDE1LjE5MjcyNyAxMTUuODQ2MTkgIEwgMTYuNjQ3MjczIDExNC42NDc3MyAgTCAxOC4xMDE4MTggMTEzLjEwNzYyNyAgTCAxOS41NTYzNjQgMTExLjg3Mzc3NiAgTCAyMS4wMTA5MDkgMTEwLjU5NjIzOCAgTCAyMi40NjU0NTUgMTA5LjEzNDIxOSAgTCAyMy45MiAxMDcuNzc2Njc5ICBMIDI1LjM3NDU0NSAxMDYuMzUwNTkgIEwgMjYuODI5MDkxIDEwNC44Njk0NTkgIEwgMjguMjgzNjM2IDEwMy41MzQ0ODMgIEwgMjkuNzM4MTgyIDEwMi4wNTc1NSAgTCAzMS4xOTI3MjcgMTAwLjU4NzY1ICBMIDMyLjY0NzI3MyA5OS4wODI5MTYgIEwgMzQuMTAxODE4IDk3LjQzNDU5MSAgTCAzNS41NTYzNjQgOTUuODc1ODg3ICBMIDM3LjAxMDkwOSA5NC40NTgzNDcgIEwgMzguNDY1NDU1IDkzLjExMDY5MyAgTCAzOS45MiA5MS40NDg4NjIgIEwgNDEuMzc0NTQ1IDkwLjA5ODc4MSAgTCA0Mi44MjkwOTEgODguODA2OTk4ICBMIDQ0LjI4MzYzNiA4Ny4zMjYyOSAgTCA0NS43MzgxODIgODYuMDMzNDM3ICBMIDQ3LjE5MjcyNyA4NS4wNTAwMTEgIEwgNDguNjQ3MjczIDg0LjAxODkxMiAgTCA1MC4xMDE4MTggODMuMDU3ODE5ICBMIDUxLjU1NjM2NCA4Mi4zMDcyMDMgIEwgNTMuMDEwOTA5IDgxLjUwMTEyMiAgTCA1NC40NjU0NTUgODAuODI4NDI3ICBMIDU1LjkyIDgwLjI0ODQ2OSAgTCA1Ny4zNzQ1NDUgNzkuOTg0Mzk1ICBMIDU4LjgyOTA5MSA3OS45MzU0MzMgIEwgNjAuMjgzNjM2IDc5LjgyODMyMSAgTCA2MS43MzgxODIgNzkuNzU2NTAyICBMIDYzLjE5MjcyNyA3OS44ODA4MzYgIEwgNjQuNjQ3MjczIDc5Ljk3MDU5NyAgTCA2Ni4xMDE4MTggODAuMzU2MjM2ICBMIDY3LjU1NjM2NCA4MS4wOTcwMjkgIEwgNjkuMDEwOTA5IDgxLjc1NTY2MSAgTCA3MC40NjU0NTUgODIuNjA4Mzk2ICBMIDcxLjkyIDgzLjM5OTkzNSAgTCA3My4zNzQ1NDUgODQuNDI2NTYgIEwgNzQuODI5MDkxIDg1LjQ1MTk3NCAgTCA3Ni4yODM2MzYgODYuNjAyMzMxICBMIDc3LjczODE4MiA4OC4wMDI4NyAgTCA3OS4xOTI3MjcgODkuMjY1NDA2ICBMIDgwLjY0NzI3MyA5MC43NjY1MTMgIEwgODIuMTAxODE4IDkyLjIyOTM0ICBMIDgzLjU1NjM2NCA5My40NjQwMDIgIEwgODUuMDEwOTA5IDk0Ljg5OTY4MSAgTCA4Ni40NjU0NTUgOTYuNDM5OTQ0ICBMIDg3LjkyIDk3Ljg0ODQyMyAgTCA4OS4zNzQ1NDUgOTkuMzQyMzU5ICBMIDkwLjgyOTA5MSAxMDAuNzc4NDUyICBMIDkyLjI4MzYzNiAxMDIuMDcxMTIyICBMIDkzLjczODE4MiAxMDMuMjIzOTU5ICBMIDk1LjE5MjcyNyAxMDQuMjQ5NDYxICBMIDk2LjY0NzI3MyAxMDUuMzc5MTA0ICBMIDk4LjEwMTgxOCAxMDYuMjcxMTc4ICBMIDk5LjU1NjM2NCAxMDcuMjI5MTYzICBMIDEwMS4wMTA5MDkgMTA3Ljk2MTM3MyAgTCAxMDIuNDY1NDU1IDEwOC4yNTM3MDkgIEwgMTAzLjkyIDEwOC42NzcxNzkgIEwgMTA1LjM3NDU0NSAxMDkuMDI5NTU0ICBMIDEwNi44MjkwOTEgMTA5LjA5NjI1NSAgTCAxMDguMjgzNjM2IDEwOC44MDAyODIgIEwgMTA5LjczODE4MiAxMDguNTAxOTU5ICBMIDExMS4xOTI3MjcgMTA4LjI0NzYyNSAgTCAxMTIuNjQ3MjczIDEwNy42MTgyNzcgIEwgMTE0LjEwMTgxOCAxMDYuODkwOCAgTCAxMTUuNTU2MzY0IDEwNi4wMjU5OCAgTCAxMTcuMDEwOTA5IDEwNC43OTExMTEgIEwgMTE4LjQ2NTQ1NSAxMDMuNjY2NDUyICBMIDExOS45MiAxMDIuMzYxMzMgIEwgMTIxLjM3NDU0NSAxMDAuODMwMjMxICBMIDEyMi44MjkwOTEgOTkuNTQ1NDgzICBMIDEyNC4yODM2MzYgOTcuOTgxMTMxICBMIDEyNS43MzgxODIgOTYuMjkzMDM4ICBMIDEyNy4xOTI3MjcgOTQuNTE4MDcxICBMIDEyOC42NDcyNzMgOTIuOTIyMTEzICBMIDEzMC4xMDE4MTggOTEuMTc3NTM1ICBMIDEzMS41NTYzNjQgODkuMjM4MjY2ICBMIDEzMy4wMTA5MDkgODcuNjQ1NDUgIEwgMTM0LjQ2NTQ1NSA4NS44Nzk4NyAgTCAxMzUuOTIgODQuMjM0Nzk2ICBMIDEzNy4zNzQ1NDUgODIuNTc4NjQzICBMIDEzOC44MjkwOTEgODAuODI1NjU5ICBMIDE0MC4yODM2MzYgNzkuMzAyOTU1ICBMIDE0MS43MzgxODIgNzcuOTc1MDc5ICBMIDE0My4xOTI3MjcgNzYuNjE5NDI1ICBMIDE0NC42NDcyNzMgNzUuNDAxNjUzICBMIDE0Ni4xMDE4MTggNzQuNTI0NDc4ICBMIDE0Ny41NTYzNjQgNzMuNTQyNDYyICBMIDE0OS4wMTA5MDkgNzIuNzQ0MjAyICBMIDE1MC40NjU0NTUgNzIuMDcyNzggIEwgMTUxLjkyIDcxLjI2OTQ3MiAgIiBzdHlsZT0iZmlsbDpub25lO3N0cm9rZTojMDAwMDAwO3N0cm9rZS1saW5lY2FwOnJvdW5kO3N0cm9rZS13aWR0aDo2OyIvPiYjeGE7ICAgPC9nPiYjeGE7ICAgPGcgaWQ9InBhdGNoXzMiPiYjeGE7ICAgIDxwYXRoIGQ9Ik0gMC43MiAxMjMuMTIgIEwgMC43MiAwLjcyICAiIHN0eWxlPSJmaWxsOm5vbmU7c3Ryb2tlOiM3Nzc3Nzc7c3Ryb2tlLWxpbmVjYXA6c3F1YXJlO3N0cm9rZS1saW5lam9pbjptaXRlcjtzdHJva2Utd2lkdGg6MC44OyIvPiYjeGE7ICAgPC9nPiYjeGE7ICAgPGcgaWQ9InBhdGNoXzQiPiYjeGE7ICAgIDxwYXRoIGQ9Ik0gMC43MiAxMjMuMTIgIEwgMTU5LjEyIDEyMy4xMiAgIiBzdHlsZT0iZmlsbDpub25lO3N0cm9rZTojNzc3Nzc3O3N0cm9rZS1saW5lY2FwOnNxdWFyZTtzdHJva2UtbGluZWpvaW46bWl0ZXI7c3Ryb2tlLXdpZHRoOjAuODsiLz4mI3hhOyAgIDwvZz4mI3hhOyAgPC9nPiYjeGE7IDwvZz4mI3hhOyA8ZGVmcz4mI3hhOyAgPGNsaXBQYXRoIGlkPSJwNmE0NTE0ZjBkZiI+JiN4YTsgICA8cmVjdCBoZWlnaHQ9IjEyMi40IiB3aWR0aD0iMTU4LjQiIHg9IjAuNzIiIHk9IjAuNzIiLz4mI3hhOyAgPC9jbGlwUGF0aD4mI3hhOyA8L2RlZnM+JiN4YTs8L3N2Zz4=;" parent="1" vertex="1">
          <mxGeometry x="412.28" y="686" width="283.87" height="220" as="geometry" />
        </mxCell>
        <mxCell id="QE3Q9bEi8sq2FOrpUkCx-99" value="" style="shape=image;verticalLabelPosition=bottom;labelBackgroundColor=#ffffff;verticalAlign=top;aspect=fixed;imageAspect=0;image=data:image/png,iVBORw0KGgoAAAANSUhEUgAAA2YAAAPACAYAAABekGoNAAAABHNCSVQICAgIfAhkiAAAAAlwSFlzAAAuIwAALiMBeKU/dgAAADh0RVh0U29mdHdhcmUAbWF0cGxvdGxpYiB2ZXJzaW9uMy4xLjEsIGh0dHA6Ly9tYXRwbG90bGliLm9yZy8QZhcZAAAgAElEQVR4nOzdd3RU1doG8GdKeoOENFJIqKGKV+V+IKACgigKCNKkl9B7R0GUKggoimIB7KKCyOWiYlcEu4L0lp4QElJIT6ac7w+M14LI7Nkzc87M81uLZePd+70e79l5Zs7ZW6coigIbXbhwARs2bPjtr2fOnInIyEhbhyEiIiIiIiIAelc3QERERERE5OkYzIiIiIiIiFyMwYyIiIiIiMjFGMyIiIiIiIhcjMGMiIiIiIjIxRjMiIiIiIiIXIzBjIiIiIiIyMUYzIiIiIiIiFyMwYyIiIiIiMjFGMyIiIiIiIhcjMGMiIiIiIjIxRjMiIiIiIiIXIzBjIiIiIiIyMUYzIiIiIiIiFyMwYyIiIiIiMjFGMyIiIiIiIhcjMGMiIiIiIjIxRjMiIiIiIiIXIzBjIiIiIiIyMUYzIiIiIiIiFyMwYyIiIiIiMjFGMyIiIiIiIhcjMGMiIiIiIjIxRjMiIiIiIiIXIzBjIiIiIiIyMUYzIiIiIiIiFyMwYyIiIiIiMjFGMyIiIiIiIhcjMGMiIiIiIjIxRjMiIiIiIiIXIzBjIiIiIiIyMUYzIiIiIiIiFyMwYyIiIiIiMjFGMyIiIiIiIhcjMGMiIiIiIjIxYyubkC2qjNnYK2shDEiAl7h4dAZDK5uiYiIiIiI6Krc4hszxWJBzqOP4pcWLfBL06Y4et11OBQdjV+aNsXFV1+FYrG4ukUiIiIiIqK/pflgZikrw5m+fZG1YAGqTpz4wz+rTklByrBhON6xI2pyclzUIRERERER0dVpPpilTZyI4j17rvp7yr/5BsduuAGlBw86qSsiIiIiIqJrp+lgVnH0KApee+2afq8pNxcnb70Vec8+6+CuiIiIiIiIbKPpYHZx2zZAUa759ysmE9ImTEBqcjKs1dUO7IyIiIiIiOjaaTqY1Zw/L1SX//zzOHHrrXzvjIiIiIiIVEHTwcxSXCxcy/fOiIiIiIhILTQdzAI7dLCrvva9s5zVq6GYzZK6IiIiIiIiso2mg1ndvn3tHkMxmZC1cCGO33wzKo8fl9AVERERERGRbTQdzPxbtkTEpElSxir/7jsc/de/kPPoo/z2jIiIiIiInErTwQwAGjzxBEJ69JAyllJdjawFC3C8Y0dUnjwpZUwiIiIiIqJ/ovlgpjMa0WT3boSPHSttzPJvv8XRtm1xfu1aKBaLtHGJiIiIiIiuRPPBDAD0Pj5IeO45JCxaBJ3RKGVMpboamfPm4USnTqhOT5cyJhERERER0ZW4RTADAJ1Oh4j77kPS8uXwCg6WNm7Z11/j2I03ouTTT6WNSURERERE9HtuE8xqBbVogZaLFiEgNlbamOaLF3Hy9ttxfv16KIoibVwiIiIiIiLADYMZAHjXrYvmY8ci/Oab5Q1qtSJz9mycGzIElvJyeeMSEREREZHHc8tgBgB6oxEJQ4ciYeJEae+dAUDh9u043qEDqlJSpI1JRERERESezW2DGfDre2c9eyJp5Ur4REdLG7fyl19w7MYbUbxvn7QxiYiIiIjIc7l1MKsVlJSEVhs3IvKeewCdTsqYlqIinO7ZEzmrVvG9MyIiIiIisotHBDMAMPj4oMHYsWi+ciV8oqLkDKooyFq0CGnjxvG8MyIiIiIiEuYxwaxWUMuWl789u/tuaWPmb9mClFGjGM6IiIiIiEiIxwUzADD4+qLBuHGX3z2T9O1ZwSuv4NzQoVDMZinjERERERGR5/DIYFYruFUrtNq4ERF33CFlvMLt23F20CBYTSYp4xERERERkWfw6GAGXP72LGHSJCROnw6dt7fd4xXt3Imz990Ha3W1hO6IiIiIiMgTeHwwqxXetStarF4N7/Bwu8cq3r0bZ/r1g7WqSkJnRERERETk7hjMfiegcWO0XL8ewW3a2D3Wpb17cbp3b1grKyV0RkRERERE7ozB7E+8QkLQ7OGHEdWnj91jlXz4IU736gVLebmEzoiIiIiIyF0xmF2BzmBA/OjRaDRnDvR2vndW8umnOHnrrTBduCCpOyIiIiIicjcMZlcR1rkzWqxdC6/QULvGKf/hBxz7v/9D5cmTkjojIiIiIiJ3wmD2D/wTE9F85Up4hYXZNU5NWhqOd+iAki+/lNQZERERERG5Cwaza+Bbvz6ar1xp946NlqIinLr9dhRs3y6pMyIiIiIicgcMZtfINzoazVeuhE9kpF3jKDU1ODd4MHIefRSKokjqjoiIiIiItIzBzAY+kZFIWrkSPtHRdo+VtWAB0iZOhGI2S+iMiIiIiIi0jMHMRj7h4Wi+ciV8Y2LsHiv/2Wdxuk8fnnVGREREROThGMwEeIeFIWnlSvjFxdk91qW9e3F24EAoFouEzoiIiIiISIsYzAR51617OZw1aGD3WMV79iBr0SIJXRERERERkRYxmNnBKyQEzVetQlDLlnaPdX7NGlx85RUJXRERERERkdYwmNnJGBiIZo88gtDOne0eK3XcOJR9+62EroiIiIiISEsYzCTQe3mh0axZiO7f365xlOpqnOnTBzVZWZI6IyIiIiIiLWAwk0Sn1yNu+HAkTJoE6MX/tZpyc3G6d29YKiokdkdERERERGrGYCZZxB13oOmDD0Lv6ys8RsVPPyF19GgeQE1ERERE5CEYzBygzo03ovmqVfCqW1d4jMI330TOihUSuyIiIiIiIrViMHOQgEaN0GLtWrsOos5evBiFu3ZJ7IqIiIiIiNSIwcyBfCIi0HTxYhgCA4XHSBk2DBWHD0vsioiIiIiI1IbBzMF869dH4/nzhTcEsZaX40y/frCUlEjujIiIiIiI1ILBzAlCrrsODcaOFa6vPncOqcnJ3AyEiIiIiMhNMZg5ScRddyG8Rw/h+sI330T+Cy9I7IiIiIiIiNSCwcxJdDodGiQnI6hlS+Ex0qdNQ8WRIxK7IiIiIiIiNWAwcyK9lxcaL1wI74gIoXqlqgpnBw6EpbxccmdERERERORKDGZO5hUcfPkAaj8/ofqqEyeQPnWq5K6IiIiIiMiVGMxcwD8hAY1mzgR0OqH6i9u24eKrr0ruioiIiIiIXIXBzEXq/t//Ifb++4Xr0yZMQOXp0xI7IiIiIiIiV2Ewc6Ho/v0R8q9/CdVay8txbsAAWKuqJHdFRERERETOxmDmQjq9Hg1nzoRXaKhQfcXhw8iYM0dyV0RERERE5GwMZi7mFRKCRrNnA3qxS5G3aRMKd+6U3BURERERETkTg5kKBLdujZiBA4XrU0ePRtW5cxI7IiIiIiIiZ2IwU4n6AwYgqHVroVpLSQnO8n0zIiIiIiLNYjBTCZ3BgEazZsEYHCxUX/HTT8iYNUtyV0RERERE5AwMZiriHRaGhjNnCtfnPfMMCrZvl9gRERERERE5A4OZytSJj0d0p07C9anjxqHy1CmJHRERERERkaMxmKlJfj5w/jxiunVDYFyc0BDWsjKcve8+WCoqJDdHRERERESOwmCmFr+GMgDQGwxoNGAADL6+QkNVHjmCjGnTZHZHREREREQOxGCmBr8LZbV86tZFw7FjxYfcsgUXX37Z3s6IiIiIiMgJGMxc7QqhDAAQHY263bsjqndv4aHTJk5ExbFjdjRHRERERETOwGDmSlcJZQgPBwDEjhiBwKQkoeGtFRWX3zcrK7OnSyIiIiIicjAGM1e5hlAGAHqjEY3mzoUhKEhomqoTJ5Bhxxb8RERERETkeEZXN+CRrjGU1fIJD0ejmTNx+pFHxKZ74QWEDhiAkNtvF6onIiL6J4qiwFJUhOq0tN9+1aSn//ZHS2kp9L6+MISGwhgWBmNo6OVfv/tzr6goeMXEwLt+fegFN8AiItIqBjNnszGU1apz442I7tcP53fuFJo2dexYtD56VPibNyIi8lyW8nJUHjsGU24uTBcu/PbLXPvneXmoycqCVeKj88Z69eAdEwOv2Fh4x8TAOyYGhjp1YAgMhD4wEIagoD/8eW24IyLSKgYzZxIMZbVihw5F2YkTKD1+3OapazIykDl/PhKeftrmWiIi8jzm4mIUbt+Oiy+/jLLvvgMsFufOf/EizBcvAocPX3ONMTwcQZ07I7hrVwR37QrfJk2g0+kc2CURkTwMZs5iZygDAJ3BgEZz5+LojBkwX7pkcwt5zzyD0PvuQ/Btt9lcS0RE7k+xWlH6xRfI37oVhTt2QKmqcnVLNjHn56No504U/fp0iXdc3G8hLbhrV3hHR7u4QyKiv8fNP5xBQiir5R0WhkazZgGCnwCmjh0LS3m5UC0REbmn6sxMZC9fjl+aNMHJLl1Q8OqrmgtlV1KTmYmLL76IlGHDcKh+fRxt2xYXNm3iOkhEqsRg5mgSQ1mtkOuvR/2BA4Vqq1NSkPXAA0K1RETkXipPnsSZe+/F4QYNkL14MapTUlzdkkNVHD6M9ClTcCQpCRdffx2Kori6JSKi3zCYOZIDQlmtmIEDEdSypVDthY0bUXrggF3zExGRdilWK86vXYujrVujaNcuwMMCSk1WFlLuvx8nOnZE2Q8/uLodIiIADGaO48BQBlx+3yxx6lTovb1tL1YUpI4eDWtlpd19EBGRtpjy8nD6rruQOW8eFLPZ1e24VNnBgzjerh1SRo9GTW6uq9shIg/HYOYIDg5ltXzr10fssGFCtVWnTyNryRJpvRARkfqVfPopjrZti0sffODqVtRDUXBx2zb80qQJzq9ZA2t1tas7IiIPxWAmm5NCWa3IXr0QmJQkVJu7fj3Kvv1WckdERKQ2itmMrCVLcLJbN5iutEYRrGVlyJw/H0datsSljz5ydTtE5IEYzGRycigDfn2kcdo06EQeabRakTJqFKxusPMWERFdWU1WFk526YKcZcs87l0yEdXnzuFU9+5IHT8eltJSV7dDRB6EwUwWF4SyWn6xsYgdMkSoturECeSsXCm5IyIiUoOi//wHR9u2Ren+/a5uRXPyn3sOR1q3xqVPPnF1K0TkIRjMZHBhKKsV1bs3Apo2Fao9v2YNqtPS5DZEREQuYyoowLlhw3Cmd2+YCwpc2otXnToIaNoUdTt0QJ2bbkJgUhJ8Y2JgDAkB9Or+MaQmPR2nunVD2qRJsJSVubodInJzRlc3oHkqCGXA/x5pPDZjhs27bCnV1cicNw+N33rLQd0REZGzFO7cibRJk2DOy3PoPDqjEcaQEHjVqfO/X3XrwiciAt4REfCJiIBPeDj0Pj5/O4ZitcJSWQlzaSlMRUWoKSiAqaAANb/7VfvXrtxBMu+ZZ1D8/vtouHUrgm+7zWV9EJF7YzCzh0pCWS3/+HjEDBqErFdftbm28O23Ubp/P4I6dXJAZ0RE5GimCxeQNmUKinbscMj4vnFxCO/WDSE33ADvunVhCAyETqeza0ydXg9jQACMAQHwjYr629+nKAqUmhpYqqpgqayEtbISlspKWKqqYK2qQtX58yg5fBilx49Dqamxq6e/U5OWhpNduiBi8mTErV4NQ2CgQ+YhIs/FYCZKZaGsVtS996Lw4EFUpKTYXJs+YwZafv89dCp/tISIiP5HURQUvP460qdNg6WwUOrYej8/hHXqhPBu3RDQrJndQUyUTqeDzscHeh8feIWEXPH31O/XD9aaGpSdPImSX37BpUOHUH72LGC1Su0lb9MmlH72GZq8+y58mzSROjYReTb+BC5CpaEMAPRGIxpOnw6dwWBzbcVPP+HiSy85oCsiInKEmpwcnLnnHqQMHSo1lPlERSFx+nRc/9JLSJwyBYFJSS4LZbbQe3sjuE0bxA4dipaPPYa2W7eiXteu0uepPH4cx266CcXvvy99bCLyXAxmtlJxKKvln5iI6PvuE6rNWrSI2wMTEWlA6Vdf4Wjbtij+73+ljhvaqRNaPf44wrt2hcHXV+rYzuYdGoqG06ejxbp1wmd+/h3LpUs4fdddyFm1CgqPISAiCRjMbKGBUFar/n33wecqz+v/HVNuLrfPJyJSuYuvvoqTXbvCnJ8vbUy9tzcSpkxBozlzYPD3lzauGgQ2aYLmjz6KhrNnwyssTN7AioKsRYtwdsAA7tpIRHZjMLtWGgplAKD38kL86NFCtbnr16M6NVVyR0REZC9FUZC1ZAlShg2TusmFX3w8Wqxfj4ju3TXxyKIInU6HerfcgjbLlqH+rbdCZ5T3mn3Rjh043r49qs6dkzYmEXkeBrNrobFQVqvOv/+N4DZtbK5TamqQMXeuAzoiIiJR1spKnBs8GDnLlkkdN7x7d7RYtw7+8fFSx1Wl/HwYCgsR260bWk+diqAGDaQNXXn06OX3zvbtkzYmEXkWBrN/otFQBlz+dDB+7FihAzyLdu5EyRdfOKArIiKylenCBZzo0gWFb74pbUy9nx8azZ2LxClTYLjKWWNu40/ruW9YGJLGjEH8oEHQe3tLmcJSVITTd96JnJUroUjeDZKI3B+D2dVoOJTV8k9IQET37kK1GTNmQLFYJHdERES2qDh2DMf+/W+Uf/ONtDGDr78erZ98EmGecnbl36znupgYRA0ZglYbNyKweXM5c1mtyHrgAZy+806YJL4DSETuj8Hs77hBKKsVc//9MAQE2FxXcegQ8rdtc0BHRER0LYr37cOJDh1Qk54uZTxDQAASp01Ds6VL4RMRIWVM1buG9dy3fn00X7kScaNHQyfp27NL+/bhaNu2KPnySynjEZH7YzC7EjcKZQDgFRKC+gMHCtVmPfAALCUlkjsiIqKrURQFOatX4/Sdd0q7B9dp1w6tn3oK4d26ue0GH39hw3quMxgQ3acPWj3+uLSt9U05OTh5223IWbGCjzYS0T9iMPszNwtltSLvugs+9evbXGfOy0P2I484oCMiIroSS2kpzvbvj6yFCwEJP8wbg4LQaM4cNHngAXjL3Cpe7QTXc7/YWDRftQrR/frJ6cNqRdaDD+LUHXfAlJcnZ0wicksMZr/npqEMsG/7/AtPPIGKo0cld0RERH9WefIkjrVrh6J33pEyXminTmi9aRPCOnf2nG/JALvXc53BgLgRI9Bo7lzoJW2MUvLRR5cfbfz8cynjEZH7YTCr5cahrFadm25CcNu2NtcpZjPSJ0+GoigO6IqIiACgcNcuHGvXDlUnT9o/mF6PhEmT0HjuXHjVqWP/eFoicT0P69QJLdasgbek9/FM58/jZNeuyN2wQcp4ROReGMwAjwhlgH3b55d++SUKXn3VAV0REXk2xWJB5sKFOHvvvbCWlto9niEgAM0eeggRd9whoTuNccB67p+YiJbr1yP4uuvsbO5XVisyZs1C1pIl/MCTiP6AwcxDQlkt//h44cU6Y84cmIuLJXdEROS5TAUFONWzJ86vXi1lPJ/ISLR49FGEXH+9lPE0xYHruVdwMJotXYqovn3tGuf3cpYtQ+acOQxnRPQbzw5mHhbKasUMGSK0fb45Lw9Zixc7oCMiIs9TnZmJ4+3bo+Sjj6SMF5iUhBZr18IvPl7KeJrihPVcZzAgftQoNJw9W9qB1Lnr1yN90iTu2EhEADw5mHloKAMuf/IXM2SIUG3e00+j/KefJHdERORZarKzcfK221B95oyU8UI7d0bS8uWe9z4Z4PT1vN4tt6D5mjVCOx1fSd7mzUgZORKK2SxlPCLSLs8MZh4cympF3nkn/BISbC+0WpHGT/eIiITV5ObiZJcuqD53Tsp4MYMHo5HEb3E0xUXreUDDhmi1fj1CO3WSMl7BK6/g7ODBsNbUSBmPiLTJ84IZQxmAy49kJEyYIFRb/u23yN+yRXJHRETuz5SXh1Ndu6Lq9Gm7x9J5e6Ph7NmIGTzYs7bCr+Xi9dzg749Gc+YgYdIk6Ly87B6vaMcOnLn3XlirqiR0R0Ra5FnBjKHsD4JatEC9rl2FajMXLIDp4kXJHRERuS/TxYs42a0bKo8ft3ssn8hItFizBvVuuUVCZxqkkvVcp9Mh4o470PKxx+AbE2P3eJf27sXpXr1gKS+X0B0RaY3nBDOV3MTVJm7ECKGNQCyFhchauNABHRERuR9zYSFO3X47Ko8csXuskH/9Cy3Xr0dAw4YSOtMgFa7n/omJaLluHcIkBOWSTz7BqTvugKWsTEJnRKQlnhHMVHgTVwuvOnUQO2yYUG3+Cy+g7JtvJHdERORezMXFONWjByoOHbJ7rPoDB6Lp4sUwBgVJ6EyDVLyeG/z90XDWLCROmQKdne/7lX31FU7ffTcsFRWSuiMiLXD/YKbim7haRPTogYDGjYVq0yZNgmKxSO6IiMg9WEpKcKpnT5T/8INd4xj8/dHkgQcQe//90BkMkrrTGA2s5zqdDuHduyPpkUdg8Pe3a6zSzz/HmT59+M4ZkQdx72BWXKz6m7ga6AwGNJg4ERB4ebzi559x4emnHdAVEZG2WcrKcOquu1Bu55MFfnFxaLFuHer++9+SOtMgDYSy3wtq0QLNli2Dwc5vNks++ghn+vfnbo1EHsJ9g1lpKVBQ8Ne/r9KbuKsFNmmCiB49hGqzH3wQNVdaMImIPJSlvByne/VC2Vdf2TVOnXbt0OKxx+AnYWMJzdJYKKsV2KQJmq9YYffZcpf27sW5gQNhNZkkdUZEauWewayyErh06a9/X+U3cVeLHTYMxuBgm+ssJSXInDPHAR0REWmPtbISZ3r3RukXX9g1TsiNN6Lx/Pkw+PlJ6kyDNBrKavknJCBp1Sp416tn1zhF776LlKFDeQg1kZtzz2B2pW1mNXITdyVjUBDiRo4Uqi14/XVc+uQTuQ0REWmMtaoKZ/r2RYmd98OQ669HkwULoJdwPpZmaTyU1fKLiUHzVavgExlp1ziFb72FlJEj+V43kRtzz2D2Zxq7ibtSvS5dEJiUJFSbPnkyrNXVkjsiItIGa00NzvTvj0v79tk1TvB116HJokXQ27mzn6a5SSir5RMZiearV9t91lnBa68hddw4KFarpM6ISE3cP5hp9CbuKjq9HgkTJwJ62//TqDp1Crnr1jmgKyIidbOaTDg3cCAu7d1r1zhBrVqhyYMPQu/jI6kzDXKzUFbLOywMzVeuhF9Cgl3jXNy2DWkTJzKcEbkh9w5mYWGavom7in9iIiJ79RKqzV62DNWpqZI7IiJSL8VsxrkhQ1D07rt2jRPYvDmaLl4MA0PZX/++xkNZLa+6ddF8xQr4JybaNU7+c89d/uaMjzUSuRX3DWYhIYCdOyF5stghQ+AVGmpznVJVhbSpU6EoigO6IiJSF8Viwblhw1C0Y4dd4wQ0a4ZmDz3EjT7cOJTVMgYFodkjj8AvPt6ucS5u3YqUUaMYzojciHsGs4AAwM6zQzydwd8f8WPGCNVe2rsXxf/5j+SOiIjURbFakTJ6NAq3b7drnIDGjS+HMjsPJNY0DwlltbxCQtBs2TL73zl75RWc426NRG7DPYOZJ3/iKFFox44IbttWqDZ92jRYrrQ7JhGRm8hatAgFL79s1xj+iYlo9vDDMAYGSupKgzwslNXyrlsXScuXwycqyq5xCrdvx9nBg3nOGZEbcM9gRlLodDo0GD8eOqPR5tqajAzkLFvmgK6IiFwvb/NmnH/0UbvG8GvQAM2WLYPRk5/w8NBQVss7LAxJK1bAOyLCrnGKduzAuQEDYK2pkdQZEbkCgxldlV9MDKL79ROqzV23DpXHj0vuiIjItYr37kXa5Ml2jeEXF4ekZcvgFRwsqSsN8vBQVssnPBzNly+Xcgj12X79eGwNkYYxmNE/qt+/v9CjForZjLRJk7gRCBG5jfIff8TZgQMBO7Yq942JQbPly+HlyRtUMZT9gU9UFJKWLxfadOv3iv/7X5zp0wfWykpJnRGRMzGY0T/S+/igwfjxQrWlX3xh94vxRERqUJ2ejtO9esFqx/uzPtHRSFq+HN5160rsTGMYyq7It359JC1bBmNIiF3jXPrgA5wdNIjnnBFpEIMZXZM6N9yAuu3bC9Vmzp/PT++ISNPMRUU41bMnTLm5wmP4REZeDmVhYRI70xiGsqvyi4tD0ooVdoez4v/8BznLl0vqioichcGMrln82LHQCxx8WpOZifPr1jmgIyIix7NWV+PMvfei6sQJ4TG8w8Mv78DnyeGDoeya+MfHo/nKlfCy81vV7KVLUfzBB5K6IiJnYDCja+YDIObWW4Vqz69ejZqcHKn9EBE5mqIoSB0zBqWffy48htevO+/5REbKa0xrGMps4hcXh6SVK+Flz7erioJz99+P6rQ0aX0RkWMxmNG1+XVRjezQAX4C2/pay8uR9cADDmiMiMhxspcsQcFrrwnXG4KCkLRsGXztPKtK0xjKhPjFxKD5ypXwtuPfkaWwEGf694e1qkpiZ0TkKAxm9M9+t6jqDQYk3HOP0DAXX3oJ5T/+KLMzIiKHKXr3Xbve09EZjWi6aBH8YmMldqUxDGV28Y2OvhzO7DjnrOLHH5E+bZrErojIURjM6OqusKgGJSQgTGQjEEVBxsyZ3D6fiFSvJjsbKWPG2DVGw5kzEdSypaSONIihTAqfyEg0X7VK6NiaWvnPP4/8bdskdkVEjsBgRn/vKotqXHKy0EYgpfv3o+iddyQ0R0TkGIrFgnPDhsFSWCg8RtyIEQjr1EliVxrDUCaVT3g4mq9aBd+YGOEx0iZNQvnPP0vsiohkYzCjK/uHRdU7LAzR/foJDZ05dy6fdyci1Tr/2GMo/ewz4fqInj0Rde+9EjvSGIYyh/AOC0PSypXwqV9fqF6pqsLZfv1gLiqS3BkRycJgRn91jYtqVN++8K5Xz+bhq1NTkfvEE/Z0SETkEGXff4/sBx8Urg+58UY0SE6GTqeT2JWGMJQ5lHfdumiyaJHQEyvA5fX33NChPHyaSKUYzOiPbFhUDT4+iB0xQmianBUrYLpwQaiWiMgRLGVlODdkCBSzWajev1EjNJ47FzqDQXJnGsFQ5hT+8fFInDpVuP7Se+8hZ8UKiR0RkSwMZvQ/AotqWOfOCGja1OaprKWlyFq82OY6IiJHSZ82DdVnzwrVekdEoOmSJTD4+UnuSpLd92cAACAASURBVCMYypwqrHNnRN59t3B99tKlKPvmG4kdEZEMDGZ0meCiqtPp0GDsWLEpt2xBxeHDQrVERDIVvPUWLgruWmcICECzJUvgXbeu5K40gqHMJeJGjkRgUpJYsdWKlBEjYKmokNsUEdmFwYzsXlQDk5IQdsstts9rtSJj1ixun09ELlWdno605GTh+oTJk+EXHy+xIw1hKHMZvZcXGs+fD2NIiFB91enTyFq0SHJXRGQPBjNPJ2lRjR0+HDpvb5unL/n0UxRu325zHRGRDIrFgpRhw2C5dEmovl7Xrgjr2FFyVxrBUOZy3mFhaDx3LqAX+3HuwhNPoOTzz+U2RUTCGMw8mcRF1Sc8HNF9+wq1kT5jBsx2nBdERCQqZ9UqlO7fL1TrU78+GtjxTZumMZSpRnCbNoiz43iGlFGjYCktldgREYliMPNUDlhUo++9F16hoTbXmfPykDl/vtCcRESiSj7/HNlLlwrV6gwGNJo92zM3+2AoU5f8fERddx3qNm8uVF6TloaMOXMkN0VEIhjMPJGDFlWDnx9ihw0Ta+mFF1Dy5ZfCcxMR2aI6IwNnBwwALBah+pihQxHYpInkrjSAoUxdfr0eOp0Oif36wScsTGyY555D8b59kpsjIlsxmHkaBy+q9W67Df6NGwvVpiUnw1pdbXcPRERXY62sxJl774U5P1+oPrhNG+FHtzWNoUxd/nQ9jL6+aDJokPA5eqljxsBcVCSrOyISwGDmSZywqOr0ejQYM0aoturUKZxfvVpKH0REV6IoCtImTULFjz8K1RuCgtBw5kzoBDdb0CyGMnX5m+vh/69/IWbwYKEhTdnZSJ8+3d7OiMgOHrayeDAnLqpBLVsitHNnodqclStRefKk1H6IiGrlPfMMLr74onB94pQp8BZ8XEyzGMrU5R+uR3S/fgho2lRo6IJXXkHRu+/a2SARiWIw8wQuWFQbjBkDQ0CAzXVKTQ3Sxo+HYrU6oCsi8mSlX32FDDu+EQjv0QOh7dtL7EgDGMrU5Rquh85gQMMZM4SOsAGA1PHjYbp40Z4uiUgQg5m7c9Gi6lW3LuJGjRKqLf3yS1zctk1yR0TkyWqys3G2f38oZrNQvW9sLOIFH9PWLIYydbHhevjFxiJOcDMuc14e0pKToSiKUD0RiWMwc2cuXlTDu3VDUIsWQrUZc+bAdOGC5I6IyBNZq6txpn9/4XuKzsvr8tb4vr6SO1MxhjJ1EbgekXffLbwGF+3ahdwNG4RqiUgcg5m7UsGiqtPrkTB5MnRGo821luJipM+c6YCuiMjTpE+fjvJvvhGuT5g4EQGNGknsSOVUsH7Q7wheD51ej8Tp06EX/EAhc948HmND5GQMZu5IRYuqX1wcovv3F6otfOMNFH/wgeSOiMiT5D3/PPKffVa4PuLOOxHerZvEjlROResHwe7r4RsdjbiRI8XmtlhwbuBA1FxpfiJyCAYzd6PCRbX+fffBNyZGqDZ90iSebUZEQiqPH0f61KnC9YHNm3vWe2UqXD88mqTrEdGzJ4LbthVqwZSbi7MDBsBqMgnVE5FtGMzciUoXVb2XFxImTxaqrU5NRf4LL0juiIjcnWI2I2XkSCiCH+x4hYai8YIF0Ht5Se5MpVS6fngsiddDp9MhcepUGPz9hVop++orZM6fL1RLRLZhMHMXKl9Ug1u1QvjttwvV5ixfDktFheSOiMidnX/sMZR//71Qrc5oROMFC+Bdt67krlRK5euHx3HA9fAJD0f8uHHCLV3YsAGFb78tXE9E14bBzB1oZFGNGzkSxpAQm+tMubnIe/ppB3RERO6o4tgxZD/0kHB9g+RkBCUlSexIxTSyfngMB16Pel26oE67dsL1KaNHo/LECbt6IKKrYzDTOg0tqsagIDQYO1ao9vzq1bCUlEjuiIjcjWI2I3XkSCg1NUL14d27I7xHD8ldqZSG1g+P4ODrodPpkDhtGrwFx7KWleFMv36wlJXZ3QsRXRmDmZZpcFEN7dwZIddfb3OduaAAuY8/7oCOiMidnF+zBuU//CBUG9C0KRqMHw+dTie5KxXS4Prh1px0PbyCg9F4wQKhY2wAoOrECaSOGcPDp4kchMFMqzS6qOp0OiRMnAidt7fNtbnr1sFcWOiArojIHVQcPYrspUuFao0hIWjiKZt9aHT9cFtOvh6BTZqgQXKycH3hW2/hwsaNEjsioloMZlqk8UXVJyoKkT172lxnKSnB+bVrHdAREWmd1WS6vAujyLbeOh0az5sH73r15DemNhpfP9yOi65HeI8eqNe1q3B95ty5KBPcXIeI/h6Dmda4yaIa3a8f9L6+Ntdd2LgRpgsXHNAREWlZ7po1qPjxR6HayLvvRnDr1pI7UiE3WT/chguvh06nQ8KECfBPTBSqV0wmnBs4EObiYsmdEXk2BjMtcaNF1atOHUTdc4/NddaKCuSsWuWAjohIqyqOHEH2ww8L1frUr4/YYcMkd6RCbrR+uAUVXA+9jw8aL1wIQ0CAUH11aipSx43j+2ZEEjGYaYUKbuKyRfXpI7Qg5D3zDKozMx3QERFpjdVkQsqIEcKPMDacNg0GHx/5jamJG64fmqai6+EbFYWGs2YJ1xft2IG8zZsldkTk2RjMtEBFN3GZjIGBiO7b1+Y6paYGOcuXO6AjItKa86tXo+Lnn4Vqo+65B0EtWkjuSGXcdP3QLBVej7o33YT6AwYI12fMnInyQ4ckdkTkuRjM1E6FN3GZInv1gjE42Oa6i1u3ourcOQd0RERaUf7zz8h55BGhWt+YGMQOHSq5I5Vx8/VDc1R8PWIGD0awwFE2AKBUV+PsgAGwlJZK7orI8zCYqZmKb+KyGPz9Ed2/v811itks/E4JEWmftaoKKcOHQzGbbS/+9aBdvTs/wugB64emqPx66AwGNJo9W/jw6eozZ5A2YQLfNyOyk1sFs+LSUvx07hx+zsjA4fPnUVJZ6eqWxKn8Ji5TZM+e8AoNtbmu4NVXUXn8uAM6IiK1y1qyBJVHjwrVRvXujaDmzSV3pCIetH5ogkauh1dwMBrPmwedwSBUX/D667i4davkrog8i9jR7ypSUlKCzZs3Y+/evThw4AAsFstv/8yo1+OW1q1x9003YWz37ggQ2J7dJTRyE5dF7+OD+gMGIN3WF4gVBVmLF6PJzp2OaYyIVKl0/37kPvaYUK1vTAxi779fckcq4mHrh+pp7HoENmuG2OHDkbltm1B9+tSpCPj3v+HfqpXkzog8g6a/Mdu9ezdatGiB+fPn48svv/xDKAMAs9WKTw4fxowXXkCbadPw6eHDLurUBhq7icsSfvvt8I6IsLmu6J13ULp/vwM6IiI1spSWImXECEDkkSm9Hg2nT3ffRxg9dP1QLY1ej6g+fVDnppuEaq2VlZffNysvl9wVkWfQZDBTFAWzZs1Cnz59kJ2dfU01Kbm56Lp4MWZt2fKXAKcaGr2Jy6D38kLM4MFCtekzZkCxWiV3RERqlDFnDqpTU4Vqo3r3RmBSkuSOVMKD1w9V0vD10Ol0SJw+Hd716gnVV504gcy5cyV3ReQZNBnMNmzYgA0bNojV7t6N+x59FBXV1ZK7spOGb+Ky1Lv1VvjGxNhcV/HTT7j44ovyGyIiVSl+7z3kP/ecUK1vbKz7PsLI9UNd3OB6eAUHo9GcOYBe7MfEvM2bUfbdd5K7InJ/mgtmH3/8MWbPnm3XGLu++QZdHngA+ZcuSerKTm5wE5dBZzAgZsgQodrMhQthKSmR3BERqYWpoACpY8aIFev1aDhjBvTe3nKbUgOuH+riRtcjqEUL8Q8zFAVpEydCUesTSkQqpblg9rCkLdK/PX0a7efOxZmcHCnjCXOjm7gMoTffDL+EBJvrzHl5yFmxQn5DRKQK6ZMnw5SbK1Rbf8AABDZtKrkjFeD6oS5ueD2i+/UTPt+s4qefkCf4DTeRp9JUMDt48CC++uoraeOdy81F+7lzcfDECWlj2sQNb+L20un1woe+5m7YgKqzZyV3RESuVrB9OwrffFOo1r9RI9QfMEByRyrA9UNd3PR66PR6NJo5E1516wrVZy1aBFNenuSuiNyXpoLZ9u3bpY9ZUFqKrosXY+fBg9LHvio3vYnLUOemmxDcpo3NdYrJhIw5cxzQERG5Sk12NtImTRKq1Xl5oeHMmdAbNX8yzB9x/VAXN78eXnXqoNHs2ULvm1mKi5E5f74DuiJyT5oKZqdPn3bIuFU1Nbjv0Ufx+O7dDhn/L9z8Jm4vnU6H+LFjhRaB4t27cenjjx3QFRE5m9Vkwrlhw2ApKhKqjx02DP7x8ZK7cjGuH+riIdcjuE0bxAwcKFR78cUXUXrggOSOiNwTg9mvFEXBzC1bsPjVVx02BwCPuYnbyz8hARHduwvVZsyYAcVsltwRETlb5uzZKP3sM6HaoJYtEXXPPZI7cjGuH+riYdej/oABCGjWTKg2bdIkrstE10BTwazaCVvcL3/rLTy2a5djBvewm7i9Yu6/H4aAAJvrKo8d4wvHRBqXv2ULLjz5pFCt3s8PDadPh05wq29V4vqhLh54PXQGAxImThR6mqXyl19wYdMmB3RF5F40tWo1btzYKfPMe/FF7JF9/oYH3sTt5RUSgphBg4Rqs5csgbmwUHJHROQMpQcPIm3iROH6BmPGwCcqSmJHLsb1Q108+HoENGyIyDvvFKrNXrIENVf690ZEv9FUMGvUqJFT5lEUBUPWrcORtDQ5A3rwTdxeEXfdBd/YWJvrzAUFyJZ0tAIROU9NVhbO3nsvFJNJqL7OTTeh3u23S+7Khbh+qAuvB2KGDIFXnTo211lKSpA5d64DOiJyH5oKZnfddZfT5iqrrMQ9y5fbfwg1b+J20RuNiBc8VPbCpk2oPH5cckdE5CjWykqc6dsXpgsXhOqNQUFImDIFOp1OcmcuwvVDXXg9AADGwEDEjRolVFvw2mso+fxzuQ0RuRFNBbM+ffqgYcOGTpsvLS8P/VatQo3gJ7e8ictR54YbEHLDDbYXWixInzoViqLIb4qIpFIUBanJySj/4QfhMRImTYK34HlLqsP1Q114Pf4g7NZbEdSypVBt+uTJsIr+XEXk5jQVzAwGA+Y6+Wvw/cePY9Lmzbb/cM+buFTxY8ZAZzDYXFfy6acoeOUVB3RERDLlrl+PAjt2xQ279VaE3nyzxI5ciOuHuvB6/IVOp0ODCRPENgI5fhznV692QFdE2qepYAYA48ePx5AhQ5w655aPPsLGPXuuvYA3cen8YmMRIfgoa8asWTBdvCi5IyKSpXjfPmTOmydc75+YiATBQ6hVh+uHuvB6/C3/Bg0QdffdQrXZS5eidP9+yR0RaZ/mgplOp8OWLVvQsWNHp847a+tWfPDjj//8G3kTd5iYQYNgDA62uc5cUIDMOXMc0BER2avq7FmcGzQIsFqF6o3BwWjywAMw+PpK7swFuH6oC6/HP4oZPBheoaG2F1qtODt4MD80JfoTzQUzAPD19cXevXtxuxN33rJarRi4di1OZmX9/W/iTdyhjIGBiL3/fqHaiy+9hJJPP5XcERHZw2oy4dzgwbAUFwvV6wwGNF6wAD4REZI7cwGuH+rC63FNDP7+wht0mbKzkTJ8OBTBD2WI3JEmgxkABAcHY+/evRg5cqTT5iypqMDdy5ahsLT0r/+QN3GnCO/eHX4NGgjVpk6YAGtVleSOiEhUziOP2LXZR/y4cQhu1UpiRy7C9UNdeD1sEtqxI4LbtBGqvfT++8hdt05yR0TapdlgBgBeXl7YunUrli5d6rQ5z54/j2EbNvxxMxDexJ1GZzCgwbhxQrXVZ84gZ8UKyR0RkYjSgweRs3KlcH14jx6I6NlTYkcuwvVDXXg9bFa7EYjOaBSqz1y4EKVffy25KyJt0nQwAy7fEB566CFs27YNRsGbgq3e++EHPLdv3+W/4E3c6YLbtEHYbbcJ1Z5/9FGebUbkYpbSUqQMGyb8XllgixZokJys/fPKuH6oC6+HML/YWET17i1WbLHg3KBBMBcWym2KSIM0H8xqjRw5Ert27UJQUJBT5pu1ZQvOHD3Km7iLxI8eDaPAtVZMJqQmJ/OZdiIXSp8xA9UpKUK13vXqocn8+dB7eUnuyskYAtSF18Nu9QcNgm9MjFBtTUYGUkaN4rmj5PHcJpgBQNeuXfH+++8jOjra4XNVVFdj+DPPwGyx/PEf8CbuFF4hIYgbPVqotuzAAeS/8ILkjojoWhS9+y4ubt0qVKvz9kaTBx6Al9YPkWYIUBdeDykMPj5oNHcudIIfmhT/5z+48MQTkrsi0ha3CmYA0KpVK7z33nuIiopy+FzfZGZi9Zdf/u9v8CbuVPW6dEFQ69ZCtZnz5qHmSgsxETlMTW4uUgXfEQWAhlOnIqBRI4kduQBDgLrwekgV0LCh8C6NwOW1uez77yV2RKQtznkpy8liY2Oxbds29O3bF1UO3oXv4c8+wx1Nm+LGG2/kTdzJdDodEgYNwtETJ6CYzTbVWi5dQsaMGWj85psO6o6Ifk9RFKSOHg2z4LlFkb17I+yWWyR35WQSQ4CiKDhfWIhjGRk4lpGBk9nZyC0qwqWKClitViiKAgWXj3r5/R/1Oh28jcbLv7y84G00wufXP3objQjy80N03bpoFhODlvHxSIyMhMFgkPG/Xn0YyhwiomdPlB45gsIDB2yuVUwmnB0wAK1+/hnGOnUc0B2RurllMAOAtm3bYuPGjUhOTnboPGarFcPefRc/dekCP4fORH+Rnw8/RUH9W25B9ief2Fxe+NZbKB45EnXcYWc3IpXL27wZl95/X6jWr0EDxA0fLrkjJ7MjBJRVVuL7M2dw9NcQVvurqKzMQc3+j6+3N5J+DWkt4uIu/zE+Ho2ioqDXa/ihG4Yyh9HpdEiYMgXl586hOjfX5vqatDSkT56MRq+95oDuiNRNpwi8aXnhwgVs2LDht7+eOXMmIiMjpTYmorKyEjU1NTCZTDCbzTAajVizZg3Wrl3r8Lmn3X03nrDjER2y0e8WVavZjGNPP43KvDybh/Ft1gytjhzR/kYCRCpWeeoUjl1/PayVlTbX6oxGtFy/Hv4JCfIbcxYbQ0BpRQUOnDiBz48exedHjuCHs2dhUdmGRWFBQejcsiU6t2yJW1q1QpuEBO18s8ZQ5hRlZ87gxPz5Nj/RUqvha6+h3pAhkrsiUje3D2YGgwEjRozAnj17HD7/hw8/jNuvv97h83i8KyyqpWlpOCG4oUf8xo2ImjpVRmdE9CdWkwknOnQQPkg6btQoRPftK7krJ7qGEFBeVYUvjx3D50eO4POjR/GjCoPYP6kTEICOLVrgllatcEurVri+YUMY1RjUGMqcKnfPHmQ8/7xQrSE4GK0OH4aPlj+UIbKR2wczLy8vlJeXo0ePHjh69KhD568fGoojTz6JUCdt2e+RrrKopr71FvJrz5ezgSE0FNedPQuj1nd6I1Kh7IcfRvbSpUK1Qa1bI2nZMui0+sjcVe5X1XXqYO/33+PVzz/Hez/+iGqTyfn9OVDdwED0/ve/MaRzZ3Rp00Yd36YxlDmdoig4u2oVir75Rqg+qFMnJH32GXRq+O+HyAk0utrZJiAgAG+88QYiIiIcOk9OYSEmb97s0Dk82j8sqnEjRsBL4GVhS2Ehsh95REKDRPR7FUeOIGf5cqFaQ0AAGs6Y4VahzGq1Yn9pKZLffBNRw4ej3+rV2PXNN24XygCgqKwML37yCbo/9BBiR4/GzBdewPdnzrjunCqGMpfQ6XRInDYN3oI/f5Xu34/zjz4quSsi9fKIb8xqfffdd+jVqxdqamoc2sfrs2djsNZ3D1Oba1xUC/bvxzmBdwp1RiNaHTsGv6ZN7emSiH6lmM043r698COMDWfPRj2t3kf/dL86kZeHVw8fxmtHjyK9oMCFjble05gYDOncGUNuuQVN6td3zqQMZS5XduoUTixYAOXPZ79eA53RiOYHDyLwppsc0BmRumj0o0gx7dq1wxNOOLxw8rPPIreoyOHzeAwbFtXQjh0RcsMNNk+hmM3InDdPtEMi+pPcDRuEQ1lop06aD2UWqxU7jh5Fh2efRYuNG7Hyiy88PpQBwOnsbCx94w00nTABnRYswDsHD8Ii8MP6NWMoU4XAZs0QK7izqmI249z998PihF1IiVzNo4IZAAwePBgDBw506BxFZWV8pFEWGxdVnU6HBsnJ0BltPwmiePdulHz2mUiXRPQ7ladPI2vJEqFa73r1kDBxouSOnCQ/H2VpaXjy66/RZMMG3Ld9O77OzHR1V6r11fHj6Ld6NVpMmYLn9+1DleynWRjKVCXq5psR0qSJUG31mTPImDVLckdE6uNxwQwA1qxZg9jYWIfO8c7XX2OHwOGK9DuCi6pvdDQie/USmjJj5kyhRy2I6DLFakXa2LFQqqqE6hOnT4cxMFByV46Xc/o0Fr70EuLWrsW0vXuRyqcmrtnp7Gwkb9qExHHjsHrHDhTL+GaEoUxd8vOhy81F4r33wujvLzbE88+j6N13JTdGpC4eGcxCQkLwzDPPQKfTOXSeyZs342JJiUPncFt2Lqr1BwyAMTjY5mkrDh/GxRdftLmOiC7L27wZpfv3C9VG9u6NkOuuk9yRYx1JS8PI1auRMH8+Vn/5JYoFAykBuUVFWPjyy4gfMwZzt21Dtuijnwxl6vK76+EdFIREO46/SB07FjU5ObI6I1IdjwxmANCpUydMnjzZoXPkXbqEGYLnd3g0CYuqMTAQMYIHU2Y9+CAspaVCtUSerDo9HZnz5wvV+sbFIW7YMMkdOc7JrCzct3o12kybhpcOHoSJ37RLU1pZicd27ULiuHGY+PTTyMzPv/ZihjJ1ucL1qNu8OcIF3yE1FxQgZdQoKBo754/oWnlsMAOABx98EC1atHDoHK998QX++/33Dp3DrUhcVCN69IBvXJzNLZhyc7k9L5GNFEVB2vjxsIo8hqbTIXHqVOi9veU3JllGfj7GbNyIllOmYMfBg65ux62ZzGZs/uADNB4/HlM2b/7nb9AYytTlKtcjfvJk+MbECA1b8uGHyOeH3uSmPDqY+fr64tlnn/3DlvqOMH7TJjnPzLs7yYuqzmBA/OjRQq2cX7cO1RkZQrVEnujiyy/jksAB7wAQeffdCEpKktyRXPmXLmHWli1oOmECtn78Maz8xN5pasxmbHrvPTRKTsb055/H+cLCv/4mhjJ1+YfrYfD1RaPZs4UPjs6cNw812dl2NkmkPh4dzACgdevWeOCBBxw6R05hIebyvaWrc9CiWueGGxBy/fU21ylVVchcsEB4XiJPUpObi4yZM4VqfaKiEDt0qOSO5CmtqMDDb7yBhsnJ2LB7t1seBq0V1SYTNu7Zg4bJyZi1ZQsu1G6wwlCmLtd4PQIaN0bM/fcLTWEpKUHa5MmuO7CcyEE8PpgBwNSpU9G+fXuHzvHChx/i40OHHDqHZjl4UY0bMwbQ2/6feuEbb6D066/tnp/I3aVPmQKL4C6EiZMnw+DrK7kj+1mtVjy/bx8aJidj6RtvoKyy0tUt0a+qamqwYfduJI4bhyXPP4/KKz3dwFDmGjau59F9+yKoZUuhqYp370bRjh1CtURqxWAGwGAw4JlnnkGgg7doHvfUU1zc/8wJn3T6x8cjokcPodr0qVO5fT7RVRS8+SaKdu4Uqg3v3h3BKtyFMTU3F10XL0bypk3cWVfFKmtqsGzPHrR56il8lpLyv3/AUOYaAuu5zmBAw1mzYAgIEJoybcoUmK/0aCuRRjGY/SohIQGrVq1y6BxpeXlY9MorDp1DU5z4+EnMkCFCN/6KH39E/pYtUnshchfVGRlImzBBqNYrNBRxo0ZJ7sg+iqLg2Q8+QJvp0/H5kSOuboeu0dmCAnTZuhVj3nkHRcHBDGWuYMd67hMeLnyovDkvDxmzZwvVEqkRg9nvDB06FHfeeadD53jyv//F/mPHHDqHJjj5nQCvkBDUHzBAqDZz4UKYRM/TIXJTisWClOHDYSkuFqpPmDQJRsFPyR0hMz8fPR56CBOefppPNmjU1p9+QvMlS/D2V1/x3SNnkrCeh3XujLBbbxWa/uKLL+LSRx8J1RKpDYPZ7+h0Oqxfvx4hISEOnWfMk0+iorraoXOomote1I7s1Qs+UVE211kKC5H94IMO6IhIu86vWYPSL74Qqg3t3Bl127WT3JEYRVGw7eOP0WrqVHzE94A170JxMQasWYPeK1Yg6+JFV7fj/iSu5w2Sk+EVGirURmpyMizl5UK1RGrCYPYnUVFRDn+k8UxODpa89ppD51AtF+6epffyQtzIkUK1ec8+i/KffpLbEJFGlX3/PbKXLBGqNQYHo8G4cZI7EpNTUIC7ly3D6I0bUVJR4ep2SKI9332HFpMn4+n33uPRBo4ieT03BgaiwfjxQq3UpKUha/FioVoiNdEpAt/3X7hwARs2bPjtr2fOnInIyEipjYmorKxETU0NTCYTzGYzjEaj0BlliqLgvvvuw8cff+yALi/T6/X4avVqtFf52T1SqWBLY0VRcHLRIpQKPE4a2L49mn/1FXQCOzwSuQtLWRmO/utfqD5zRqi+0Zw5COvcWXJXttt58CDGPfUUijR8xqROp0ODBg3QvHlzNG/eHElJSUhKSkJ0dDT0ej30ej10Ot0fflmtVphMJlRXV8NkMqGmpgbV1dWoqanB+fPncfLkyd9+nTlzBtVu8HRH1+uuw7Zp0xDHd8/kceB6fmbVKhSJ7Iis16PF118jUCXfxhOJYDD7G5mZmejQoQNKS0sld/k/SbGx+Pnxx+Hr7e2wOVRDBaGsVnlKCo7NmgUIfIqauG0bwgW/dSNyB6ljxwpviFOnXTs0eeAB6HQ6yV1du4rqasx84QU8J3gYtiuFhISgffv26NixI9q3b4/mzZvD39/fYfOZzWakpaXh+PHj+O6773DgwAEcPnxYk99AhQQE4MnkZAy99VaX/vfnFhy81BfZfgAAIABJREFUntcUFuLI5MlCjyb6tWqFlj/+CL0n/FxFbonB7Cq2bduGmYKHpl6r+f36YfWIEQ6dw+VUFMpqpW3ejLz33rO5zhgRgTanTsFYp44DuiJSt8KdO3G2f3+hWkNgIFo/+SS8w8Ikd3XtjqSlYdDatTiememyHmwRHByMm2++GR07dkTHjh3RqlUrGAwGl/ZUUlKCb7/9FgcOHMDBgwfx008/wWw2u7QnW/Tr0AGbJ01CveBgV7eiTU5az/M//BCpTz0lVBvzyCOI4WONpFEMZldhtVpxzz334KuvvpLY5R/p9Xp8s3YtbmrSxGFzuJQKQxkAmMvK8MuECTALnFEUOX06Gjz+uAO6IlKvmqwsHGnTRvgg6cYLFiC0QwfJXV0bRVHwzPvvY9aWLag2mVzSw7Xy8fHBnXfeiQEDBqBr167wVvkn/6WlpXjvvfewY8cOfPrpp7Bo4NzHqLp18cKUKbjrpptc3Yq2OHE9VxQFpxYvRskvv9hcq/P2RqtffoFfs2ZSeyJyBr4scxV6vR5PPvkk/Pz8HDaH1WrFyMcfV/0PC0JUGsqAyy8Zxw0fLlR74amnUMEzjsiDKFYrzg0fLhzKwrt3d1koKygpQd+VKzF582bV3md1Oh06deqEJ598EqdPn8a2bdvQs2dP1YcyAAgKCsLAgQPx9ttv4+TJk1i7di3aqfwdn9yiIvRatgzjN23i0QjXysnruU6nQ8LkyUKPJCo1NUifPJlHJpAmMZj9g8TERCx28FfixzMzsezNNx06h9OpOJTVqtetGwJEvqm0WJA+ZQpv+uQxch97DKWffSZU61O/PuLHjJHc0bX54uhRtJ0xA7u//dYl8/+TqKgoPPjggzhy5Aj27NmDYcOGOfy4FkcKDw/HuHHj8OGHH+LQoUNYuHAhIiIiXN3W33pu3z5cN306vhfcyMZjuGg9942ORsz99wvVlnzyCQrd7ecq8ggMZtdg/PjxDv8EcPWOHfjp3DmHzuE0GghlAKDT69FgwgRA4EXw0i+/ROH27Q7oikhdyg8dQpbgOX46gwGNZs+GwYFPHVyJoihYvWMHujz4oCrPsmrRogWefvpp/PLLL5gzZw5iY2Nd3ZJ0CQkJmD9/Pn755Rds2LABDRs2dHVLV5SSm4uO8+fjuQ8+4IdtV+Li9Tzqnnvg37ixUG3GrFmwCLyuQORKDGbXwGAw4KmnnoKPj4/D5rD8+khjjUoftblmGglltQKbNEH47bcL1WbMmcObPrk1a00NUkaMgCJ4X4oZOhSBTn5/ttpkwqgnnsDCl19W3e6BXbt2xa5du3DgwAEMGTJEE48q2svX1xejRo3C999/j5deegnXX3+9q1v6ixqzGeOffhqjN25EpRscDyCNCtZzncGAhlOnQiew6Y3p/HlkPfSQA7oichwGs2vUtGlTLFiwwKFzHElPx8q333boHA6lgpu4iNjhw2EIDLS5zpSTg8xFixzQEZE65CxbhkqBl+8BIKh1a0T36SO5o6u7WFKC2xcvxkuffurUea9Gr9dj0KBBOHDgAHbu3InbbrvNI7drNxgM6N27Nz799FPs2bMH3bp1c3VLf/HiJ5+gw7x5SMnNdXUrrqei9dw/MRFR994rVHth40aUHzokuSMix3HLYOaoxxGmTp2K6667ziFj11rx9ts4lJLi0DkcQkU3cVt5BQcjduhQodq8p59G6YEDkjsicr2yH35AzqpVQrWGwEA0nDFD6FNuUSezsvB/c+Zg//HjTpvzn/Tu3RvffPMNNm/ejJYtW7q6HVWo3ehkx44d+OSTT3C74BMLjnIoNRU3zpqF9374wdWtuI4K1/OYgQPhGxNje6HVivRJk6Co7Ntzor/jlsHMYrE45BEWo9GITZs22bUF/z8xWywYsm4dKrT0OIUKb+K2iujRA/6JibYXKgpSx42DVUvXi+gfWKurkTpiBCC49Xni5MnwceL/9z8+dAj/N3cuzqnkm47bbrsNn332GV566SU0bdrU1e2o1g033IC3334bH374Ibp06eLqdn5TVFaGXsuW4aHXX9fE9v9SqXQ913t7I2HiRKHasq+/xsVt2yR3ROQYbhnMgMvhzBE31FatWmHOnDnSx/29E5mZmPnCCw6dQxqV3sRtpTMY0GD8eKHaqhMnkLNypeSOiFwne+lSVAp+81SvWzeE3nyz5I7+3nMffIA7li7FpfJyp835d2644Qbs3r0bu3btUuW7VGrVrl07vPPOO/jggw/QuXNnV7cD4PKTN49s345ey5ahsLTU1e04h8rX8+A2bRB2yy1CtRnz5sGkwo2AiP7MbYMZAJjNZpjNZunjzpo1C61atZI+7u89t28fdqj9ETmV38RtFdSiBcJuu02o9vyqVag4elRyR0TOV/bttzi/Zo1QrU90NBqMGye5oyuzWCyYtWXL/7N3nmFRXV0bfqbRQZqKBUHEGnuJLRZiEhWNvffeO1ZAQVAx9oZKrFixYUtsURNjYosldkURFFSQKr3NzPfDl3wW2uxzzp4zM/v+814qe6/nehdZa54z+6yNsRs3QqnlY0rlypVDcHAwzp8/jzaEHxwZQLNmzXDixAmcOHECdevW1bYcAMCZ27fRdOZMPI2O1rYUYdGRfu44YgRkZmYar1MmJiJ63jwBFDEY/KLXxgwAcnNzeTdnCoUCgYGBkMvlvO77OaM3bMDLd+8EjUGMjhRxTXEcNoyo6KtzcxExahTUhnbshaFXqDIz8WLYMIDE6Eil1Ebjp2VmontAAFYfPy54rOLo27cvrl69iq5duxrkUA8haN26Nc6dOwcfHx+YmJhoWw6ev32L5rNn44/797UtRRh0qJ8b2dgQvxMet3UrUq9e5VkRg8Evem/MAGHMWb169TB9+nRe9/yc5PR0DFy5Enli+7CvQ0VcU7gU/fTr1xG7YQPPihgMekQvWICsJ0+I1pbv1QsWFN6nepOQgDaenjh544bgsYqidOnS2Lt3L4KCgmBtba1VLfqIiYkJJk+ejD/++EMUxxuT0tLwg48Pdl64oG0p/KKD/bxMx44wI7wX7+X48VALcJKKweALvTRmsgImgQlhzmbNmoVatWrxuufn/P34MfzFdHu9DhZxTSnTsSMsatQgWhvt5YXsyEh+BTEYFEj9+2/ErFxJtNbUyQnl+/blWdGX3IuIQNNZs3A7PFzwWEXRo0cPXLt2DZ06ddKqDn1HLpfD1dUVISEhWLduHWxsbLSqJzcvD8PXroXX7t2iuyOPCB3t5xKZ7MMgEIJvqDPu3kVsYKAAqhgMftBLYyaRSKiYMyMjIwQGBhYYi08WHTyIP8Xw/pKOFnFNkchkcJ40CRKCo6qq9HREjhsn2JUNDIYQKDMyPhxhJPi9lchkcJk2DVIBp9UCwJlbt/DN3LmI1uIL/La2tti5cye2b98OOzs7rekwJORyOYyMjNC7d2/8+eef6EF4nxWfLDl0CP1XrNDty6h1vJ9bVK+O0u3bE62N9vZG9qtXPCtiMPhBL40Z8OFSz4LeAePbnDVo0ABTpkzhbb+CUKlUGLhqlXYnQ+l4EdcUs0qVUK5XL6K178+eRcLevTwrYjCEI9rTE9nPnxOtLde7N8yrVOFZ0acEnTmDzv7+SM3MFDROUbRr1w5//PEHOnfurDUNhopcLodCoYC9vT0CAwOxa9culNZy3zn4119w8/JCbFKSVnUQoSf93HHwYMitrDRep0pL+/BOOHuAyhAhemvMgA9HGgu6c4xvczZnzhxUr16dt/0KIjo+HqPWr9dOIdGTIq4p5Xv3hqmjI9HaV9OmITcujmdFDAb/pPz+O2LXriVaa1a5Msr37s2zov9HpVJh1o4dGKfFyYsKhQILFy7E7t27Ubp0aUGOxTOKJ9+cAcD333+Pixcvwt3dXauaroeFodmsWXioS9++6FE/l1tawnH4cKK1Kb/9hrgtW3hWxGBwR6+NGfBpMf8YPpuriYkJAgMDIZUK+3/n0WvXEHTmjKAxvkCPirimSBUKOE+eTHSOPS8hAS8nTWJP5BiiJi85GS+GDiVaK5HLBT3CmJGdjd4//YQVR48Ksn9JqFKlCs6cOYMxY8Z8MnGRmTPt8HE/t7e3x9atW7Fu3TpYWlpqTVPku3f4Zs4cXCUcmkMVPezn9m5usCB81/+VhweyX77kWRGDwQ29N2YAHXPWuHFjTJw4kZe9imL6tm14QKuQ6GER1xTLGjVQlvAF/8SDB/Fu40aeFTEY/PFy4kTkREURrS3fty/MKlfmWdEHUjIy8P38+QjV4mjrAQMG4NKlS2jUqBGVkxeMkvFxP5dIJOjduzcuXryIb775RmuaktPT8d38+fjtzh2taSgWPe3nEqkUzuPGAQQPxlVpaYgYPZo9QGWICoMwZgAdc+bp6YmqVavysldhZOXkoO+yZcgQ+qVjPS3iJFQcNAhG9vZEa19Nm4bUK1d4VsRgcCchJAQJ+/YRrTVzdUW5nj15VvSBlIwMtPfxwRUtfQNhaWmJLVu2YOPGjbCwsABAp38wSs7n+ahYsSIOHDgAPz8/rd17lpGdjc7+/ggVY73X835u5uwMhy5diNayI40MsWEwxgwQvrmamppi69atMDIy4rxXUTyKisI0IQuJnhdxTZGZmcF5wgSiteq8PDzv3Ru5sbE8q2IwyMmOikLk+PFEayVyOVymToWUYGppceSbsmtPn/K+d0moX78+Ll++jN4FvDfHzJm4+DwfUqkUo0ePxpkzZ1CNwn16BZGTl4fey5aJ664zA+nnFfr1g4JwUio70sgQEwZlzADhm2u9evWwcOFCzvsUx5Zz53Dg8mX+NzaQIq4p1o0bw65NG6K1uW/e4HnfvuxSS4YoUKtUiBg2DMrkZKL1FQYMgJmTE8+qPpiyDr6+WjNl3bp1w+nTp+Hs7FzozzBzJi4Kykf16tXx66+/omvXrlrRpFKpMHztWqw9cUIr8T/BgPq5zMwMlQkfoLIpjQwxYXDGDBC+uY4bNw7tCe/X0IQxgYF4ERPD34YGVMRJqDRqFOSEL5mnXrqEqHnzeFbEYGhO7Nq1SLl4kWitebVqKNe9O8+K/t+UaWuAwsyZM7F9+3aYmpoW+7PMnImLgvJhYWGBTZs2wd/fX/B7Rgtj2tatWLh/v/Y+7BtgP7du0gR2bm5Ea1POn0fczz/zrIjB0ByDNGaAsM1VIpEgMDAQZcuW5bRPcaRkZKDf8uXIyc3lvpkBFnFNUZQqhUqjRhGvj1mxAomHD/OoiMHQjIwHD4gfEEiNjOAybRokPH/Q1aYpMzIywubNm+Ht7a3RVF1mzsRFQfmQSCQYNWoUjh49KngvLgzf/fsxfetWqGhf9WDA/dxp9GgobG2J1r6aORPZkZH8CmIwNMRgjRkgbHO1t7dHUFDQJyOWheCfZ8/gtWcPt00MuIhril3btijVqBHx+hfDhyPz8WMeFTEYJUOVnY3wgQOhJhwc5Dh8OEwrVuRVU0pGBjpqyZTZ2dnh+PHj6NevH9F6Zs7ERWH5aNKkCS5cuIDmzZtrQRWw9uRJjFy/HnlKJZ2ABt7P5RYWqEw4IZsdaWSIAYM2ZoCwzbVt27aYOnUqpz1KwoqjR3H61i2yxQZexDVFIpHAZepU4peMVWlpeNajB5SpqTwrYzCKJnr+fGTeu0e0tlTDhijD82W++aZMG9MXq1evzsuHdWbOxEVh+bCzs0NoaCjGEw684crOCxfQn6/TLUXB+jmAD0ca7b/9lmhtyoUL7EgjQ6sYvDEDhG2uXl5eaMThG5aSMmT1arxJSNBsESviRCisreE6Zw4khFPpsp48wYsRI9hTOQY1Ui5dQsyKFURr5ZaWqDxlCq/f/mvTlLm5ueHs2bNFDvnQBGbOxEVh+QAAf39/bNq0qdB/F5LDV66ge0AAMoW66ob180+oNGoU+ZFGDw9kvXjBsyIGo2QwY/Y/hGquCoUCW7duhSXh0IiSEp+SgsGrV0NZ0uMSrIhzwrJGDU7vmyUdPozYNWt4VMRgFExuXBxeDBoEED4IcJ44EUaEH3AKIv+dMm2YsmHDhuHgwYOwtrbmdV9mzsRFUfno3bs3jh07BhsbG+q6Tt28CXc/P6RmZPC7MevnX8DpSGN6OiKGDYOa1vFTBuMjmDH7CKGaa+XKlbFy5Uou0krExXv3sPjQoeJ/kBVxXijTsSPxBCgAiJo3D5laGg3OMAzUSiXC+/dHTnQ00Xr7du1g26IFb3rep6ejvY+PVt4p8/f3x+rVqwX7toSZM3FRVD6aNm2K8+fPo0qVKtR1/XH/Pr5fsABJaWn8bMj6eaFwOdKYevkyYtjDU4YWYMbsM4Rqrn369CF+yVwTfPbtw8G//ir8B1gR5w2JRALnCRNgSngkSp2djYiRI6GmPbGLYTBEz5+PFMLLbo3KlIHT6NG8ack3ZbTvKTMxMUFwcDAmT54s+DAmZs7ERVH5cHJywm+//YYWPD54KCnXw8LQ1tMTsUlJ3DZi/bxYuBxpjPbyQsbDhzwrYjCKhhmzAhCquS5fvhwuLi5cpJWIIatX40pBk/9YEecdmbExqs6bB5m5OdH6tL//RmxgIM+qGAwg6cQJvA0IIFsslaLKjBmQmZnxoiU5LQ0/+PjgelgYL/uVlNKlS+OXX36hetkwM2fioqh8WFlZ4ejRo1Qemn7OvchItPb0RHR8PNkGrJ+XCLmFBSpPmkS0Vp2djRdDhkAl9NAWBuMjmDErBCGaq6WlJbZv3y74i8fZubnoungxwj8u2qyIC4ZJuXJwmTGDeH303LnIjojgURHD0Ml6/hwvhgwhXl+uRw9Y1qrFi5aktDR8v2ABblA2ZdWrV8dvv/2Gxo0bU40LMHMmNorKh0wmw6ZNm+Dt7U1dV9jr12g1d+6nvboksH6uEdaNG8O+XTuitRm3b+PN4sU8K2IwCocZsyIQornWr18ffn5+XKUVS3xKCtz9/JCQksKKOAVsmjRB+b59idaqMjLY3SkM3lBmZOBZz55Qvn9PtN6sShVU6N+fFy35puzm8+e87FdSWrVqxevkRRKYORMXReVDqVRi5syZ2LZtG/WJjZHv3qH1vHklN2esnxNRaeRI4mtu3ixahHTSK4kYDA1hxqwYhGiu48aNQ/v27blKK5aw16/RfeFCZEdFffmPrIjzToV+/VCqYUOitSkXLyJu61aeFTEMDbVajcjx44nvK5MYGaHKjBmQ8vDhNDE1Fd/Nn49blE1Znz59cOTIEd4nL5LAzJm4KC4fPXv2xP79+2FqakpV15vERHzr7Y2X794V/YPMlBHD5UgjlMoPRxqzsvgVxWAUADNmJYDv5iqRSLBx40aUL1+eD3lFcvnZM4wIDf302xhWxAVBIpOhiocHjMqUIVr/ysOjYBPNYJSQuKAgJOzaRby+0vDhMHV05KzjfXo6fvDxwe3wcM57aUK/fv2wadMmGBkZUY1bFMyciYvi8vHdd98hNDQUVlZWVHW9iouDm5dX4e+cMVPGGetGjVC6QweitZmPHiFaC8ddGYYHM2YlhO/mamdnhy1btkAqFT4F++7dg0/+ZDZWxAVFbmkJl6lTidaqUlMROW4cO9LIICLtxg28JPzdAwDb1q1Rxt2ds46M7Gz86O9P/Zuyfv36ITAwEDKZjGrcksDMmbgoLh/NmzfHyZMnYW9vT1VXRGwsvvX2xtvExE//gZky3qg0fDiMHRyI1sasWoWUP//kWRGD8SnMmGkA3821ZcuWmDNnDh/SisX/jz+wMzycFXEKWNWpgzIdOxKtfX/qFBL27OFZEUPfyY2Px/NevaDOySFab1qpEipPmsR5nHxObi56LV2Ky48ecdpHU/r27StaU5YPM2fiorh81KtXD6dPn0bFihWp6nr25g2+mz8fcfnviDJTxisyU9MPD09Jap1ajYhhw6BMTeVfGIPxP5gx0xC+m+vMmTPRsmVLPqQVy+hdu/A74bsnDM1wHDoURoRN8+XUqciJieFZEUNfUWVl4Vn37sghPAYrNTWF67x5kJmYcNKhVCoxZM0anKb8knzfvn2xceNGUZuyfJg5ExfF5aNq1ao4ffo0XF1dqep6FBWF7+bPR0JEBDNlAmD51VdwILxCIzsiAq9mzuRZEYPx/zBjRgCfzVUmk2HLli2wJbwAURPylEr0CAjA0+howWMZOjIzMzgPGkS0VpmUhJcTJ/KsiKGPqFUqvBg2DGlFXSpfDC5Tp8K0QgVuOtRqTNi8GQcuX+a0j6bokinLh5kzcVFcPhwdHXHq1CnUrl2bqq57kZH44aefkJyZ+ek/MFPGCxUHDSJ+nzbu55+RfOYMz4oYjA8wY0YIn821fPny2LRpE1/SiiQ5PR2d8sfoM4QjLg7Wdnawb9CAaHlSaCgSQkJ4FsXQN6I9PZF44ADxeofu3WHbogVnHXODg/Hz2bOc99GEPn366Jwpy4eZM3FRXD7KlCmDX375BU2bNqWq6/abN+gQHIzU7OwPf8FMGW9IjYzgMn06JIT1I2LkSOQlJfGsisFgxowTfDbX9u3bYyKlb0nCY2LQIyAA2ew2e2H46J2ASu7uUFhYEG0TMWYMMilfysvQHd4FBeHtTz8Rr7esXRuOHC6hzmfp4cNYFhrKeR9N6NOnDzZt2qSTpiwfZs7ERXH5sLa2RmhoKNq0aUNV1/XoaHTatQvptrbMlPGMuasryvfpQ7Q2980bTsOWGIzCYMaMI3w2Vx8fHzRq1IgvaUXy58OHGBsYyCYA8s1nL2rLTU3hTHiWXZWaiuc9e0KZns6XOoaekHzqFCInTCBer7C1RZVZs4ifFuez6dQpzOMwnp+Evn376rwpy4eZM3FRXD7Mzc1x4MABdCQc7kTK5Zcv0f3nn9nDVAEo17s3zAjfIUzYvRuJR4/yrIhh6DBjxgN8NVcjIyPs3buX2hSo4IsXsfTwYSqxDIJCpmfZfPstbFu1Itoy88EDRI4fzww04z/Sb9/G8z59AJWKaL1EJoPr7NkwsrHhpGP/pUuYGBTEaQ9N6devn84eXywMZs7ERXH5MDExwa5du9CrVy+qun7791/0W74cuex3glekcjmqTJsGSQE5LwmRY8ciNy6OZ1UMQ4YZM57gq7k6ODjg4MGD1C639Ny9G4f//ptKLL2mmJHGTmPGQE6Y04TduxH3888cBTL0gexXrxDWqRNUHL5FdRw+HJa1anHScfrWLQxZs4bqA4MBAwaIfiQ+KcyciYvi8qFQKBAUFIQhPBwF1oRj165h+Nq1UBE+lGEUjGmlSqhIOKwrLy6O3T/K4BVmzHiEr+Zaq1YtBAcHQy6X8ymvUAavXo1/nj2jEksvKcE9M4pSpeA0dixxiJdTpiDt5k3i9QzdJy85GWHu7sjlcJWCbatWKPvjj5x0XH3yBD0DApCnVHLaRxMGDhyI9evX66Upy4eZM3FRXD5kMhnWrl2LCRyOFJOw99IlTNi8mRkBnnHo0oX4gVVSaCgS9u/nWRHDUGHGjGf4aq5ubm5YtWoVn9IKJSsnB10WLcIr9nW85mhw+aftN9/AmnCqlzonB8979UJeYiLReoZuo8rOxvOePZH58CHxHubVqqHylCmcLpF++OoVOvn5IZPwImsSBg8erPemLB9mzsRFcfmQSCRYvHgxZs+eTVVX0JkzmLl9OzNnPCKRyVB58GBIjYyI1r+cOBE5b97wrIphiDBjJgB8NdchQ4ZgxowZfEorlJikJPzo74/UjAwq8fQCDUwZAEgkEjiPHw8Z4ZTGnJcvET54MNTsGItBocrJwfPevZFy8SLxHsZly6KatzdkxsbEe7x89w7tfXyQlJZGvIemDBkyBGvXroVUajitipkzcVESc+bp6Ql/f3+qulYdP46F7Fsa/oiLg4lSiUodOhAtVyYnI2LUKGaWGZyR+fr6+mq6KD09HdeuXfvvz82bN4cF4YdNPsnLy4NSqYRKpYJKpYJUKtXaU1apVAqJRPLFWXCVSgWJRFLiDxqtWrXCs2fP8PjxYyFkfkJscjJuh4ejb6tWkBnQByEiNDRl+chMTWHq6IjEP/8kCpv97BmkRkawbN2aaD1Dt1Dl5iK8Xz8kHz9OvIfMwgI1Fi+GcZkyxHvEvX8PN29vRMbGEu+hKUOHDsWaNWsMypTlw1f/YPBDSfLRtGlTWFhY4CKHByiacunBA1iamKBFzZrUYuolH/Vzs/LlkRYVhWyC0ynZz5/DqGJFmDdsyLdChgHBqruA8PHkUyqVYuPGjWjWrBnf8grk7J07GL9pE3vqUxSEpiwfm6+/RrmePYnDRy9YgPcXLhCvZ+gG6rw8vBg4EEkcxjFL5HJU8/KCKYdJr6kZGXBfuBBhr18T76Epw4cPx+rVqw3agLBvzsRFSfIxadIkLFiwgKqumTt2IOjMGaox9YrP+rlEIoFL9+6QmZoSbfdq+nRkR0TwpY5hgBhu16MEH83VxMQEe/fuhYuLC9/yCmTbb79h0YEDVGLpHBxNWT4VBw2CZZ06ZBpUKoT378+Kvx6jVirxYuhQJB46xGkfl2nTYPnVV8Trs3Nz0T0gADefP+ekQxP69u2LlStXGrQpy4eZM3FRknzMmDGD+jtn4zdtwtGrV6nG1AsK6edGNWrAadw4oi1VaWl43q8fVBTfw2XoF6zzUYCP5mpnZ4dDhw7BhuPdQyVlwb59CGbfynwKT6YM+N9dUjNnQmFrSyQlLy4OTzt0QG58PNF6hnhRq1SIGDkSCfv2cdqn4pAhsONw5FWpVGLQypW4cPcuJx2a0LFjR2zYsIGZso9g5kxclCQf8+bNw7Rp06hpUqvVGLByJf5+9IhaTJ2nmH5u17YtbAhPKqXfuIEoyuacoT+w7kcJPpprlSpVsHfv3gL3EYJRGzbgtzt3qMQSPTyasnwUNjZwnTULIPwQmhUWhrAff4SSDWzRG9QqFSLHjEF8cDCnfUq3b8/puKxarcakoCAcvnKFkw5NaNWqFXbs2EGtvukSzJyJi5LT1+HMAAAgAElEQVQMBPHx8cH48eOpacrKycGPixbhSXQ0tZg6Swn6ef6wLtL7R2PXrkUih2PoDMOFGTOK8NFcW7RogXXr1vEtrUDylEr0XLoUdw39yJwApiwfy6++guPQocTr069dQ3i/flCzD2c6j1qtxsuJExG3bRunfUo1agTnceM4jcX33b8fmym+t9KoUSPs27cPJiYm1GLqGsyciYuSmLMlS5Zg1KhR1DQlpaWhg68v3rJrVQpHg36usLGBMwdzHTF8OLJevCBezzBMmDGjDB/NtX///vDw8OBbWoGkZmbCfeFCRBnqHWcCmrJ8HLp1g03z5sTrk0+eROSECWxgiw6jVqvxato0vNu8mdM+Zi4ucJ01CxIO02g3/PIL/EJCOOnQhJo1a+LQoUOwtLSkFlNXYeZMXJTEnC1btgyDBw+mpunlu3fo5OfHrr4pCIJ+btuyJezatCEKp3z/Hs/79IEqO5toPcMwYcZMC/DRXL28vNC1a1e+pRXIm8REuPv5IZni/UWigIIpAz4cmag8ZQqMy5Uj3iNuyxa8oXyPDoM/3gYEIJbjN+HG5cuj2oIFkJmZEe+x/9IlTNmyhZMOTXByckJoaChsCd+1NESYORMXxeVDKpVizZo16Nu3LzVNd168QK+ffkIu+334fzj0c6exY4nfB8+4dQtRs2YRrWUYJsyYaQmuzVUqlWLTpk1oSOm+jAcvX6JHQACyDGXSECVTlo/c3BxV586F1MiIeI/XPj54t3Urj6oYNIgLDka0lxenPYwdHFBz0SIYcTA4Z2/fxpA1a6h98+rg4IDjx4+jHIcHEoYKM2fiorh8yGQyBAYGokuXLtQ0nbtzB6PWr2cnKQDO/VxuYYHKkycTh49dvx6Jhw8Tr2cYFsyYaRGuzdXMzAz79+9HRQ53FGnC7/fvo++yZfr/FI6yKcvHrHJlOHF8WTxy3Dgk/fILT4oYQvP+3DlEcnwHxahMGdRYvBhG9vbEe1x/+hQ9ly5FnlLJSUtJsba2RmhoKJydnanE00eYORMXxeVDLpdj69at+O6776hp2vX77/Des4daPFHCUz+3btQIZX/8kVhGxMiRyAoPJ17PMByYMdMyXJtr2bJlERISAgsLCyHkfcGJGzcwbO1aqFQqKvGooyVTlk/pdu1Qxt2dfAOlEuF9+iDt+nX+RDEEIf32bTzr2ZPT4BYje3vUXLQIxhx+Nx9HRaGTnx/Ss7KI99AEMzMzHDp0CLVq1aIST59h5kxcFJcPIyMj7Nq1Cy1atKCmacmhQ9h8+jS1eKKC537uOGwYzKtWJZKiTEn58L4ZpTrL0F2YMRMBXJtr7dq1sW3bNmp3/+y7dAkTNm/WvyMSWjZl+TiNHk18fwoAqDIzEda5M7JfvuRRFYNPsiMiEObuDhWH9zYVtraosWgRjB0ciPeIiovDDz4+SEhNJd5DE+RyOXbv3o0mTZpQiWcIMHMmLorLh5mZGUJCQqi9hgAAE4OCcOrmTWrxRIEA/VyqUMB11izIzM2J1mfcvo1XlAa3MXQXZsxEAtfm2r59eyxevFgIaQUSdOYM5uzcqT/mTCSmDPhw+XQVDw9Y1KhBvEdefDyedesGZXo6j8oYfJAbH//hcvDYWOI9FDY2qLFoEUzKlyfeIyElBT/4+CCa0iXlEokEmzdvRrt27ajEMySYORMXxeXDysoKR44cofatsUqlQt/lyw3n6hsB+7mxgwMqT5lCvP7dxo1IOnaMkwaGfsOMmYjg2lzHjRuH0aNHCyGtQJYfPYolhw5RiycYIjJl+UiNjVFt/nyYcHh/MOPffxExYoT+mGc9QJmRgWdduiArLIx4D3mpUqjh7w9TLr8b2dno7O9P9TLapUuXolevXtTiGRrMnImL4vJhY2ODY8eOoUqVKlT0pGVmorO/P94kJFCJpzUo9HPb5s1RlsMgl4ixY5FL6YEYQ/dgxkxkcGmuEokES5cuRceOHYWS9wXee/Zg3cmT1OLxjghNWT5yS0tU9/UlHtMLAIkHD+Lt0qU8qmKQolYqET5gANKuXiXeQ25piRqLFsG0UiXiPfKUSvRfvhzXnj4l3kNTZs2ahbFjx1KLZ6gwcyYuistHmTJlcOzYMWoDvKLj4/HjokXU3ielDsV+7jh0KMyrVSNam/fuHSLHj2cPTRkFwoyZCOHSXGUyGbZt24ZGjRoJJe8Lpm7Zgp0XLlCLxxsiNmX5GJcpg+o+Ppzupor28kKSLptnPUCdl4eIUaOQfPw48R5SU1NU9/ODmZMTuQ61GpODgnDixg3iPTRlxIgR8PT0pBbP0GHmTFwUlw9HR0ecOHECZcuWpaLndng4BqxYASWlCazUoNzPub5vlnT4MBIPHOBZFUMfYMZMpHBprvkvF9McRT1y/Xoc+usvavE4owOmLB+zypVRdd48SORysg3UaoQPHIjMx4/5FcYoEcr0dIR164b4nTuJ95DIZKg6dy7MOR57Cjh0CJvPnOG0hyZ07twZAQEBkEgk1GIymDkTG8Xlw8XFBYcOHYKlpSUVPSdu3MDMHTuoxKKClvq5cdmycJk6lXh95MSJyClIN8OgYcZMxHBprqVLl8bhw4dhy+EYnCaoVCoMWLkSJyk+iSdGh0xZPlb16sFl2jTi9arUVIR17Yq8pCQeVTGKI/fdOzxxc8P7X3/ltE/lKVNQqkEDTnvsungRXhTvNGrVqhU2bNgAlUrFzIAWYOZMXBSXj7p162L37t2Qkz6A05A1J05g46lTVGIJipb7uU2zZnDo2pVorTIxEZFjxrAjjYxPYMZM5HBprq6urti/fz9MTEyEkvcJeUolei1dinN37lCJR4QOmrJ87Fq3huOIEcTrs589Q3j//lDr2xEWkZL1/DketWiB9H/+4bRPxcGDYe/mxmmPc3fuYOT69Zz20IS6deti+/btMDY2BsDMgLZg5kxcFJePtm3bIjAwkJqeyT//rNtj9EXSzysOGUL8vlnyL78gPjiYZ0UMXYYZMx2AS3Nt2rQpfv75Z2pHiXLy8tB18WL8cf8+lXgaIZIizoVy3bqhTKdOxOvfnz2LqHnzeFTEKIi0f/7BoxYtkB0ezmmfMu7uKMdxkuGd8HD0XLoUeZQMuaurKw4ePPjFpffMDGgHZs7ERXH56Nu3L3x8fKho0ekx+iLq51KFAq6zZxO/C/5q6lRkR0XxrIqhqzBjpiNwaa5dunTBkiVLhJL2BVk5Oejs748rYnqnSURFnCuVRo6EZZ06xOtjli/Hu6AgHhUxPib511/xpG1b5MXFcdrHplkzOI0ezemhSmRsLNz9/JCWmclJS0kpV64cQkND4eDgwMyAiGDmTFwUl49p06ZRu/omLTMTnfz8qN1nyAsi7OfGZcqgEmHOlCkp7Gobxn8wY6ZDcGmu48ePx4QJE4SS9gXpWVnouHAhbj57Ri1moYiwiHNBKpfDdc4cGJUpQ7xH5LhxiPLyglql4lEZ493WrQjr2hWqjAxO+1jUqIEqHh6QyGTEeySmpqKDry9iKL1XaG1tjdDQUFT63yh/ZgbEBcuHuCgqH0qlEkuXLkXnzp2paHmdkIBOfn5I4Vi3qCDifm7/7bew/vprorUp58/j3ebNPCti6CLMmOkYXJrrokWL0L17d6GkfUFKRgZ+8PHR7jEJERdxLiisrFDNywvS/73DQ8LbJUsQPnAgVPp6pw1l3gQEIHL0aIDjkUGTChVQ1dubU27TMjPhvnAhnr5+zUlLSTE1NcXBgwdRs2bNT/6emQFxwfIhLorKh1qtxpYtW9C0aVMqWu5FRqJnQAByxfx7IPJ+LpFI4DxxImSE0zWjZs5EFsfj7wzdhxkzHYS0uUqlUgQFBeH7778XUt4nJKWl4fsFC/Do1StqMf9D5EWcK2aVK8Nl+nROeySGhOBJu3bI1aVjLCJDrVYjytMT0Tzc1aWwsUF1Hx8orKyI98jOzUW3JUtwPSyMs56SIJfLsWvXLnxdyJNiZgbEBcuHuCgqHwqFAvv370fVqlWpaDl/9y5Gb9ggziN1OtLPjWxs4DxuHNFaVUYGIoYPZwO6DBxmzHQU0uZqZGSE4OBgtGjRQkh5nxD3/j2+W7AAz968oRZTV4o4V2xbtED5vn057ZF25QoeNWuGTEof5PUJtVqNV9Om4W1AAOe9FLa2qO7vD2MHB+I98pRK9F++HBfu3uWsp6Rs3Lix2Ic9zAyIC5YPcVFUPqysrHD48GGU4XB0XROCL16E7/79VGKVGB3r53atWsH2m2+I1qZevoyYlSt5VsTQJZgx02FIm2v+BdQNON6LpAlvExPh5uVFx5zpWBHnSoX+/WHN8bhLdng4HjVvjpQ//+RJlf6jVioROXo0Ytet47yXqaMjai1fDrP/vZ9Fgkqlwqj163H02jXOekpKQEAA+vTpU6KfZWZAXLB8iIui8lGhQgWEhITA1NSUiha/kBBs/+03KrGKRUf7udO4cZCXKkW0NtrbG+livnaIISjMmOk4pM3VysoKR44c+eKdECF5nZAANy8vPBfSnOloEeeCRCpFlenTYcrhQz3w4bLLp999h/hdu3hSpr+ocnMRPngw4rZt47yXZa1aqPnTTzDm8PupVqsxY9s2BF+8yFlPSfHw8MD48eM1WsPMgLhg+RAXReWjbt26CAoKonb1zZjAQJy9fZtKrELR4X6usLJC5UmTiNaqc3M/vP9NaZouQ1wwY6YHkDZXW1tbHD16FJUrVxZS3ie8TkhAW6HMmQ4Xca7IzMxQ1csLss/ujtIUdW4uXgwdihfDh0OZlsaTOv1ClZ2N5717I5GH4z42LVqgup8f5Bzz5hcSgrUnT3LWU1IGDhwIb29vorXMDIgLlg9xUVQ+3N3dsXDhQio6lCoVev30E/598YJKvC/Qg35u07Qp7L/9lmht1uPHeDV7Ns+KGLoAM2Z6AmlzdXBwwLFjx1C+fHkh5X3C64QEuHl782vO9KCIc8WkXDm4zpoFSLn/Zx2/cyceNGyIdG0/MRUZyowMhHXpguTjxznvVfbHH+E6ezakRkac9ll74gTVd0K+//57rFmzhtOTe2YGxAXLh7goKh/jx4/HsGHDqOhIy8yEu58fXnG8k1Fj9KifVxo1Cgo7O6K17zZsQPLp0zwrYogdZsz0CNLm6uTkhGPHjsHe3l5IeZ8QHR8PN29vhBdUfDVFj4o4V0o1aIAqM2dCIpdz3iv72TM8atYMb1etYvedAch5+xZP27dHyrlznPdyHD4clUaNgoSjiQ6+cAHTtm7lrKek1K9fHzt27CiwzmgKMwPiguVDXBSWj7y8PAQEBMDNzY2KjreJiXTvONOzfi63sIDLlCnE6yNGjEAubWPM0CrMmOkZpM21WrVqCA0NhRWHMd2aEh0fj7ZeXtzMmZ4VcT6w++YbVPf1hczcnPNe6txcRHl4IKxTJ+TGxvKgTjdJPn0aD+rVQ9pff3HaRyKXo4qHB8p17875XZET169j5Pr1nPbQBGdnZxw8eBAWHI9dfgwzA+KC5UNcFJYPANi2bRu1d8QfvHyJ/itWQCn0GHc97eelGjRA6Q4diNbmxsQgcswYcV5hwBAEZsz0ENLmWrduXRw+fJjXD17FER0fDzdSc6anRZwPrOrWRa1ly2Bctiwv+70/cwb369ZF8tmzvOynK6hycvDKwwNh7u7I4/jUUmpigmo+PrBr04azrr8fPULf5cuhpPRNpq2trWAju5kZEBcsH+KisHyYmppi7969KE2p1526eRMzd+wQLoCe9/NKw4fDuFw5orVJx47xMmiKoRswY6ankDbXr7/+GgcOHKA2lhcAov73zZlG75zpeRHng/wR7ObVqvGyX967dwjr0AER48YhLzmZlz3FTNazZ3jUogViVq3ivJfM3BzV/fxQql49zns9evUKPy5ahKycHM57lQRTU1McOHAArq6ugsVgZkBcsHyIi8LyUa5cOezduxcmJiZUdKw5cQKbhXjnyQD6uczUFFVmzCB+B/zV1KnIevaMZ1UMMcKMmR5D2lxbtmyJffv2wdjYWEh5nxAdH4/Wnp54Eh1d/A8bQBHnC4W1NWouXgwbHi8UjwsKwv2aNZFw8KDeHq+I370bDxo2RMatW5z3kltZocaiRbCsUYPzXq8TEtDB1xdJlCZmSqVSbNu2DU2aNBE8FjMD4oLlQ1wUlo86depg06ZN1MboTwoKwvl//+VvQwPq5xbVq6NCv35Ea1UZGQgfNAiq3FyeVTHEBjNmeg5pc3Vzc0NwcDAvL/mXlLeJiWgzbx7uR0YW/kMGVMT5QmpsDNfZs1GuRw/e9syNiUF4374I69QJ2RERvO2rTXLevkXc9u146u6OF0OGQMWD+VHY2qLmkiUwr1KF817JaWno4OuLqPh4znuVlBUrVsDd3Z1aPGYGxAXLh7goLB8dOnSAn58fFQ35Y/RL9BC1OAywn5fv3RsWhA/p0m/cwJtFi3hWxBAbzJgZAKTNtUOHDti2bRtkMpmQ8j7h3fv3aOvlhVvPn3/5jwZYxPlCIpXCcdgwOE+YwMs4/Xzenz6N+199hbfLl+vckzy1Uom0a9cQPX8+HjRqhH/Ll0fEyJF4z9NRHaMyZVAzIIDzxd8AkJWTg66LF+PBy5c8KCsZHh4eGDFiBLV4+TAzIC5YPsRFYfkYOXIkxowZQ0XD+/R0dPbzQ3xKCvkmBtrPJTIZXKZPh5TwdZE3ixYh5c8/eVbFEBPMmBkIpM21S5cuCAoKonZMAgASU1PRbv58XHvy5P//0kCLON+U6dAB1RYsgMzSkrc9VZmZiJo9Gw8bN0bM2rXIuHdPtOP11Wo1Uq9exYsRI3DHwQGPmjfHm0WLkMHzfW3G5cujZkAATAhf9v4YpVKJQatW4c+HD3lQVjKGDBlCfIE0HzAzIC5YPsRFQfmQSCRYsGABOnXqREVDeEwMeixZgmySB3IG3s9NypWD0+jRZItVKoT3749ciicnGHRhxsyAIG2uvXr1woYNG4SU9gXv09PxvY8P/nzwwOCLON9YN2yIOuvWwbJOHV73zbx3D6+mTcODevVwp2xZPOvVC7GBgch89Ejr76KpMjMRt2MHHjZujMctWiB+xw7kCdTYTJ2cUDMgAMY8/G6q1WpM3bIFR65c4UFZyejWrRtWr15N9WFMQTAzIC5YPsRFQfmQyWRYv349GjduTEXD5UePMDYwULP6zvo5AMC+XTvYNG9OtDb3zRu8GDZM632VIQwyX19fX00Xpaen49q1a//9uXnz5lRHrBdGXl4elEolVCoVVCoVpFIp1WN4uoBUKoVEIoHqs280VCoVJBIJpIUcc6tbty5Kly6NczxcrltScvLycODyZTQtVQoutraf/qOBFXG+kZmZwb5tW0gVCqQ8eADwXOBVGRnIevwY70+dwruNGxG3eTMy7t0D8vKgqFgRUkpTxLIjI/E2IADhgwYhMSQEuXxcaF4E5q6uqO7vDyNra172Czh0CEuPHOFlr5LQrl076u+WFgVpvWIIA8uHuCgoHwqFAj/88APOnDmDZArTc+9GRMDU2Bjf1KpV/A8zU/YfEokEVvXqIeGPP6DKzNR4ffazZ5BZWcGS0NwxxAurogYI6ZPPkSNHYunSpUJK+4LMnBx03rMHp54+/f+/NMAiLgQSmQzl+/RBraVLebvvrDByY2ORsHs3nvfpgzv29njSrh1iVq8WZPyvWqlE8tmzCOvaFXddXPB22TIoExN5j/M5dm5uqLFkCRQ8XdK+6dQpeO3Zw8teJaFZs2bYtWsXjIyMqMUsCeybGnHB8iEuCsqHvb099u7dCzs7Oyoa5u3ahRPXrxf9Q8yUfYHCygouU6cSr4+eMwdpN27wqIghBpgxM1BIm+u4ceMQEBAgpLQvyM7LQ7d9+3Di8WODLuJCYVGjBr5aswa2rVtTiafOy0PKxYt4NWMG7lWrhnvVq+OVhwdSLl6EivBuLrVajbQbN/By2jT8W7Eiwjp0QPKJE7x/E1gQUlNTuEyfjirTp0PG0zeBO86fx4TNm3nZqyTUqVMHISEhMDc3pxZTE5gZEBcsH+KioHxUrlwZwcHBVO4kVavVGLByJe4VNqGXmbJCKdWgAcr++CPRWnVeHsL79UPe+/c8q2JoE2bMDBjS5jp+/HgsWbJESGlfkKtUoldICI4WNK2RwRm5uTmqeHig8tSp1I4Z5pMVFoaYVavwpF073CldGs9690ZccDBy370rdm3m48eInj8f96pWxaOmTRG7di1yY2IoqP6Amasraq9eDXs3N9723H/pEkauX8/bfsVRpUoVHDlyBNY8Hb8UCmYGxAXLh7goKB+NGjVCYGAglfdF07Oy8OOiRXj3+fFJZsqKxXHIEOLpvdkREYgYNYq9b6ZHSNQE2YyNjcXq1av/+/P06dNRVuCjUCUhMzMTOTk5/zWGwhoH41Py8vKQW8BkJYVCAblcXui6jRs3wtPTU0hpXyCXybB/5kz0atmSalxDIuvNG7xYswZpH0/F1AYSCcy//hqlfvgBErkceUlJUCYlIS8xEXlJSciNiUG2Fo26Q7duqDh4MKQ81pjQK1fQZ9kyKClNtaxQoQLOnDkDR0dHKvH4gLReMYSB5UNcFJSPbdu2UZuy2rJmTVxYtAjGCgUzZRqQERGBhzNnQk147Yzzpk0oM24cz6oY2oAN/2AQv9DdpEkTWFpa4uLFizRkftCkViP06lVUr1ABtZ2cqMU1JOSWlrBv1w5GCgVSw8Kg1uLT79zXr5H6559I/eMPpF+7hoy7d5EVFoacV6+ovDdWEPJSpeA6dy7KduoECY/15dd//kHvZcuQp1TytmdR2NnZ4eTJk3BxcaESjy/YAApxwfIhLgrKR8OGDZGUlIQ7d+4IHj8qPh5R8fHo6uICSUGnF5gpKxCFjQ0UVlZIvnmTaP378+dh06ULFCL4koTBDWbMGADIm+vXX39N3Zyp1WqEXruGquXKoY6zM7W4hoQkPh7mxsawb9AAOSkpyCzBsUJDwKpePVT384M5z2bm/L//otuSJcihZIItLCxw/PhxfPXVV1Ti8Q0zA+KC5UNcFJSPNm3a4M6dO4iMjBQ8/t2ICJhnZ6Pl5w9PmSkrEjNXV2RFRSEzKkrzxUolUv74A/bDhkEqsgFODM1gxozxH1zMmYWFBXVzduz6dbiULYt6lStTi2sQfHT8RGZsDNvatWFesSJSX7+GMiNDy+K0g6mzM5zHjkXFwYMhNzPjde8/HzxAJz8/ZBEeYdEUhUKBkJAQNGvWjEo8oWBmQFywfIiLz/MhlUrxww8/4Ny5c0hISBA8/vkXL9CwfHlUt7f/8BfMlBWLRCKBVYMGSPzrLyjT0zVenxcfj9y3b2HTrZsA6hi0YMaM8QlczJm5uTl+//13GjIB/L85cypTBvV17DiWaCnknQCT2rVRukcPQKlE2tOnVKYdahWpFBY1a6JMhw6oNHIkKvTvD7NKlXh/if7akyfosHAhMrKzed23KIKCgtCpUydq8YSEmQFxwfIhLj7Ph7GxMdq1a4fQ0FBkEtydpSknnzzBj9Wro2zVqsyUlRCpkREsatRA/IULRH02499/YVqvHkxr1hRAHYMGzJgxvoC0uTZt2pT6sUYAOHHjBsrb2qKRqyvVuHpHMS9qS+VylKpfHzZNmyI7Ph7Zb97Q1yggcktL2LRogfI9e6LyxIko26kTLL/6CgobG0Gmmt0JD8f3Pj5Ipfgt5KJFizB8+HBq8WjAzIC4YPkQF5/no1SpUmjSpAlCQ0OhFPh91hylEqdfvMDATp1gTnnary5jZGcHqYkJUgjfCUy5eBH2Q4dCJtLrTxhFw4wZo0C4fHNWunRpnDt3jobM/zj5zz8oZWaG5jVqUI2rN2gwPUthYwP7Nm1g16YNjEqXhkQuR25SklaHhJAikclg27IlnMaOhdOYMbBt2RJmzs6QGhsLGvfhq1f41tsbSWlpgsb5mEmTJmHu3LnU4tGEmQFxwfIhLj7PR4UKFeDo6IjTp08LHjs5IwN/P36MgW3aQM4+j5UYi+rVkf78OdEDUFVGBrKePYNt375Urkpg8AszZoxCIW2uDRs2/G8MN03O3rkDtVqNtrVrs2KkCYQjjeWWlrCsWRP2bdqgXI8esG7cGMblygFS6QejRmm6IAkKa2s4dOuGKjNmoPT338O4bFlIKH1YDHv9Gm5eXohLSaESDwB69+6NVatW6fV/F8wMiAuWD3HxeT5q1aqFvLw8XL9+XfDYUfHxeBETgx7Nm+t1DeITiUSCUg0aIOHSJagIjp1mPX0KY2dnmNevL4A6hpAwY8YoEtLmWq9ePVSpUgWnTp2ievHhpQcPkJyejh8aNGANoCTwdM+MRCqFkb09LGvVgr2bGxx69ECpBg2gsLGBMiMDeZ9fOqolLGrWhOOwYXCeOBGl6teHjOdBHsURERMDN29vvKU46r9t27bYuXOnQdwpxcyAuGD5EBef56NFixYICwtDWFiY4LEfvHwJNQC3OnUEj6UvyIyNYe7qivjffyd63yz1999hN2AA5NbWAqhjCAUzZoxiIW2uX331FWrUqIFffvnli7VCcj0sDFFxcejcpAlr/EUh4OWfEqkUxqVLo1S9eijbsSPsv/sOJuXLAwBy4uIAir8Pcisr2LdrB+cJE1ChTx+YOTnxev9YSYmOj4eblxdexcVRi1mvXj0cPnwYZpQNqDZhZkBcsHyIi4/zIZFI8N133+HSpUuIjY0VPPalBw/g6uCAumyScokxLlMGAJB6/77Ga9XZ2ci4exf2gwezB9U6hERN8HVGbGwsVq9e/d+fp0+fjrIiuNQuMzMTOTk5yM3NRV5eHuRyORQKhbZl6Q15eXnILWCkt0KhKPJp/OnTpzF06FDk5OQIKe8LerVogT0eHjBmvwNfIqApKw5lVhZS7t1D8j//IPnmTeQKMLpZamoKm2bNYNe6Nazq1YNUy98WxSYlobWnJ8Jev6YW09nZGefOnbhyMp8AACAASURBVEOZ/zV2Q4O0XjGEgeVDXHycj5iYGLi7u+NtQT2BZ4zkcpz390crHb1DURuolUo89fFByr17ROsrrVkDh6lTeVbFEApmzBgaQdpcL168iAEDBiArK0tIeV/QvkEDhHp6wkzgYQ46hRZN2eeo1WpkRETg/c2bSPrnH6SHhRGP4pfI5bBu3Bi2rVvDukkTyESS84SUFLT18sKDly+pxXRwcMCpU6fgYuDXSDAzIC5YPsTFx/m4e/cuunXrRqVH21la4try5XD93ykKRvHkxMfj/uTJRPebSUxMUPv2bTZCX0dgxoyhMaTN9fLly+jXrx/SCQoLF76pVQu/zJ+PUmx0rKhMWUHkvn+P97duIfnmTaQ+fIjc5OT/jJpEoYDcwgIyCwvIzc3/+18jOzuYu7rCqn59yEVwpPpjktPS0G7+fNwOD6cW097eHr/++iuqV69OLaaYYWZAXLB8iIuP83Hy5EmMGTOGStxqFSrg6rJlsLW0pBJPH4j//Xe8+OiztyaYN26MmleuQMo+E4seZswYRJA216tXr6J3795IozgmHADqOjvjtI8PytvZUY0rKkRuygpClZsLZVoaZGZmgo+w55vktDS09/XFDQov1udjbW2NkydPog57wf4TmBkQFywf4uLjfKxcuRIrVqygErdtnTo46+sLI/Y5rUSo1Wo8/+knJF25QrS+gq8vKvj48KyKwTfsrVsGEYWZ3nxTXBjNmzdHaGgoLCk/JbsXGYnms2fjcVQU1biiQQdNGQBIFQoobGx0zpQlpqai3fz5VE2ZlZUVjh49ykxZAZDWK4YwsHyIi4/zMWPGDHTp0oVK3D/u38eYwECqk5t1GYlEAufx46GwsiJa/9rfH2n//MOzKgbfMGPGIIa0uX799dc4evQorAiLCymv4uLQcs4c/P3oEdW4WkdHTZmuEp+Sgm+9vakeXzQ3N8ehQ4fQoEEDajF1DWYGxAXLh7jIz4dEIsHq1atRr149KnGDL15EwKFDVGLpA4qcHDiTGmelEuH9+iEvKYlfUQxeYcaMwQnS5tq4cWMcO3YMpUqVElLeFySlpeG7BQtw7KPrHvQaZsqoEpuUBDcvL9yNiKAW08TEBCEhIWjatCm1mLoKMwPiguVDXOTnw8zMDDt27KD2iorXnj04+NdfVGLpNP/r5zY1asC+YUOiLbJfvED4oEFQU7yyhqEZzJgxOEPaXBs2bIjjx4/DmvLlh1k5Oei5dCk2nz5NNS51mCmjytvEROrTF42MjLBv3z60atWKWkxdh5kBccHyIS7y81GuXDns3LkTJiYmVOIOWb0a1548oRJLJ/msnzu5u8OI8LPT+1On8NrPjy9lDJ7RS2PGzivTh7S51q9fHydOnICtra2Q8r5ApVJh/KZN8N6zRz9/X5gpo0p0fDzaeHriSXQ0tZhyuRzBwcH49ttvqcXUF5gZEBcsH+IiPx/169fHmjVrqMTMzs1F18WLEUnhomudo4B+LjMxgcuYMQDhxdFvFi5E8q+/8qGOwTN6acyUSiVU7Gta6pA217p16+LEiROw08LExMUHD2LEunXI1afmz0wZVV6+e4c2np549uYNtZhSqRRbt25Fx44dqcXUN5gZEBcsH+IiPx9du3aFh4cHlZjv3r9HZ39/vKd8pY6oKaKfW33zDRw4DGoJHzQIWc+fcxDHEAK9NGbAB3OmVCq1LcPgIG2utWvXxsmTJ1GmTBkh5RXIzgsX4L5woX40A2bKqPLszRu08fTEi5gYajElEgk2bdqEbt26UYuprzAzIC5YPsRFfj48PDzQvXt3KjEfvnqFPsuW6dfDUlJK0M8rDh4MU0dHou2Vycl41qMH0aXVDOHQW2MGfLibgxVz+pA211q1auH06dOoWLGikPIK5Pzdu2g5Zw5evntHPTZvMFNGlWtPnqDF7NnUf2dWr16Nvn37Uo2pzzAzIC5YPsSFXC6HkZERVq1ahSZNmlCJee7OHUz++Wf9fM2gpJSwn0uNjOAyfTokMhlRmMz79xE5Zoxh/38tMvTamAGsmGsL0uZapUoVnD59Gq6urkLKK5CHr16h2axZuKWLX+0zU0aVY9euwc3bG/EpKVTjBgQEYNiwYVRjGgLMDIgLlg9xIZfLYWlpie3bt8PJyYlKzKAzZ7DmxAkqsUSHhv3c3NUVFQYOJA6XsG8fYtevJ17P4Be9N2YAK+bagrS5Ojo64vTp01q5KDcmKQmt583DcV0ap89MGVU2/PILegQEICsnh2pcHx8fjB8/nmpMQ4KZAXHB8iEu5HI5ypUrh927d1O75sZj+3acuH6dSizRQNjPy/XsCZtmzYjDRnl4IJVdWSAK9NKYyQr4SpcVc+1A2lxLly6NkydPauVupozsbHQPCMBaXXhax0wZNVQqFWbt2KGVIzazZs3C9OnTqcY0RJgZEBcsH+JCLpejVq1a2Lp1K+RyueDx1Go1+q9YgZvPngkeSxRw6OcSiQQu06bBpEIFotDqvDw8790bORSHWDEKRi+NmUQiYeZMRJA2V2tra4SGhsLNzU1IeQWiVqsxbetWTPn5Z/EOkWGmjBrZubkYsHIlVhw9Sj325MmT4enpST2uocLMgLhg+RAXcrkcbm5uWLZsGZV4GdnZ6Ozvr/9j9Hno5zIzM1SdNw9SwrvncmNi8KxHD6iysojWM/hBL40Z8GGcdEFPdFgx1w6kzdXc3BwhISHo3LmzkPIKZf0vv6B7QADSMjO1Er9QmCmjRlJaGn5YsAAHLl+mHnvYsGFYsGABJIR31TDIYGZAXLB8iAu5XI4hQ4Zg0qRJVOLFJifD3c8PSWlpVOJRh8d+blqpElymTCGWkn79OiLHjWPDQLSI3hoz4MORRlbMxQNpczU2NsbOnTu1Nonu5I0baDV3LqLj47US/wuYKaPGi5gYtJwzB38+fEg9dr9+/bB48WI2XVZLMDMgLlg+xIVcLseCBQuoPTR9HBWF7kuWIDs3l0o8agjQz22/+QYOHK43iA8ORuzatcTrGdzQa2MGsGIuNkjzIZfLsWnTJq0NP/g3IgJfz5yp/YmNzJRR4/LDh/jawwOPo6Koxx4wYABWrlwJqfRDiWb1Sjuw/iEuWD7EhZGRETZt2oQGDRpQiXfpwQOMWLcOKpWKSjzBEbCfOw4ZAksOA9ReeXjg/fnznDQwyNB7YwawYi42SPMhlUoREBAAf39/IeUVytvERLSaOxehV65oJT4zZfTYdfEi2s2fj4TUVOqxR4wYgTVr1vxnyvJh9Uo7sP4hLlg+xIWlpSX27NmDCoRDJzRl36VLmL93L5VYgiJwP5fIZHCdNQtG9vZkG6hUeN6nD7LCwzlrYWiGQRgzgBVzscElH5MnT8aWLVsKXC80mTk56Ll0KX46coTuGWxmyqigUqngtXs3hq5Zg1wt1IWxY8di5cqVMDIyYvVKRLD+IS5YPsRFhQoVEBISAgsLCyrxlhw6hJ/PnKESSxAo9XOFtTVc58yBhHCCpjIpCc+6doVSCw8oDRmDMWYAK+Zig0s+evfujcOHD8PS0lIoeUUyNzgYo9avRw6N8+7MlFEhIzsbfZYtw5JDh7QSf9KkSVi6dOl/gz5YvRIXLB/iguVDXNSpUwfbt28vcCK2EEzYvBmnb92iEotXKPdzi+rV4TRmDPH6zIcPET54MNT6cnxUBzAoYwawYi42uOSjTZs2+PXXX1G2bFmh5BXJ9vPn0cHXFwkpKcIFYaaMCm8TE9Fm3jwc0dIx1enTp8Pf3/+L6YusXokLlg9xwfIhLn744QcEBARQiaVUqdD7p59wW5eO2mmpn5du3x6lv/+eeH3y8eN47evLnyBGkRicMQNYMRcbXPJRt25dnDt3DlWrVhVKXpH8fv8+Gkybhr8ePeJ/c2bKqHA7PBxfz5yJm1oa7DJ79uwiR+KzeiUuWD7EBcuHuBgzZgzGjh1LJVZ6VhY6+fnpxh1nWuznEokETuPGwaJGDeI93vj7I/HwYR5VMQrDII0ZwIq52OCSDycnJ5w9exZNmjQRSl6RRMXHo62nJxYfPMjfZdTMlFFhx/nzaDF7ttauQvDy8oKnp2ex95SxeiUuWD7EBcuHuFiyZAnat29PJVZMUhI6LlyIRDG/ByWCfi5VKOA6dy4UdnbEe7wYOhSZQjyEZnyCwRozgBVzscElH7a2tjh+/Dg6deoklLwiUapU8N6zB+19ffE2MZHbZiIo4vpOVk4OxmzYgBHr1mntXhxfX1/MmjWrxD/P6pW4YPkQFywf4kEmk2Hbtm2ow2FcuyY8iY5Gl0WLkJmdTSWeRoionxvZ2qKqpyckhIPTVBkZeDF8ONR8PYBmFIhBGzOAFXOxwSUfZmZm2LVrFyZMmCCUvGK5cPcu6k+dirO3b5NtIKIirq+8fPcOrebOxZZz57QSXy6XIzAwENOmTSNay+qVeGD5EBcsH+LBwsICISEhcHBwoBLv78ePMWjVKv5OrfCBCPu5RdWqqDxpEvH69Bs3ELNmDY+KGJ9j8MYMYMVcbHDJh0wmw5IlS7B8+fIv7oGixbv379HB1xdzdu7UbOS6CIu4vnHuzh00nD5da++TWVhY4ODBgxg4cCDxHqxeiQuWD3HB8iEe8sfom5ubU4kXevUqpm3dSvcqm8IQcT+3d3ODQ/fuxOujvb2RpaUeaggwY/Y/WDEXF1zzMXr0aOzfv59aQyiIZaGhaDF7Nu5GRBT/wyIu4vqASqXC4oMH0cHXV2vvIjg4OODUqVP49ttvOe/F6pW4YPkQFywf4qF+/frYtm0btQelG379FctDQ6nEKhQd6OeOQ4agVIMGRGvVWVmIGDWKjdAXCGbMPoIVc3HBNR/t27fHqVOnqB2lKIibz5+j8YwZ8Ny1q/Dz7zpQxHWZ2KQkdFm0CN579mjtSWqNGjXw22+/oW7durztyeqVuGD5EBcsH+KhQ4cOWLFiBbV4c4KDsfePP6jF+wQd6ecSmQxVZs2CcfnyROtTL11C3M8/86yKATBj9gWsmIsLrvmoV68ezp8/j1q1agkhr0TkKZUIOHwYdadMwe/37n36jzpSxHWVI1euoPbkyfj15k2taWjZsiXOnDkDR0dH3vdm9UpcsHyIC5YP8TBixAhMnTqVWrzh69bh/L//UosHQOf6udzCAtW8vCA1NSVa/2r2bGRHRfGsisGMWQGwYi4uuOajYsWKOHPmDL777jsh5JWY52/f4ltvb4xct+7DcTodK+K6RFJaGgauXIleS5ciXsgLwIuhZ8+eCA0NhbW1tWAxWL0SFywf4oLlQzz4+PigR48eVGLl5uWhR0AA/n3xgko8Xe3npo6OqDJzJlDMlS0FoUpNReTYseJ4p0+PYMasEFgxFxdc82FlZYWQkBCMHDlSCHkasf38edQcPx4Hzp37sqCJvIjrAqdv3ULtSZOw79IlreqYMmUKtmzZAmNjY8FjsXolLlg+xAXLhziQSqXYuHEjmjdvTiVeamYm3GlcQK2jpiwfmyZNULZzZ6K170+fRsKePTwrMmyYMSsCVszFBdd8yOVyrFixAgEBAcVe6Cs071JS0O/AAXTZswdRyckf/lJHirhYSc3IwNjAQLgvXIg3XO+S44BcLseaNWvg5+dHdTIoq1figuVDXLB8iAMTExPs27cPVatWpRLvbWIiOvj6IkGokxM6bsryqThoEIzKlCFa+3LaNOQKbX4NCGbMioEVc3HBNR8SiQTjx4/X+sTGfH55+hS11q3D+kePoLS11bYcnUSlUmHfpUuoM2UKfj57VqtaSpUqhSNHjmDYsGFaic/qlbhg+RAXLB/iwMbGBocOHYK9vT2VeE9fvxbmAmo9MWUAIDM1Jb7fTJmYiEgOd6MxPoUZsxLAirm44CMfHTp0wJkzZ1ChQgW+5WlMWk4Opuzbh5Zz5uB+ZKS25egMarUap2/dQsPp0zFw5Uq8fPdOq3pcXFxw/vx5tGnTRqs6WL0SFywf4oLlQxw4OzvjwIEDMCUcPKEpV548Qf8VK5DH1wXUemTK8ilVvz5Kf/890dqkw4eRqO1rCvQEZsxKCCvm4oKPfNSpUwcXLlxAA8K7PPjmelgYGk6fDu89e5CVk6NtOaLm2pMncPPygvvChSW7J05gWrZsifPnz1M7nlMcrF6JC5YPccHyIQ4aNWpE9Y6z49evY1JQEPdhFXpoyvJxHD4cCsLTOy8nTECulh+Q6gPMmGkAK+bigo98ODg44Ndff0WXLl34lkdEnlKJxQcPot7Uqfjtzh027egzHkdFoceSJWg+ezYuPXigbTkAgIEDB+Lo0aOwFdlRVFavxAXLh7hg+RAH7u7uWLZsGbV4QWfOYPHBg+Qb6LEpAz6M0HceP55obW5sLJ517w4V30dGDQyZr6+vr6aL0tPTce3atf/+3Lx5c1hYWPCpi4i8vDwolUqoVCqoVCpIpVLIZDJeY0ilUkgkEqg+u/FcpVJBIpFQfdmfwU8+FAoFunbtitzcXFy9elUoqRqRkJqK3X/8gd/+/RcVbG1RpVw5rQ8s0SaRsbGYsW0bxm7ciMciuTdFIpFg4cKFWLhwIeRyubblFAirV+KC5UNcsHyIg4YNGyInJ4da//39/n04lS6NBi4umi3Uc1OWj2nFisiMjkbmq1car82JikL2y5ew6dbNoD+zcIEZMwJYMRcXfORDIpGgTZs2qFq1Kn7//XfkiOQoYVR8PPZeuoRTt26hrLU1qlWoYFDF7m1iIuYFB2PYunW4FR4umm8QzczMsH37dgwZMkT0+WD1SlywfIgLlg9x0Lp1a0RGRuLhw4dU4v3yzz9o7OqKquXLl2yBgZiyfCxr10b8hQtE335l3rsHqYkJLL/5RgBl+g+rOISwYxDigq989OzZE5cuXUL9+vX5lMeZf549Q9fFi9Fw2jQcuXLliw8R+kZ8Sgpm7dgBlzFjEHjqFHJF9N+Uq6srLly4gB9//FHbUkoMq1figuVDXLB8aB+JRIL169fDzc2NSjylSoXeP/2E60+fFv/DBmbKAEBRqhScRo8mXh89bx4Sjx7lUZHhwIwZB1gxFxd85cPFxQVnz57FeMJz1kLyb0QEei1ditqTJ2PTqVNIy8zUtiReSU5Lg+++fXAZPRorjh4V3RCUzp074+LFi6hZs6a2pWgMq1figuVDXLB8aB8jIyPs2rULderUoRIvIzsb7X19cTs8vPAfMkBTlo9t69awbtKEeP2LQYOQfucOj4oMA4ma4GxQbGzs/7F33+FR1fnbx+/JpJFKQokgBAQNoIBUFUGQItJUioAIIgiiiOziWrH76OIWXR/9PavrD93VVUFaAgIiJRCCQAAjJRA1oYTeCYT0ZDLPHywsSJDkzJk598zcr+vyWg2cc776nvks32TmDN57770L//zUU08hLi7O1IUZUVRUhNLS0guD9EqD1mzl5eUoKyu77OtBQUG07z3xZWb2WLJkCZ544gnk5uaatTxTRYeHY2zPnpjUrx+ur+pLMsg4HA6s2LoVn69ciaS0NLrNGHDu5U6vv/46Jk+eTP/SxavRvOKiHlzUw3pHjhzBXXfdhf0eej9xrchIrPrjH9GqceNLf8GPN2XnlZ48iYxJk+AoLDR0fHCDBrhx40YE16tn8sp8lzZmJtEw52Jmj4MHD2L8+PE0NwapjM1mQ7/27TF5wADc1aaNV7wvInPfPny+ciW+TEnBoVOnrF7OFdWuXRuffvqp5Z9PZibNKy7qwUU9rJeVlYW7777bY98UrRsdjdVvv43mDRqc+4I2ZRccW7YMOf/v/xk+PvyWW9AiJQUBHvrMOm+njZmJNMy5mNmjvLwcf/7zn/HOO+/Q3IDiSuLr1EHvtm3R6+ab0aN1a9SJjrZ6SQCA0rIybMrORsr27ViwYQM2ZWdbvaSr6tChAz7//HOKDyI3m+YVF/Xgoh7WS0tLw8CBA1FcXOyR69WLjUXqtGm4PihIm7KLOJ1O7Hr3XZxKTTV8jtgHHkDTGTO8/hUnnqCNmck0zLmY3WPNmjWYPHkycnJyTFidZ7S57jr0vPlm9Lr5ZnRu0QKRYWEeuW5ZeTl+2LkTKRkZWJWRgbU//YRCL/p8k/Hjx+OPf/wjQkJCrF6K22hecVEPLuphvYULF2L06NEe+4ZofGwsUseORaOYmEt/wU83ZedVlJTgp5deQkFWluFzXPvGG7j21VdNXJVv0sbMDTTMuZjdo7CwEH/605/w97//HQ6Hw4wletT19eqhzXXXoU2TJmhz3XVo26QJ6sXGGv5OltPpxNHTp7Fj3z7s2LcP2/fuxY59+7A1JwcFHvpOp5lq1qyJd999F0OGDLF6KR6hecVFPbioh/U++eQTPPPMMx67XpOYGKQ++iiujYo69wU/35SdV5qbi8ynn0bpiRPGTmCzodl33yG6d29zF+ZjtDFzEw1zLu7osXXrVvzud7/D1q1bXV2e5epER+P6evVQOyoKdaKizv1vdDRqR0UhNiICRaWlOF1QgNMFBcjNz7/w94dPncKOfftw8uxZq/8VTHHXXXfhgw8+QD0/e6Oy5hUX9eCiHtZ788038e6773rsegm1a2P1uHG4JiFBm7KLFOzejZ9eeAEVBr/pGlinDlpu2YJgL71ZmSdoY+ZGGuZc3NGjvLwcH330EaZNm4YiH7t1vT+JiIjAtGnT8NBDD/nta+A1r7ioBxf1sJbT6cQTTzyBmTNneuyaN9Wvj1V//jPN+7RZ5KalIfvttwGDLy+NvPNONF+xAja73eSV+Qb+W7d5MX0uChd39AgMDMTkyZOxfv169OjRw9UligU6d+6MtWvXYvTo0X67KQM0r9ioBxf1sJbNZsMHH3yAXr16eeyaOw4dQs+XX8bxM2c8dk1vEHPbbWgwerTh48+mpODgm2+auCLfoo2Zm2mYc3FXj8aNG2PevHn4+OOPERsb68oSxUNCQ0Px9ttvY+HChWjUqJHVy6GgecVFPbioh7WCgoLw2WefoU2bNh67Zsbevej58ss4kZfnsWt6g3qDB6O2C9+MPvR//g/yVq40cUW+QxszD9Aw5+KuHjabDcOHD8emTZswfPhwV5YobtahQwekpqZi4sSJXvGZb56kecVFPbioh7UiIiIwe/ZsXHfddR675vnN2Ultzi6w2WxoPGkSIm680dgJnE7sGjkSZUePmrswH6A/kXiIhjkXd/aoVasWPv74YyQmJuonMWTq1auH999/H0uXLkVCQoLVy6GlecVFPbioh7Xq1q2LefPmoXbt2h675racHPR85RVtzi4SEBSEG6ZORXDduoaOLztyBLtGjYKzosLklXk3bcw8SMOci7t79OjRA+vWrcOTTz6pn8pYLDo6Gq+//jrS09Px8MMPw643HV+V5hUX9eCiHtZq0qQJZs2ahTAPfS4nAGzdswe9tDm7RFB0NBJefRUBoaGGjs9bsQKH337b5FV5N/1p0cM0zLm4u0d4eDjeeustrFy5Eq1bt3b5fFI9oaGh+P3vf4+tW7diypQpHv0/cV+gecVFPbioh7Xat2+Pzz77zKN3xdyyZw/uevVVnPKRj4gxQ1h8PBpPnGj4+AOvvoq81FQTV+TdtDGzgIY5F0/0aNOmDVauXIk333wTkZGRppxTrsxut+Phhx9Geno63njjDdSsWdPqJXktzSsu6sFFPazVu3dvTJ8+3aOvStm8e7c2Z79Su3t31O7Z09jBFRXYNWIEyo4fN3dRXkobM4tomHPxRI/zt9bfvHkzpkyZgvDwcFPOK5e67777sH79erz//vu49tprrV6OT9C84qIeXNTDWoMGDcJHH33k0Y87+XHXLvR65RXdrfEijR57DDUaNjR0bNmhQ9j14IOoqOSzAv2NNmYW0jDn4qketWvXxuuvv46MjAw888wziIqKMu3c/qx3795YvXo1Pv/8c93Yww00r7ioBxf1sNbw4cPx/vvve/Sam3fvRrepU3Ho5EmPXpeVPTQUTZ9/HgHBwYaOz1uxAjmPPQanwQ+u9hXamFlMw5yLJ3vExsbi5ZdfxrZt2/Diiy/q5XYGdenSBUuXLsXs2bNx8803W70cn6Z5xUU9uKiHtUaPHo2//vWvHr1m5v796Dp1KvYeO+bR67IKi49Ho8ceM3z8iX/9C4f8/MOntTEjoGHOxdM9atasieeeew7btm3Da6+9hlq1apl+DV/Url07JCYmYuHChbj11lutXo7f0Lzioh5c1MNajz76KN566y2PXnPXkSPo8sILyDp40KPXZVW7Vy/UuvNOw8cffO01HP/8c/MW5GW0MSOhYc7Fih5RUVF46qmnsG3bNrz33nto0aKFW67j7Vq1aoXPP/8cixYtQqdOneBwOKxekt/RvOKiHlzUw1pPPvkkXnnlFY9e88CJE+g6dSoycnI8el1GNpsNjSdORKgL7/HOGT8eZ5KTTVyV99DGjIiGORereoSHh2Ps2LFYt24dvvnmG/Tv39/vPwctMjISDz30EBYtWoSlS5eid+/eF97oreeHNTSvuKgHF/Ww1tNPP41nn33Wo9c8evo0ur34IjZlZ3v0uozsNWrg+ueeg83gRxk4y8uxc/BgFGZkmLwyfv79pz1CGuZcrOxhs9nQtWtXfPXVV9i8eTN+//vf+9X70AICAtCjRw9Mnz4dv/zyC/7nf/4HXbp0QXAlbyzW88Mamldc1IOLeljrxRdfxO9+9zuPXjM3Px89X34Zqdu3e/S6jMIiItCoXz/Dxzvy8pDVrx9K/ewlotqYEdIw58LQo1GjRnjjjTeQmZmJDz74ALfddptHrmuFZs2a4fXXX8f27duRmJiIoUOHXvLB0Aw95L/Ug4t6cFEP69hsNrzxxhuY6MKHHxtxtqgIfV5/Hd+lp3v0ulSOHwcOH0adjh0R26qV4dOUHjiArP794fCjjyWwOQ3cl/Lo0aN47733LvzzU089hbi4OFMXZkRRURFKS0svDLwrDURvUV5ejrJKPtMhKCjIo590L+ewv+/jpQAAIABJREFU9Thy5AhWr16NlJQUrF69GocOHfL4GswQEhKCjh074o477kCfPn3QunXrKn0eDVsPf6ceXNSDi3pYx+l0YurUqfjHP/7h0esGBQbi31Om4IGuXT16Xcv9Z1N2nqOkBJnTp6PoyBHDp4zq3RsJ33yDgJAQM1ZITRszchrmXFh7OJ1O7Ny5EykpKUhJScGaNWuQR/odpuDgYHTo0AF33HEHunTpgo4dOyI0NNTQuVh7+Cv14KIeXNTDOk6nE88//zz+93//16PXtdls+J8JEzCpf3+PXtcyv9qUnVcaGorMP/0JpSdOGD51VI8euD4xEYHR0a6skJ42Zl5Aw5yLN/QoLy9HRkYGtmzZgoyMDGRkZGD79u0oKiry6DpsNhuuu+46NG/eHC1btkTnzp1xyy23oEaNGqZdwxt6+BP14KIeXNTDOk6nE8899xymT5/u8Wu/9sADeG3EiCq9GsRrXWFThnr1gDp1UJiTg59eeAGOwkLDl6jRujWaffstgl244yM7TQEvcH5Y/3qYn/9nDXPP8oYegYGBaNu2Ldq2bXvhaw6HA7t27bqwUdu2bRt27tyJo0ePoqSkxKXrBQQEoEGDBmjRogVatGiB5s2bo3nz5khISLjk/WHu4A09/Il6cFEPLuphHZvNhr/85S9wOp345JNPPHrtN77+Gify8vDBhAm+eZflq2zKACCscWNc/8ILyHrjDTgNfsxN0bZtyOzUCc2++w41brzRlRXT0k/MvIi+08bFV3o4nU4UFBTgxIkTOHXqFE6cOIGTJ09e+OfS0lLY7XZER0ejZs2al/zv+b+PiYmx/LnmKz18hXpwUQ8u6mEdp9OJZ555Bp9++qnHr/3AHXfg8ylTEOxDfzatyqbskt+enIw977/v0iXtNWvihgULEOWD79/Ts9+L6DttXHylh81mQ0REBCIiItC4cWOrl2OYr/TwFerBRT24qId1bDYb/vrXv8LpdOKf//ynR6/99Zo1yM3Px7ypUxFu8L3VVKq5KQOAOj17ovTYMRycOdPwZR2nT+OXu+5C0y+/ROzQoYbPw8gHf57q23TrXS7qwUU9uKgHF/Xgoh7WCQgIwDvvvIMxY8Z4/NpLN29Gz5dfxrHTpz1+bVMZ2JSdV/+BB1C7Z0+XLu8sLcXO4cNx5P/+X5fOw0YbMy+kYc5FPbioBxf14KIeXNTDOgEBAfjb3/6GRx991OPX3pCVhY5PP41te/Z4/NqmcGFTBpz7qWXjSZMQ1aaNa+twOrHvqaew5/HHXbqpCBNtzLyUhjkX9eCiHlzUg4t6cFEP6wQEBOAvf/kLpkyZ4vFr7zt+HLc//zzmp6V5/NoucXFTdl5AYCBueOEF1DDhLRTHP/4YO9q1Q4EPfKi3NmZeTMOci3pwUQ8u6sFFPbioh3VsNhtee+01vPzyyx6/dkFxMQZNm4Zps2fDwL34PM+kTdl59rAwNHvtNYRcc43LSyv+5Rdk3nYbDr39tuG7PjLQxszLaZhzUQ8u6sFFPbioBxf1sI7NZsMzzzyDadOmWXL9l778EqP+9jcUufjRNW5l8qbsvOBatdDiT39CWJMmLizuHGd5OQ68+CJ+uvNOlOTkXP7rTicchYXUm2BtzHyAhjkX9eCiHlzUg4t6cFEPaz3xxBP44IMPLPkg6BmrV+POl17C4VOnPH7tq3LTpuy84NhYtJg2DVEXffaqK/K//x4ZrVvjl759seO227CtWTP8WLcufggORnp4ONIjIpDRqhX2v/QSHGfPmnJNs2hj5iM0zLmoBxf14KIeXNSDi3pYa/To0Zg+fTrsdrvHr73xPzcF2ZSd7fFrX5GbN2Xn2cPCkPDKK6jVvbsp56s4exZnvvsOBRs2oDgrC+XHj8P5n+dPRWEhirZvx+Fp07AtIQF5q1ebck0zaGPmQzTMuagHF/Xgoh5c1IOLeljr/vvvx7///W8EBwd7/NoHT55E5+efx/vffGP9S+48tCk7LyAwEE2mTEH9YcNMP/eVlB05gp1Dh6L04EGPXfO3aGPmYzTMuagHF/Xgoh5c1IOLelirf//+mDVrFsLCwjx+7bLyckz55BMMmjYNp6x6qZ2HN2Xn2Ww2NBg1Co0nTgQCPLNNKT9+HHsee8wj17oabcx8kIY5F/Xgoh5c1IOLenBRD2t1794d8+fPR82aNS25/oING9B2yhSs//lnz17Yok3Zxer27YsbXngBAR76qWXe8uUUn4WmjZmP0jDnoh5c1IOLenBRDy7qYa1bbrkFS5YsQf369S25/r7jx3HHCy/gL/PmoaKiwv0XJNiUnRdz221o/tZbCIyMdPu1nKWlyF+71u3XuRptzHyYhjkX9eCiHlzUg4t6cFEPa7Vo0QLfffcdrr/+ekuu76iowPOff44Bb76J42fOuO9CRJuy8yKaN8dN772HiBtvdPu1bIGBbr/G1Whj5uM0zLmoBxf14KIeXNSDi3pYKz4+HkuWLMHNN99s2RqWpKejze9/jxVbtph/csJN2XkhdeuixR//iAajRsHmxrtlhlx3ndvOXVXamPkBDXMu6sFFPbioBxf14KIe1qpTpw4WLlyIrl27WraGQ6dO4a5XX8UfPv0UxaWl5pyUeFN2ns1uR/1hw9DiL39B6LXXmn7+0BYtENywoennrS5tzPyEhjkX9eCiHlzUg4t6cFEPa0VFRWH27Nm45557LF3HewsWoOPTT2Pbnj2uncgLNmUXi7jhBtz03nuo27evqeeNf+89t/40rqq0MfMjGuZc1IOLenBRDy7qwUU9rBUaGorPPvsMo0ePtnQd2/fuRcenn8bf5s83dmMQL9uUnWcPDUXjiRNxwyuvIDA62uXz1XvhBdS8+24TVuY6bcz8jIY5F/Xgoh5c1IOLenBRD2vZ7Xa8//77mDp1qqXrKC0vx9P//CfuevVVHDhxouoHeumm7GIxHTui1QcfoOattxo6PrhBA9yQlISGb79t8sqMszkNfKz40aNH8d57713456eeegpxcXGmLsyIoqIilJaWXhhKVxpaApSXl6OsrOyyrwcFBSGQ4K40/kY9uKgHF/Xgoh5c1MN6CxYswOOPP46ioiJL11EzPBx/f/xxjOjaFTab7cq/0Qc2Zb+Wn5WFIwsWoGj/fpTl5iIgKAj28HAERkYiMCLi3N8XF8MeGoqgG25AZOvWCB0xAjaLPqPuSvSM9VPnh/Wvh/n5f9Yw9yz14KIeXNSDi3pwUQ/r3XfffWjUqBFGjhyJgwcPWraO0wUFGPnuu5iZmooPH38cDSvbZPngpgwAIhIScP2zz/72b8rIAJxOoEULICgI+K3Nq0X0UkY/ppdBcFEPLurBRT24qAcX9bBemzZtkJycjA4dOli9FCzatAk3PfkkPvz220vfe+ajmzJfoo2Zn9Mw56IeXNSDi3pwUQ8u6mG9a665BosWLcKwYcOsXgrOFhVh0j/+ga5Tp+LnAwe0KfMS2piJhjkZ9eCiHlzUg4t6cFEP64WGhuLjjz/Ga6+99tvv8/KQtT/9hJt/9zu8NWMGSn/9GNCmjI42ZgJAw5yNenBRDy7qwUU9uKiH9Ww2G5566il8+eWXCA8Pt3o5KC0vxyvJyWj74YdIysyE0+nUpoyUNmZygYY5F/Xgoh5c1IOLenBRDw79+/dHcnIyWrRoYfVSAACZx45h8IwZ6PDJJ1ickwMDN2YXN9PGTC6hYc5FPbioBxf14KIeXNSDQ/PmzZGcnGz5h1Ff7Me9ezHgzTfR6dlnsXzzZm3QiGhjJpfRMOeiHlzUg4t6cFEPLurBISwsDB988AGmT59O8dLG8zZkZaH3a6+h29SpSMnI0AaNgDZmUikNcy7qwUU9uKgHF/Xgoh48hg4ditWrV6NVq1ZWL+USazIz0f2ll9Dp2Wcx+/vvUe5wWL0kv6WNmVyRhjkX9eCiHlzUg4t6cFEPHtdffz2WL1+OcePGWb2Uy2zIysLwv/wF1z/2GN5bsAB5hYVWL8nvaGMmv0nDnIt6cFEPLurBRT24qAeP0NBQvPvuu/jXv/6FqKgoq5dzmb3HjuEPn36Kho88gmf++U/sO37c6iX5DW3M5Ko0zLmoBxf14KIeXNSDi3pwGTRoEFJSUnDLLbdYvZRK5RUW4t3589Hk0UcxaNo0fLNhA8r0OHErbcykSjTMuagHF/Xgoh5c1IOLenBp0qQJFi5ciKlTpyIwMNDq5VTKUVGB+WlpuO+Pf0SDsWPx9KefYvvevVYvyydpYyZVpmHORT24qAcX9eCiHlzUg0tISAiefvppLFq0CE2bNrV6Ob/p2Jkz+NuCBWg1eTI6/OEP+PvixTiZl2f1snyGNmZSLRrmXNSDi3pwUQ8u6sFFPbgEBgaiQ4cOWLZsGcaMGWP1cqokfedOPPnxx4gbPRrdpk7Fu0lJyDp40OpleTVtzKTaNMy5qAcX9eCiHlzUg4t6cAkMDER0dDTefvttfPHFF6hdu7bVS6oSR0UFUnfswDP/+heaTZyIZhMn4tl//Qup27fr1vvVxPliVqF3/nXQZWVll3z9/D+zvk7aV6kHF/Xgoh5c1IOLenA5/9+7V69eWLVqFZ5++mksW7bM4lVVT9bBg3gnKQnvJCWhRnAwboyPR8v4eLRq1AitGjdGy/h41IuNhc1ms3qpdPRsE8M0zLmoBxf14KIeXNSDi3pwOf/fu3bt2vjss8+QmJiIV155Bbm5uRavrPqKSkuRvnMn0nfuvOTrsZGRaBkfjxsbNkSLhg0v/G99P9+w6ZkmLtEw56IeXNSDi3pwUQ8u6sHl4h5DhgxBt27d8NprryExMdHilZnj1NmzSN2xA6k7dlzy9aiwMLRo0ADNGzRAneho1AwPR3RYGKLDwy/5+6gaNRBRowYiQkMRGhz8m5s5p9OJ4tJSFBYWoqi0FLElJQir5CW8DPQsE5dpmHNRDy7qwUU9uKgHF/XgcnGP2rVr4+9//zsGDx6M5557DocOHbJ4de6RV1iIDVlZ2JCVVeVjAgICEB4ScmGjFhwYiMKSEhQUF6OwtBSFJSWoqKi45Jjo8HA0atwYI0aNwtixYxEXF2f2v4ohPnnzD6fTafUS/I7eQMxFPbioBxf14KIeXNSDy6979OzZE6tXr8a4ceP8+iV/F6uoqMDZoiIcPnUK2YcOYce+fdhz9CiOnTmD/KKiyzZlAHCmoADbduzA1KlT0bBhQ0yaNAnFxcUWrP5SPrkxczgclUYQ99Iw56IeXNSDi3pwUQ8u6sHl1z0iIiLw1ltv4ZtvvkFCQoKFK/MNZWVl+PDDD9GtWzccOHDA0rX45MYMOLc5c+gWnR6nYc5FPbioBxf14KIeXNSDS2U9OnTogOXLl+ONN95ATEyMRSvzHRs3bsTtt99u6U1WfHZjBgDl5eUaHhbQMOeiHlzUg4t6cFEPLurBpbIewcHBmDBhAn788Ue8+OKLiIqKsmh1vmH//v2YOHGiZW+L8umNGaDhYRUNcy7qwUU9uKgHF/Xgoh5crtQjNDQUf/jDH7Bt2zY8++yziIyMtGB1vmHWrFmW3f3S5zdmgIaHVTTMuagHF/Xgoh5c1IOLenD5rR4RERF46aWXsHXrVkyZMgVhYWEWrND7TZ8+3ZLr+uTGzG63X/Y1DQ9raJhzUQ8u6sFFPbioBxf14HK1HrGxsXj99dexZcsWPPHEEwgPD7dgld5rxYoVOHHihMev65MbM5vNps0ZEQ1zLurBRT24qAcX9eCiHlyq0qNu3bqYNm0aduzYgddffx316tXz9DK9ksPhQHJyssev65MbM+Dch81V9kGIGh7W0DDnoh5c1IOLenBRDy7qwaWqPWrWrIkpU6Zg69at+N///V+0bt3ak8v0SqdPn/b4NX12Ywace0mjhgcPDXMu6sFFPbioBxf14KIeXKrTIzg4GMOGDcPq1auxcOFC9OnTx1PL9DoFBQUev6ZPb8wADQ826sFFPbioBxf14KIeXNSDS3V72Gw23HHHHfj666+xadMmPPbYY4iNjfXEUr1GZf893c3nN2aAhgcb9eCiHlzUg4t6cFEPLurBxWiPG264AX/+85/x888/49///jfuvvvuSu/V4G+6dOni8Wv6xcYM0PBgox5c1IOLenBRDy7qwUU9uLjSIzg4GPfeey9mzZqFzMxMvPnmm2jevLm7lkqtZs2alrwPz282ZoCGBxv14KIeXNSDi3pwUQ8u6sHFjB5xcXGYPHky1q9fj5UrV2L8+PF+dUfH4cOHW/JTQ7/amAEaHmzUg4t6cFEPLurBRT24qAcXs3rYbDa0a9cO77zzDjIzM5GSkoLnnnvOp+/qWLNmTbz55puWXPvy+8n7gfO30S8rK7vk6+f/ubLb7Iv7qAcX9eCiHlzUg4t6cFEPLmb3sNlsaNOmDdq0aYMXX3wRBw4cwNKlS/Hdd98hNTUVJSUl5izcYm+99Rbq1KljybX99hmi4cFFPbioBxf14KIeXNSDi3pwcWePBg0aYNy4cRg3bhzy8/OxadMmpKen46effkJmZiays7O97qelr7/+Op544gnLru/Xzw4NDy7qwUU9uKgHF/Xgoh5c1IOLJ3pERESge/fu6N69+4WvlZSUIDs7+8JGLTMzEz/99BP27dvn8vXMZrfb8c4772DKlCmWrsPvnxkaHlzUg4t6cFEPLurBRT24qAcXK3qEhISgZcuWaNmy5SVfLygoQHZ2NrKyspCVlYWff/4ZWVlZ2LVrFxwOh+nr+C0BAQEYPXo0XnnlFTRp0sSj166MnhXQ8GCjHlzUg4t6cFEPLurBRT24sPQIDw+/8F61i5WWluLQoUM4ceIE8vLyLvx15swZnDlz5sLfFxQUXPgrPz//kn8uKioCcO79cOHh4QgLC7vwV2hoKMLCwhAdHY0WLVqgY8eO6NSpExo2bOiRf++q0DPiP1gerHKOenBRDy7qwUU9uKgHF/XgwtwjODgYjRs3RuPGjQ2fw+FwoKysDCEhIbDZbJf82vlNW2hoKGw2GyIiIug+SFvPhoswP1j9kXpwUQ8u6sFFPbioBxf14OLLPex2O91mqzr87nPMrkafw8FFPbioBxf14KIeXNSDi3pwUQ9O2phVQg9WLurBRT24qAcX9eCiHlzUg4t68NHG7Ar0YOWiHlzUg4t6cFEPLurBRT24qAcXbcx+gx6sXNSDi3pwUQ8u6sFFPbioBxf14KGN2VXowcpFPbioBxf14KIeXNSDi3pwUQ8O2phVgR6sXNSDi3pwUQ8u6sFFPbioBxf1sJ42ZlWkBysX9eCiHlzUg4t6cFEPLurBRT2spY1ZNejBykU9uKgHF/Xgoh5c1IOLenBRD+toY1ZNerByUQ8u6sFFPbioBxf14KIeXNTDGtqYGaAHKxf14KIeXNSDi3pwUQ8u6sFFPTxPGzOD9GDloh5c1IOLenBRDy7qwUU9uKiHZ2lj5gI9WLmoBxf14KIeXNSDi3pwUQ8u6uE52pi5SA9WLurBRT24qAcX9eCiHlzUg4t6eIY2ZibQg5WLenBRDy7qwUU9uKgHF/Xgoh7up42ZSfRg5aIeXNSDi3pwUQ8u6sFFPbioh3tpY2YiPVi5qAcX9eCiHlzUg4t6cFEPLurhPtqYmUwPVi7qwUU9uKgHF/Xgoh5c1IOLeriHNmZuoAcrF/Xgoh5c1IOLenBRDy7qwUU9zKeNmZvowcpFPbioBxf14KIeXNSDi3pwUQ9zaWPmRnqwclEPLurBRT24qAcX9eCiHlzUwzzamLmZHqxc1IOLenBRDy7qwUU9uKgHF/UwhzZmHqAHKxf14KIeXNSDi3pwUQ8u6sFFPVynjZmH6MHKRT24qAcX9eCiHlzUg4t6cFEP12hj5kF6sHJRDy7qwUU9uKgHF/Xgoh5c1MM4bcw8TA9WLurBRT24qAcX9eCiHlzUg4t6GKONmQX0YOWiHlzUg4t6cFEPLurBRT24qEf1aWNmET1YuagHF/Xgoh5c1IOLenBRDy7qUT3amFlID1Yu6sFFPbioBxf14KIeXNSDi3pUnTZmFtODlYt6cFEPLurBRT24qAcX9eCiHlWjjRkBPVi5qAcX9eCiHlzUg4t6cFEPLupxddqYkdCDlYt6cFEPLurBRT24qAcX9eCiHr9NGzMierByUQ8u6sFFPbioBxf14KIeXNTjyrQxI6MHKxf14KIeXNSDi3pwUQ8u6sFFPSqnjRkhPVi5qAcX9eCiHlzUg4t6cFEPLupxOW3MSOnBykU9uKgHF/Xgoh5c1IOLenBRj0tpY0ZMD1Yu6sFFPbioBxf14KIeXNSDi3r8lzZm5PRg5aIeXNSDi3pwUQ8u6sFFPbioxznamHkBPVi5qAcX9eCiHlzUg4t6cFEPLuqhjZnX0IOVi3pwUQ8u6sFFPbioBxf14OLvPbQx8yL+/mBlox5c1IOLenBRDy7qwUU9uPhzD23MvIw/P1gZqQcX9eCiHlzUg4t6cFEPLv7aQxszL+SvD1ZW6sFFPbioBxf14KIeXNSDiz/20MbMS/njg5WZenBRDy7qwUU9uKgHF/Xg4m89Aq1egBgXGHguX1lZ2SVfP//P539dPEM9uKgHF/Xgoh5c1IOLenAxo0dFRQX27NmDM2fOoLS0FPXr10erVq1gt9vNX7AL9MjychoeXNSDi3pwUQ8u6sFFPbioBxdXemRmZiI5ORnHjh275OuhoaHo06cPunfvDpvNZvKKjdGjygdoeHBRDy7qwUU9uKgHF/Xgoh5cqtujvLwcixcvxg8//FDp+YqLizF//nwcOXIEDzzwAAICrH+Hl/UrEFP422tw2akHF/Xgoh5c1IOLenBRDy5V7ZGXl4d//vOfV9yUXSwtLQ3p6emmrtMobcx8iIYHF/Xgoh5c1IOLenBRDy7qweVqPfbt24ePPvoI+/fvr/I5lyxZAofDYeYyDdHPYH2MfuzORT24qAcX9eCiHlzUg4t6cLlSjw0bNmDZsmWoqKio1vlOnDiBY8eOoV69eqat0Qg9inyQhgcX9eCiHlzUg4t6cFEPLurB5eIe5eXlWLZsGbZs2WL4fPn5+WYtzTA9gnyUhgcX9eCiHlzUg4t6cFEPLurBJTAwEGfPnsWsWbNw8OBBl85V3Z+yuYMePT5Mw4OLenBRDy7qwUU9uKgHF/Xg4HQ6kZGRgcWLF6OwsNClc4WEhKBJkyYmrcw4PXJ8nIYHF/Xgoh5c1IOLenBRDy7qYa38/HwsXLgQmZmZppyvZcuWld5QxNP0qPEDGh5c1IOLenBRDy7qwUU9uKiHNTIyMrBo0SKXf0p2Xq1atTBkyBBTzuUqPWL8hIYHF/Xgoh5c1IOLenBRDy7q4Tn5+flYtGgRduzYYdo5IyMjMWHCBERERJh2Tlfo0eJHNDy4qAcX9eCiHlzUg4t6cFEP99u+fTsWLlxo2k/JAKBRo0YYN24catasado5XaVHip/R8OCiHlzUg4t6cFEPLurBRT3co7S0FAsXLnTpNviVue222zB06FCK95VdTI8SP6ThwUU9uKgHF/Xgoh5c1IOLepgrNzcXM2fOxOHDh007Z0BAAIYMGYIuXbrAZrOZdl6z6BHipzQ8uKgHF/Xgoh5c1IOLenBRD3Ps2rULs2fPNvWli5GRkXjkkUfQtGlT085pNj06/JiGBxf14KIeXNSDi3pwUQ8u6mGc0+nE2rVrsWzZMjidTtPOy/h+ssrokeHnNDy4qAcX9eCiHlzUg4t6cFGP6istLUVSUhK2b99u6nk7deqE+++/n+79ZJXRo0I0PMioBxf14KIeXNSDi3pwUY+qO3XqFGbMmIGjR4+ads6wsDAMHToU7dq1o3w/WWX0iBAAGh5s1IOLenBRDy7qwUU9uKjH1e3cuROzZs1CcXGxaeds3bo1hg0bhqioKNPO6Ql6NMgFGh5c1IOLenBRDy7qwUU9uKjHlW3fvh1z5sxBRUWFKecLCwvD/fffj/bt23vNT8ku5r+PBKmUhgcX9eCiHlzUg4t6cFEPLupxuW3btmHevHmmbcpatmyJ4cOHIzo62pTzWcH/HgVyVRoeXNSDi3pwUQ8u6sFFPbiox39t3rwZSUlJptx5MSwsDEOGDEGHDh288qdkF/OfR4BUi4YHF/Xgoh5c1IOLenBRDy7qAaSnp2PBggWmbMqaNm2KMWPGePVPyS7m+/XFMA0PLurBRT24qAcX9eCiHlz8ucfGjRuxcOFCU87VrVs3DBw4EHa73ZTzMfDd8mIKfx4ejNSDi3pwUQ8u6sFFPbj4Y4+0tDQsXrzY5fMEBQVh+PDhuOWWW0xYFRffqy6m88fhwUw9uKgHF/Xgoh5c1IOLP/VYu3YtvvvuO5fPExMTg/Hjx6Nhw4YmrIqP7xQXt/Kn4eEN1IOLenBRDy7qwUU9uPh6D6fTidWrVyM5OdnlcyUkJGDMmDGIiIgwYWWcvLu2eJSvDw9vox5c1IOLenBRDy7qwcVXezgcDixevBibNm1y+Vw9evTAPffc41PvJ6uMd5YWy/jq8PBW6sFFPbioBxf14KIeXHytR0lJCWbPno2srCyXzmOz2fDAAw+gU6dOJq2Mm3dVFgq+Njy8nXpwUQ8u6sFFPbioBxdf6XH27Fl8+eWXOHTokEvnsdlsGDVqFDp27GjSyvh5R2Gh4yvDw1eoBxf14KIeXNSDi3pw8fYex44dwxdffIHTp0+7dJ6AgAA89NBDaN++vUkr8w7cdYWatw8PX6MeXNSDi3pwUQ8u6sHFW3vs2bMHM2bMQHFxsUvnCQgIwJgxY9CmTRuTVuY9OMuK1/DW4eGr1IOLenBRDy7qwUU9uHhbj61btyIpKQkOh8Ol89jtdowdOxatW7c2aWXehauqeCVvGx6+Tj24qAcX9eCiHlzUg4u39Fi3bh2WLFni8nkCAwMxbtw43HTTTSasyjtxFDWZ0+m0egl+x1uGh79QDy7qwUU9uKgHF/Xgwt5j69atpmzKgoKCMH78eLRo0cKEVXkvn3wHPSKgAAAgAElEQVR2ORwOVFRUWL0Mv8M+PPyNenBRDy7qwUU9uKgHF9YeBw4cwPz5810+T3BwMCZMmICEhAQTVuXdfPaZ5XA44HA4EBQUZPVS/Arr8PBX6sFFPbioBxf14KIeXNh65OXlYcaMGSgvL3fpPFFRUZgwYQLi4+NNWpl38+lnVXl5OcrLyzU8PIxtePg79eCiHlzUg4t6cFEPLiw9ysrKMGPGDJw9e9al88TFxWHixImIjY01aWXez+efURoe1mAZHnKOenBRDy7qwUU9uKgHF6t7OJ1OzJ8/HwcPHnTpPNdffz3Gjx+PsLAwk1bmG/zi2aThYQ2rh4dcSj24qAcX9eCiHlzUg4uVPdasWYNt27a5dI727dvjwQcf1NuNKuGTzyS73a7hQULDnIt6cFEPLurBRT24qAcXK3r8/PPPWLFihUvn6N27N/r37w+bzWbSqnyLTz6LbDYb7Hb7ZbfN1/CwhoY5F/Xgoh5c1IOLenBRDy6e7HH06FHMmTPH8EdSBQQEYNiwYbj99ttNW5Mv8tlnUEBAAGw2mzZnJDTMuagHF/Xgoh5c1IOLenDxRI+CggJ89dVXKC0tNXS8zWbDuHHj0KpVK5fX4usCrF6AO9nt9kpfv1pWVuby7T2l+gIDA9WDiHpwUQ8u6sFFPbioBxd39nA4HJg1axZyc3MNn2PgwIHalFWRT2/MAA0PNurBRT24qAcX9eCiHlzUg4u7eqxcuRJ79uwxfPxtt92GO++80/Dx/sbnN2aAhgcb9eCiHlzUg4t6cFEPLurBxewe2dnZSE1NNbyeJk2aYOjQobrRRzX4xcYM0PBgox5c1IOLenBRDy7qwUU9uJjV4+zZs5g3b57hdcTExGDcuHG6JX41+c3GDNDwYKMeXNSDi3pwUQ8u6sFFPbi42qOiogJz585FQUGBoesHBwfj0UcfRWRkpKHj/ZlfbcwADQ826sFFPbioBxf14KIeXNSDiys9Vq9ejd27dxu+9kMPPYQGDRoYPt6f+d3GDNDwYKMeXNSDi3pwUQ8u6sFFPbgY6ZGTk4NVq1YZvmbfvn1x8803Gz7e3/nlxgzQ8GCjHlzUg4t6cFEPLurBRT24VKdHQUEBZs+ebfhDpNu0aYM+ffoYOlbO8duNGaDhwUY9uKgHF/Xgoh5c1IOLenCpSo+KigokJibi7Nmzhq5Rv359jBw5UndgdJHffzy7PsGei3pwUQ8u6sFFPbioBxf14HK1Hhs2bEBWVpahcwcHB2Ps2LEICQlxbZHi3z8xO0/f2eGiHlzUg4t6cFEPLurBRT24XKlHTk4Oli1bZvi8w4YNQ1xcnCtLk//Qxuw/NDy4qAcX9eCiHlzUg4t6cFEPLr/uUVRUhPnz56OiosLQ+W655RbccsstZi3P72ljdhENDy7qwUU9uKgHF/Xgoh5c1IPL+R5OpxOLFy/GmTNnDJ2nbt26GDp0qMmr82/amP2KhgcX9eCiHlzUg4t6cFEPLurBJTAwEOnp6YbfVxYYGKj3lbmBNmaV0PDgoh5c1IOLenBRDy7qwUU9eOzbtw8rVqwwfPzgwYNx7bXXmrgiAbQxuyINDy7qwUU9uKgHF/Xgoh5c1MN6BQUFmDVrluH3lbVp0wadO3c2eVUCaGP2mzQ8uKgHF/Xgoh5c1IOLenBRD+tUVFRg3rx5yMvLM3R8rVq1MGLECH1emZtoY3YVGh5c1IOLenBRDy7qwUU9uKiHNb7//ntkZ2cbOtZut2PMmDGoUaOGyauS87QxqwINDy7qwUU9uKgHF/Xgoh5c1MOzcnJyXHpf2T333INGjRqZuCL5NW3MqkjDg4t6cFEPLurBRT24qAcX9fCM/Px8zJ49G06n09DxrVq1Qvfu3U1elfyaNmbVoOHBRT24qAcX9eCiHlzUg4t6uFdFRQXmzp2Ls2fPGjo+NjYWI0eO1PvKPEAbs2rS8OCiHlzUg4t6cFEPLurBRT3cJyUlBbt27TJ0rN1ux9ixYxEWFmbyqqQygVYvwBsFBp77z1ZWVnbJ18//8/lfF89QDy7+3sPpdKK0tBRFRUWw2WwICwur9A8bnuLvPdioBxf14KIe5tu/fz9SUlIMHz9o0CC9r8yD9Ag3SMODi3pw8bUeDocDZ8+eRV5e3iV/FRYWorCwEEVFRSgqKrrw97/+bJiIiAjExMSgZs2aF/6KiYlBdHQ0IiMjERoa6taXiPhaD2+nHlzUg4t6mKe8vBxJSUmG31fWpk0b3HHHHSavSn6LHt0u0PDgoh5cmHsUFxfj8OHDOH36NEpKSlBaWnrhfy/++4KCAuTl5aGgoMDw/7EB5950nZ+fj/3791f663a7HeHh4YiIiEBERMSFv4+OjkbDhg1xzTXXICDAtVeeM/fwR+rBRT24qIc5UlJScPz4cUPH1qlTR59XZgE9sl2k4cFFPbiw9CgrK8P+/fuxa9cu7N69GwcPHnRpo2U2h8Nx4adwlYmOjkbbtm3Rrl07xMTEGL4OSw85Rz24qAcX9XDNoUOHsGbNGkPHBgYGYuzYsfq8MgvoUW0CDQ8u6sHFih4VFRU4fPjwhY3Y3r17vfrN42fOnEFKSgpSUlLQpEkTtGvXDjfeeKOh967p+cFFPbioBxf1MKa8vByJiYmXvay+qoYMGYIGDRqYvCqpCj2iTaLhwUU9uHiqh8PhwA8//ID169fj5MmTppyTze7du7F7926EhoaidevWaNeuHa699tpqnUPPDy7qwUU9uKhH9aWmpuLo0aOGju3QoQNuv/12k1ckVaVHs4k0PLioBxd398jOzsaSJUsMv57e2xQXF2Pjxo3YuHEjrr/+evTp0wdxcXFVPl7PDy7qwUU9uKhH1R05cgSrV682dGxcXByGDx+u95VZSI9kk2l4cFEPLu7ocfLkSSxZsgS//PKL6wv0Ujt37sQ//vEP9O3bFx07dqzy/6nq+cFFPbioBxf1uDqHw4GkpCRDL2EMCAjAmDFjEBIS4oaVSVXpUewGGh5c1IOLWT2Ki4uRkpKCtLQ0OBwOcxfphcrLy7Fw4ULs2rULAwcOrPKbtvX84KIeXNSDi3r8tu+//x6HDh0ydGzv3r2r/bJ4MZ9/P4LdSMODi3pwcaVHRUUFNm/ejOXLl6OgoMB9i/RSmZmZOHToEIYNG4aGDRtW6Rg9P7ioBxf14KIelTt27BhWrVpl6Nj69eujd+/eJq9IjPDPR6+HaHhwUQ8uRnocPXoUSUlJOHjwoPsX6MVOnz6NTz75BHfddRduv/32Kn0Gmp4fXNSDi3pwUY9LVVRUICkpydCrRwICAvDggw/63X8zVqrgZhoeXNSDS1V7OBwOrF27FitXrtTLFquooqICS5cuxe7duzF48GBERERc9Rg9P7ioBxf14KIe/7Vu3TocOHDA0LE9e/ZEfHy8ySsSo67+bVRxWWBgYKWfN1RWVubVn63krdSDy9V6HDt2DJ988gmWL1+uTZkB2dnZ+PDDD5GdnV2l36/nBxf14KIeXNTj3CskkpOTDR0bFxeHPn36mLwicYX/fDvBYvrODhf14FJZj4qKCqSmpiI1NZV2QxYWFobIyEiEhYUhPDz8kv8NCwtDWVkZTp06deGvkydPoqSkxOPrPHv2LP7973+jbdu26Nu371VvDKLnBxf14KIeXPy9x9KlSw1tQm02G0aOHFnpxlas49uPVjL+PjzYqAeXi3ucOHECixcv9vh7yUJCQi77KzIyEtHR0ahZsyZq1qyJ6OjoC38FBwdX6/xOpxNFRUUXNmpnz56t9K/c3NzLHpdm2Lx5M7Kzs3HvvfeiRYsWv/l79fzgoh5c1IOLv/bYu3cvtm/fbujY7t27o3HjxuYuSFzmm49UYv46PFipBxe73Y7169cjOTnZrT8li4mJQUJCAhISEtCkSRNEREQgKCioSjfJcIXNZrvw07QGDRpc8feVlpZi27ZtSEtLQ1ZWlqlryM/Px4wZM9CqVSv0798f4eHhV/y9en5wUQ8u6sHF33pUVFTg22+/NXRsnTp10K9fP5NXJGbwrUepl/C34cFOPTiUlJQgMTERmZmZpp/bbrejZcuWaNasGRISElCnTp0qfwizFYKDg9GhQwd06NABJ0+exIYNG7Bhwwbk5uaado2MjAzs2rULAwYMQMuWLa/430PPDy7qwUU9uPhTjy1bthj6zDKbzYYHH3yw2q/4EM/wnUeol/Gn4eEN1MNaJ0+exFdffYXjx4+bfu6WLVti4MCBqFu3runn9oRatWqhX79+6NOnDzIzMzFr1iycOXPGlHMXFhZi9uzZyMjIwH333XfFn57p+cFFPbioBxd/6FFSUoLly5cbOrZr165o2rSpySsSs3j/o9OL+cPw8CbqYY3s7GzMnj0bxcXFpp43Li4OgwcPvup7qbxFQEAAWrZsieuuuw5ffvklduzYYdq5f/rpJxw+fBijRo1CXFxcpb9Hzw8u6sFFPbj4eo/U1FTk5+dX+7hatWphwIABbliRmEW3y7eYbvXKRT08x+l0IjU1FV988YWpm7IaNWpgyJAheOGFF3xmU3ax8PBwTJgwAYMHD4bdbjftvKdPn8b06dN/87b6en5wUQ8u6sHFV3vk5uZi3bp1ho4dNGgQQkJCTF6RmMm7v2XgI3z9OzveRj3cr7S0FImJiab+1Mdms6Fz587o169flT5M2ZvZbDbceeedaNKkCT777DOcOHHClPOWlJTgyy+/RL9+/XDrrbdW+nv0/OCiHlzUg4sv9jB6e/yEhAS0atXKDSsSM3nfI9JH+eLw8Gbq4T6nTp3CjBkzcPToUdPOWadOHYwcORJNmjQx7ZzeID4+Hs8++yxmz56N9PR0U85ZUVGBRYsW4eTJk+jTp0+ld6rU84OLenBRDy6+1CMnJ8fQNzRtNhsGDRpEfdMrOcd7Ho1+wJeGhy9QD/P99NNPSEpKQlFRkSnns9ls6NatGwYMGOC3d5iqUaMGRo8ejYSEBMybNw+lpaWmnHf9+vU4efIkhg0bVulLX/T84KIeXNSDiy/0cOX2+LfffjuuvfZak1ck7sD/SPQzvjA8fIl6mKO8vBzLly83/Lr4ytSuXRsjR47U3aVwboPaqVMnJCQkYObMmaZ99llWVhamT5+Ohx56CNHR0Zf9up4fXNSDi3pw8fYemzdvxuHDh6t9XGhoqD6zzIvo5h+EfPUNq95KPVyTm5uLTz/91NRNWdeuXfH8889rU/YrtWrVwqRJkzBixAiEhoaacs6jR4/iH//4B/bv31/pr+v5wUU9uKgHF2/tUVxcjBUrVhg6tk+fPoiMjDR5ReIu3N8e8GPe/p0dX6MexmRmZiIpKcm0uy7GxsZi5MiRuOGGG0w5ny86/9Oz5s2bY/bs2abcYCU/Px+ffvopBgwYgA4dOlz263p+cFEPLurBxRt7GL09fp06ddC1a1c3rEjche/RJxd44/DwZepRdeXl5Vi2bBnWr19v2jmbN2+Ohx9++IofgiyXiomJwYQJE/DDDz9g3rx5KCwsdOl8DocDCxYswIEDB9C/f//Lvuus5wcX9eCiHly8qceJEycMv+Jk4MCBVP8ucnWqRc6bhoc/UI+ry83NxaxZs3Dw4EHTztmzZ0/cc889ld4hUK7MZrOhY8eOaNasGWbPno1t27a5fM709HQcOXIEI0aMuOx9Z3p+cFEPLurBxRt6OJ1OLFq0CA6Ho9rHNmvWDC1btnTDqsSd9KccL+Ctr4n2VepxZfv378dHH31k2qYsKCgIDz/8MO677z5tylwQFRWFcePGoW/fvqac7+DBg/jwww+xe/fuy35Nzw8u6sFFPbiw99ixYwd27dpV7eN0e3zvpT/peAn24eFv1ONye/bswWeffWbarfBjY2Pxhz/8Ae3btzflfP7OZrOhb9++GD16NOx2u8vnKywsxGeffYbvv/8eTqfzkl/T84OLenBRDy6sPUpKSgzfHr9z586oX7++ySsST7D+57RSZd7wY3d/oh7/lZ2djRkzZpj2f2IJCQkYO3as3k/mBh06dEBsbCymT5+OgoICl87ldDqxdOlSHDhwAIMHD77ks+T0/OCiHlzUgwtjj1WrVuHs2bPVPq5GjRq6Pb4X00/MvAzrd3b8lXqcu/PiV199Zdq/b48ePTBx4kRtytyoSZMmePrppxEXF2fK+Xbs2IHPP/8cJSUll3xdzw8u6sFFPbgw9Th69Kjhm2f16dMHERERJq9IPEUbMy/ENDzEv3ts3boVs2bNMvTG5F8LDQ3F2LFjMXDgQFNeaie/rXbt2njqqafQrFkzU863b98+fPHFFygtLb3k6/78/GCkHlzUgwtDD6fTiYULF6KioqLax8bFxeGOO+5ww6rEU7Qx81IMw0P+yx97pKenY968eYb+z+PXGjRogGeffRZt27Y1YWVSVWFhYXj88cfRuXNnU863d+9efPnll9qckVMPLurBxeoeW7Zswd69ew0dO3ToUL0M1stpY+bFrB4ecil/6rF+/XrMnz//sps+GNG1a1c89dRTqFOnjgkrk+qy2+0YNmwYhgwZYsqdL/fs2YOZM2de9l4Nf3p+eAP14KIeXKzqUVRUhKVLlxo6tn379khISDB5ReJp2ph5OQ1zLv7QIzU11fCdoi5Wo0YNjBs3Dvfff3+l/83Ec2w2G7p164bJkycjMjLS5fPt3LkTX3/99WWPeX94fngT9eCiHlys6JGcnGzopkwhISEYOHCgG1YknqaNmQ/QMOfiyz1Wr16N5cuXu3ye+Ph4PPvss7j55ptNWJWYpWnTpnjuuefQuHFjl8+VlZWFWbNmaXNGTj24qAcXT/Y4ePAgNm7caOjYfv36ITo62tT1iDW0MfMRGuZcfLHH2rVrsWLFCpfP07VrV/z+979H7dq1TViVmC06Ohq/+93v0KVLF5fP9fPPP2POnDmX3RzGF58f3kw9uKgHF0/0qKiowKJFiwy9PaB+/fro2rWrKesQ62lj5kM0zLn4Uo+0tDR89913Lp+nf//+eumiFwgMDMSwYcMwcuRIl1tlZmZi3rx52pyRUw8u6sHF3T3S09Nx4MABQ8cOGzZMdzL2IdqY+RgNcy6+0GPTpk1YvHixy+cZNGgQ7r77bhNWJJ5y6623YsqUKYiNjXXpPBkZGUhKSrrsDp6+8PzwJerBRT24uKtHQUGB4bcI3HrrrWjSpInhawsfbcx8kIY5F2/ukZ6ejm+++calc9hsNgwfPhzdu3c3aVXiSQ0bNsQzzzyDBg0auHSerVu3YsGCBdqckVMPLurBxR09li1bhqKiomofFxYWhnvvvdfQNYWXNmY+SsOcizf22LJlCxYsWODSOQICAjBq1CjTPidLrBEREYFJkyahfv36Lp3nxx9/rPSDU73x+eHL1IOLenAxs8fevXvx448/GlrHgAEDTLmLrnDRxsyHaZhz8aYeGRkZSExMdOlzyux2O8aMGYOOHTuauDKxSnh4OCZNmoRrrrnGpfP88MMPWLx48WWPLW96fvgD9eCiHlzM6OFwOAy/IiU+Ph633367oWOFmzZmPk7DnIs39MjMzMTcuXNd2pQFBQVh/PjxaNOmjYkrE6tFRkbiySefRN26dV06z8aNG7FkyRJtzsipBxf14OJqj7S0NBw7dqza17XZbBg2bBgCAvRHeF+kqn5Aw5wLc4/MzEzMnj37speaVUdwcDAee+wx3HTTTSauTFhERUVh8uTJqFOnjkvnWb9+PZYtW6bNGTn14KIeXIz2OHPmDFauXGnomp07d0Z8fLyhY4WfNmZ+QsOcC2OP7du3Y9asWZfd1rw6goKC8NhjjyEhIcHElQmb6OhoPPnkk6hVq5ZL5/n++++xYsUKbc7IqQcX9eBipMeSJUtQWlpa7WtFRERgwIAB1T5OvIc2Zn5Ew5wLU49t27Zhzpw5Lv2kLDAwEBMmTMANN9xg4sqEVUxMDCZPnoyYmBiXzpOamopVq1Zd9nWm54eoBxv14FKdHtnZ2dixY4eh6wwcOBBhYWGGjhXvoI2Zn9Ew58LQY8uWLZg7d65LmzK73Y5x48ahWbNmJq5M2MXGxmLy5MmoWbOmS+dZtWoV1qxZc9nXGZ4f8l/qwUU9uFSlR1lZGRYtWmTo/E2bNtXNtPyANmZ+SMOci5U90tPTXb77YkBAAMaOHav3lPmp2rVr48knn0RUVJRL51m2bBm2bdt22dc1r7ioBxf14HK1HmvWrMGpU6eqfd6AgAAMGzYMNpvNjGUKMW3M/JSGORcremzatAnz5893eVP28MMPo3Xr1iauTLxN3bp1MXnyZJc/UycxMRE5OTmXfV3ziot6cFEPLlfqcfToUaSmpho6Z/fu3VGvXj1XlyZeQBszP6ZhzsWTPdLS0gx/fsp5NpsNo0aNQtu2bU1alXizuLg4PPnkkwgPDzd8DofDga+++qrSW0hrXnFRDy7qweXXPZxOJ5YtW2bo5loxMTHo06ePmcsTYtqY+TkNcy6e6LF+/XosXrzY5fM8+OCD6NChgwkrEl9Rr149PPnkky69Ob24uBhffPEF8vPzL/s1zSsu6sFFPbhc3OPnn3/G7t27DZ1n8ODBCAkJMXNpQkwbM9EwJ+POHhkZGfj2229dOgcADB8+HLfeeqvL5xHfc+2112LSpEmoUaOG4XOcPn0aX375ZaW3k9a84qIeXNSDS2BgIAAgOTnZ0PE33nij3irgZ7QxEwAa5mzc0ePo0aNISkpydWkYPnw4Onfu7PJ5xHc1bNgQTzzxBEJDQw2f4+DBg1f8sHPNKy7qwUU9uGzYsAF5eXnVPi4oKAj333+/bvjhZ7Qxkws0zLmY2aO4uBhff/01ysrKDK/HZrNhxIgR2pRJlTRq1AgTJ0506SU4v/zyCxYvXlzpDWo0r7ioBxf14JCXl1fpR4FURe/evVG7dm2TVyTstDGTS2iYczGjh9PpRFJSEk6cOGF4HTabDSNHjkSnTp0Mn0P8z3XXXYfHH38cwcHBhs+xceNGrF27ttJf07zioh5c1MN6ycnJlb4k+2rq1q2LHj16uGFFwk4bM7mMhjkXV3usW7cOmZmZhq8fEBCA0aNH45ZbbjF8DvFfTZs2xdixY116Oc7SpUuxY8eOSn9N84qLenBRD+scOnQImzdvNnTs0KFDK+0mvk8bM6mUhjkXoz1ycnKwbNkyw9c9/zll7du3N3wOkZtuugnDhg1z6RyJiYlX/GBWzSsu6sFFPTzP6XRiyZIlhj4ntF27dmjWrJkbViXeQBszuSINcy7V7ZGXl4dZs2ZVevOEqrDb7XjkkUf0OWViis6dO6NXr16Gjy8tLcWcOXOu+DlAmldc1IOLenhWZmYmcnJyqn1ccHAwBg4caP6CxGtoYya/ScOcS1V7OBwOzJo1q9LPgqoKu92OcePG6Ta9YqoBAwa49NPXAwcOYNWqVVf8dc0rLurBRT08o6ysDEuXLjV0bK9evVCzZk2TVyTeRBszuSoNcy5V6bFs2TLs27fP0PltNhseeeQRtGzZ0qV1ivxaQEAAHnzwQTRt2tTwOVJTU7Fnz54r/rrmFRf14KIe7peWlobc3NxqHxcTE6Mbfog2ZlI1GuZcfqvH1q1bsW7dOsPn7tOnD1q1auXK8kSuKCgoCOPHj0dcXJyh451OJ+bOnYuioqIr/h7NKy7qwUU93Cc/Px+rV682dOw999zj0h1sxTdoYyZVpmHOpbIeJ0+exIIFCwyfs0WLFrj77rtdXZrIbwoPD8fjjz+OyMhIQ8fn5eVhwYIFv/nGes0rLurBRT3cIzk5GSUlJdU+rnHjxrrJlgDQxkyqScOcy8U9Kioq8M033xj+EOnY2FiMHj0aAQEaC+J+tWrVwmOPPWb4O8Q7duzAjz/++Ju/R/OKi3pwUQ9zHTlyBOnp6YaOHTRokEsfKSK+Q38Ck2rTMOdyvsf69etx+PBhw+d45JFHEB4ebvLqRK4sPj4eo0ePNnz84sWLr/rB6ZpXXNSDi3qYw5Xb47dv3x7XXXedG1Yl3kgbMzFEw5zL8ePHsWbNGsPH33///YiPjzdxRSJV07p1a3Tr1s3QsWVlZZgzZ85VZ47mFRf14KIervv555+xe/fuah8XFBSEe++91w0rEm+ljZkYpmHOoby8HPPmzTP8eWW33XYbbr/9dpNXJVJ19957L+rXr2/o2EOHDiE5Ofmqv0/ziot6cFEP40pKSrB48WJDx/bo0QMxMTEmr0i8mTZm4hINc+ulpKTg6NGjho5t0KAB7r//fpNXJFI9QUFBePjhhyudJVWxdu1a7Nq166q/T/OKi3pwUQ9jkpOTcebMmWofFx0djV69erlhReLNtDETl2mYW+fAgQOGX8JYo0YNPPLII7o9r1CoV68eBg4caOhYp9OJOXPmVOkPR5pXXNSDi3pUz8GDB5GWlmbo2HvuuQchISEmr0i8nU9uzIy8+VJco2HueWVlZUhMTDT8EsbRo0ejdu3aJq9KxLguXboY/mDzgoICzJw5s0p3JdW84qIeXNSjahwOB+bPn2/oz5zx8fHo0KGDG1Yl3s4nN2YOh8PwH1bFOA1zz0pOTsbx48cNHXvnnXfipptuMnlFIq6x2WwYMWIEoqKiDB1/8OBBLFq0qEp/UNK84qIeXNTj6tavX48jR44YOnbQoEH6aBqplM8+KhwOBxwOh9XL8Dsa5p6Rk5ODdevWGTq2bt26GDBggMkrEjFHZGQkRo0aZfj4H3/8EZs2barS79W84qIeXNTjynJzc7Fy5UpDx7Zt2xZNmzY1eUXiK3x2Ywacu1udvw8PK2iYu1dJSQkSExMNvXzCZrNh1KhRel+ZUGvevDl69Ohh+Phvv/0W+/btq9Lv1bzioh5c1ONyTqcTCxcurNLLpn8tODgY9913nxtWJb7CpzdmgH8PDytpmLvPsmXLkJuba+jYXr16oXHjxuYuSMQN+vfvj2uvvdbQsQ6HAzNnzkReXl6Vfr/mFRf14KIel8rIyEB2drahYzGciHMAACAASURBVAcMGIDY2FiTVyS+xOc3ZoD/Dg+raZib75dffsHGjRsNHVu/fn306dPH5BWJuEdQUBDGjBlj+Bb6+fn5mDVrVpVnjeYVF/Xgoh7nFBUV4dtvvzV0bHx8PLp27WryisTX+OTGzG63X/Y1fxseLDTMzXPq1CnMnTvX0LEBAQEYNWqU4T/kilghLi7Opc/Z27dvH5YsWVLl3695xUU9uKgHsHTpUhQUFFT7uICAAAwfPlw3/JCr8slHiM1m0+aMiIa568rKyjBz5kwUFxcbOr5Pnz5o0KCByasScb9OnTqhc+fOho/fuHEj0tPTq/z7Na+4qAcXf+6Rk5NTrVlysTvvvBMNGzY0eUXii3xyYwac++5EYGDgZV/3h+HByJ+HuavOv9HY6G154+Pjcdddd5m8KhHPGTJkiEvvjVy4cCEOHDhQ5d+vecVFPbj4Y4/y8nIsWLDA0LGxsbHo27evySsSX+WzGzPg3Esa/W14MPPHYW6GH374AZs3bzZ0bGBgIEaOHFnpT5BFvEVgYCDGjRtn+PPNHA4H5s6di9LS0mpdU/OKh3pw8bceaWlpOHHihKFjhw0bhpCQEJNXJL7KpzdmgP8ND3bqUT0HDhzA4sWLDR/fv39/1KtXz8QViVgjOjoajzzyiOFvMpw8eRLJycnVOkbziot6cPGXHsXFxUhNTTV0bLt27XDjjTeavCLxZT6/MQP8Z3h4C/WomoKCAnz99deGPyi9SZMm6N69u8mrErFOkyZNMHjwYMPHr1+/Hnv37q3WMZpXXNSDiz/0WL9+PYqKiqp9XI0aNVyaV+Kf/GJjBvjH8PAm6vHbKioqMHfuXJw5c8bQ8SEhIRg5cqTuACU+p0uXLrjtttsMHet0OpGYmFitlzQCmlds1IOLL/coLCzE2rVrDR173333GX75tfgvv/pTmy8PD2+kHle2atUq7Ny50/DxDz74IOrUqWPiikQ42Gw2DB06FPHx8YaOP3XqFFasWFHt4zSvuKgHF1/t8f3336OkpKTaxzVt2tTwN5DEv/nVxgzw3eHhrdTjcr/88gtSUlIMH9+9e3e0bdvWvAWJkAkKCsK4ceMQERFh6Pi0tDTk5ORU+zjNKy7qwcXXepw9exZpaWnVPs5ut+szy8Qwv3zU+Nrw8Hbq8V+5ubmGP0QaOPddunvvvdfEFYlwiomJwdixYw394cfpdCIpKanaL2kENK/YqAcXX+qRmpqKsrKyah/Xo0cPXHPNNW5YkfgDv9yYAb41PHyBepy7pffs2bMNf4h0VFQUxowZo1vji9+44YYb0K9fP0PHnjp1CsuXLzd0rOYVF/Xg4gs9zpw5g02bNlX7uBo1aqBnz55uWJH4C7/dmAG+MTx8ib/3WLFiRbU+BPdiAQEBGDt2LKKjo01elQi3nj17Gn6/WVpaGvbs2WPoWH+fV2zUg4u390hJSTF0R+SePXsiLCzMDSsSf+HXGzPA+4eHr/HXHr/88gu+//57w8ffd999aNq0qYkrEvEOdrvdpQ9RN/qSRsB/5xUr9eDirT1OnjyJH3/8sdrHRUREoFu3bm5YkfgTv9+YAd47PHyVv/U4c+YMEhMTDR/ftm1b3HnnneYtSMTL1KtXz/BLGnNzc7Fs2TLD1/a3ecVOPbh4Y49Vq1ahoqKi2sfdddddCAkJccOKxJ9oY/Yf3jg8fJm/9HA4HJgzZw4KCwsNHR8XF4cRI0bAZrOZvDIR79KjRw80atTI0LEbNmzA7t27DV/bX+aVt1APLt7U4+jRo9i2bVu1j4uOjkaXLl3csCLxN9qYXcSbhoc/8Iceq1atwt69ew0dGxISgnHjxiE0NNTkVYl4n/MvaQwMDDR0fFJSkuEb7wD+Ma+8iXpw8ZYeK1euhNPprPZxd999d6X/fiLVpY3Zr3jL8PAXvtxj586dSE1NNXz8iBEjdEtekYtcc801hl/SePr0aSxZssSl6/vyvPJG6sGFvcehQ4eQmZlZ7eNq1aqlD5MW02hjVgn24eFvfLHH2bNnMXfuXEPfmQOAO+64A+3atfv/7d3pc1TXnf/xT7eQhCTEIhCLWMQuI1FA2Ewwq20cVrEZBBLYECAQ11QyU5UH82fME8/UTCqp+ZmwmkUIEELsEMwqZPZ9FbsAAUK71P17wJB4AaM+fVp9u/v9qkpVcPw99xMOnNPf1r3nWk4FhL6PP/5Y3bt3N6o9deqULl265Nf1w3G9CmXMh7M4eT727NljVDdx4kTjn9QDP0Vj9g5OXjwiUTjNh8fj0YYNG1RRUWFU37lzZ82YMcNyKiA8uN1uv25pzM3NNf67+UY4rVfhgPlwFifOx+3bt3XlyhWf6zp06KBhw4YFIBEiFY3ZL3Di4hHJwmU+Dhw4YHzQQGxsrBYvXsy97MAv6NChg6ZMmWJUW1FRoby8POOfZr8RLutVuGA+nMVJ8+HxeJSfn29UO2nSJLndfJSGPfxpeg8nLR4I/fl48OCB9u/fb1w/b948tW/f3l4gIEyNHz/e+JbGCxcu6PTp035nCPX1KtwwH87ilPkoLi7W/fv3fa7r3LmzBg0aFIBEiGQ0Zo3glMUDr4XqfHg8Hm3dutXo/SiS9Otf/1pDhgyxnAoIT263WwsWLDD+6fL27dv14sULv3OE6noVrpgPZwn2fFRXV2v37t1GtZMnT+anZbCOP1GNFOzFAz8WivNRXFyskpISo9pOnTpp9uzZlhMB4a19+/bKzMw0qq2urtbmzZuNv0j5oVBcr8IZ8+EswZyPgwcP6tWrVz7Xpaamqn///gFIhEhHY+YDFnNnCaX5qKysVGFhoVFtTEyMFi9erJiYGMupgPA3evRo9e3b16j2+vXrOnHihJUcobReRQLmw1mCMR/Pnj3Td999Z1Q7depUuVwuy4kAGjOfsZg7S6jMx+7du1VZWWlUO2fOHN5XBhhyu93Kzs42fhH7zp079fTpUytZQmW9ihTMh7M09XwUFBSooaHB57q+ffsaf9kDvA+NmQEWc2dx+nzcvXtXJ0+eNKodPny4PvzwQ8uJgMiSlJRkfCtwXV2dNm7caPQB7m2cvl5FGubDWZpqPm7cuKGLFy/6XOdyuTRz5kx+WoaAoTEzxGLuLE6dD4/Ho23bthkdvd2hQwfNmTMnAKmAyDN8+HANGDDAqLakpES7du2ylsWp61WkYj6cJdDz0dDQYHw8/siRI9W5c2e/MwDvQmPmBxZzZ3HifBQVFenevXs+17lcLi1YsECxsbEBSAVEHpfLpaysLLVo0cKo/vDhw/r++++t5XHiehXJmA9nCeR8FBUV6dGjRz7XxcXFafLkyX5dG3gfGjM/sZg7i5Pmo6Kiwvhb9l//+tdKTU21nAiIbImJicrKyjKu37Jli+7evWstj5PWKzAfThOI+aiqqtKePXuMaidOnKjExESjWqCxaMwsYDF3FqfMR2FhoaqqqnyuS0hI0LRp0wKQCMDAgQM1fPhwo9r6+nqtXr1a5eXl1vI4Zb3Ca8yHs9iej3379hkdxNW+fXuNHj3a5zrAVzRmlrCYO0uw5+POnTs6deqUUe20adOUkJBgORGAN2bPnq02bdoY1ZaXl2vNmjVW15Fgr1f4MebDWWzNR2lpqY4dO2aUYebMmWrWrJlRLeALGjOLWMydJVjz0dDQoK1btxrVpqamasSIEZYTAfihuLg45eTkGNeXlJRo69atRof6vAv7h7MwH87i73x4vV7t2LHD6IXx/fr1U0ZGhs91gAkaM8tYzJ0lGPNx4sQJPXz40Oc6l8uluXPnyu3mryUQaH379tXYsWON60+dOqWjR49aTMT+4TTMh7P4Mx8XLlzQ1atXfb6m2+3WzJkzfa4DTPEJMABYzJ2lKefj6dOnxgd+jBo1Sl27drWaB8C7TZs2TZ06dTKuLygo0PXr1y0mYv9wGubDWUzmo7q6Wtu3bze63ujRo9WxY0ejWsAEjVmAsJg7S1PMR11dndauXava2lqfaxMTEzVlyhQrOQA0TkxMjJYtW6b4+Hijeo/Ho3Xr1unZs2dWc7F/OAvz4Sy+zsfu3buNDuxJSEjQpEmTjDICpmjMAojF3FkCPR8FBQVGtzBK0vTp040/HAIw165dOy1evNj4FuKqqiqtWrXK6AuZX8L+4SzMh7M0dj5KSkp0/Phxo2tMnjyZfRlNjsYswFjMnSVQ83Hu3Dnjxb9nz54aNmyY8bUB+CctLc2v50geP36swsJCi4leY/9wFubDWd43Hw0NDdqyZYvRIT2dOnXSyJEjbcQEfEJj1gRYzJ3F9nw8e/ZMubm5Rlncbrfmzp0rl8tlVA/AjjFjxujDDz80rj927JjR4QLvw/7hLMyHs/zSfBw6dEiPHj0yGnfWrFmKioryNx7gMxqzJsJi7iy25qO+vl7r169XTU2NUY4xY8YoJSXFqBaAPW9ORe3evbvxGJs2bVJFRYW9UP+H/cNZmA9nedt8lJWV6cCBA0bjDRw4UGlpaTaiAT6jMWtCLObOYmM+CgsLde/ePaPrt2zZkgeLAQeJjo7WkiVL1KpVK6P6V69eKS8vz+r7zd5g/3AW5sNZfjgfXq9XBQUFRvMQGxur2bNn244HNBqNWRNjMXcWf9+LcuTIEeNrz58/X3Fxccb1AOxr1aqVli5dqmbNmhnVX7hwQcXFxZZTvcb+4SzMh7O8mY8LFy7o5s2bRmNMmzZNrVu3tpwMaDwasyBgMXcWk/l4/vy5Nm/ebHzNTz75RBkZGcb1AAInNTVV8+bNM67Pz89XWVmZxUT/xP7hLMyHs9TW1hq/SzQ1NVWjRo2ynAjwDY1ZkLCYO4sv89HQ0KD169erurra6Frdu3fX1KlTjWoBNI3hw4dr/PjxRrU1NTXasGGDPB6P5VSvsX84C/PhHDt37lRlZaXPdW63W/PmzTN+bQZgC38Cg4jF3FkaOx+7d+9WSUmJ0TXi4+O1aNEiTnsCQkBmZqZ69OhhVHvnzh0dOnTIcqJ/Yv9wFuYj+G7evKlTp04Z1X788cfq3Lmz5USA72jMgozF3FneNx83btzQ4cOHjcfPzs5WUlKSPxEBNJGoqCgtWLBAsbGxRvV79+7V/fv3Laf6J/YPZ2E+gqehoUF5eXlGtW3bttXEiRMtJwLM0Jg5AIu5s7xrPl6+fKkNGzYYn7g2btw4DRgwwN94AJpQcnKyZs2aZVTr8Xi0YcMG1dXVWU71T+wfzsJ8BMeJEyf05MkTo9q5c+cqJibGciLADI2ZQ7CYO8tP58Pr9WrHjh0qLy83Gq9bt27KzMy0FQ9AExoxYoTxlyqlpaUqLCy0nOjH2D+chfloWlVVVdq7d69R7ZAhQ9SvXz/LiQBzNGYOwmLuLD+cj7Nnz+rSpUtG4zRv3lyLFi0yPn4bQHC5XC5lZWUpMTHRqP7o0aO6ceOG5VQ/xv7hLMxH09m3b5+qqqp8rouPjzf+aTgQKDRmDsNi7izNmjVTeXm5X994Z2dnq127dhZTAWhqiYmJys7ONq7Pzc1VbW2txUQ/x/7hLMxH4D158kTHjh0zqp0+fbrxly1AoNCYORCLuXM0NDT49YFq9OjRGjRokOVUAIIhIyPD+D1HZWVl2rNnj+VEP8f+4SzMR2Dt3LnT6LUUvXv31ogRIwKQCPAPjZlDsZg7w4EDB4yPxu/cubNmzJhhORGAYJoxY4bat29vVHvkyBHj9cQX7B/OwnwExo0bN4weMYiKilJWVpZcLlcAUgH+oTFzMBbz4Lpz5472799vVBsdHa1Fixa9df4AhK6YmBgtXLjQ6EW0Xq9XmzdvbpL1m/3DWZgPuzwej3bs2GFUO3bsWHXo0MFyIsAOGjOHYzEPjurqar+Oxp85cyYLPxCmUlNTjd97VFpaavyFj6/YP5yF+bCnuLhYDx8+9LkuISFBv/nNbwKQCLCDxiwEsJg3vfz8fJWVlRnV9u/fXx999JHlRACcZMKECerevbtR7aFDh/TgwQO7gd6B/cNZmA//1dTUaPfu3Ua1kydPVlxcnOVEgD00ZiGCxbzpnDt3TsXFxUa1iYmJmj9/PveuA2EuKipKCxYsMLpd2ePxKDc3Vw0NDQFI9nPsH87CfPjn4MGDevXqlc91HTt21MiRIwOQCLCHxiyEsJgHXkVFhbZu3Wpcn5OTw/G7QIRo3769Jk+ebFR7//59HT582HKid2P/cBbmw8zz58/13XffGdXOmDFDUVFRlhMBdtGYhRgW88DasWOHKisrjWrHjBmj9PR0y4kAONm4cePUtWtXo9p9+/aptLTUcqJ3Y/9wFubDd4WFhUa/N/369WN/RkigMQtBLOaBcfXqVZ0+fdqotmPHjsrMzLScCIDTRUVFKTs72+iUxvr6em3ZssXoPUym2D+chflovDt37ujs2bM+17ndbl5dg5BBYxaiWMztqqmp0ZYtW4xqo6Ki9OWXXyomJsZyKgChoHPnzvrss8+Mam/fvq3jx49bTvTL2D+chfl4P3+Oxx85cqQ6depkOREQGDRmIYzF3J7du3frxYsXRrXTpk1T586dLScCEEo+++wz4w9/hYWFevLkieVEv4z9w1mYj19WXFysu3fv+lwXFxdn/BwoEAw0ZiGOxdx/d+7c0bFjx4xq+/btq3HjxtkNBCDkNGvWTNnZ2UYnstbV1WnDhg1NvmazfzgL8/F2VVVV2rVrl1Htb37zG7Vo0cJyIiBwaMzCAIu5ufr6euXm5hq9SDo+Pl4LFiwwerYEQPhJTU3V+PHjjWrv3bunffv2WU70fuwfzsJ8/NzevXtVUVHhc127du00evToACQCAodPlGGCxdzMwYMHjU9Fmzlzplq3bm05EYBQNnnyZCUnJxvVHjp0SDdv3rSc6P3YP5yF+finBw8eGN/RMn36dKP3DALBRGMWRljMffPo0SMdPHjQqDYtLU3Dhw+3nAhAqIuJidG8efOMar1erzZs2KCqqirLqd6P/cNZmI/Xfx+2b99udEdL7969NWDAgACkAgKLxizMsJg3jsfjUW5urhoaGnyuffPBy+RZEgDhr0+fPvroo4+Mal++fKktW7YYfRj1F/uHs0T6fJw5c0a3b9/2uc7lcmnmzJns0QhJNGZhKNIX88Y4duyY0QlPkjRlyhS1bdvWciIA4SQzM9P4Vufz58+ruLjYcqLGYf9wlkidj+rqahUUFBjVjhw50vil70Cw0ZiFqUhdzBujrKzM+ISn1NRUjR071nIiAOEmLi5O2dnZxvXbt2/X06dPLSZqPPYPZ4nE+di/f79evXrlc118fLymTp0agERA06AxC2ORuJi/j9fr1bZt21RXV+dzrdvt1vz58zmFEUCjfPDBB8anNNbW1mrDhg1Gt1vbwP7hLJE0H48fP9aRI0eMaqdOnaqEhATLiYCmwyfMMBdJi3ljXLx4UVeuXDGqnTBhglJSUiwnAhDOpk6davwC+rt37wblCP032D+cJRLm482BHx6Px+faLl26aOTIkQFIBTQdGrMIEAmLeWPU1tYqPz/fqLZDhw767LPPLCcCEO6io6P1xRdfGB/bffDgQd26dctuKB+wfzhLuM/H+fPndePGDaPaOXPmcEcLQh5/giNEuC/mjbF//369ePHC5zqXy6X58+fzPhQARjp16qQZM2YY1Xq9Xm3cuFE1NTWWUzUe+4ezhOt81NbWaseOHUa1H374oXr06GE5EdD0aMwiSLgu5o3x+PFjHT582Kh29OjR6tmzp+VEACLJqFGjlJGRYVT7/Plz7dy503Ii30Ty/uFE4Tgf+/fv18uXL32ui4uL07Rp0wKQCGh6NGYRJhwX8/fxer3aunWr0T3rbdq04YQnAH5zuVzKzs5WYmKiUf2JEyd07do1y6l8E4n7h5OF03w8ePDA+MvTyZMnq2XLlpYTAcFBYxaBwmkxb4zTp08bP6Mxd+5cNW/e3G4gABEpMTFROTk5xvW5ubmqrq62mMh3kbZ/OF04zEdDQ4Nyc3ONvjzt1KmTRo0aFYBUQHDQmEWocFjMG6Oqqsr4JZWDBg0yvvUIAN4mPT3d+F2IL168MF7PbIqU/SNUhPp8HDlyRPfv3zeqnTNnjqKioiwnAoKHxiyChfpi3hh79uxRRUWFz3UxMTGaOXNmABIBiHSZmZnGr94oKioyfuWHTZGwf4SSUJ2PZ8+eae/evUa1Q4YMUe/evS0nAoKLxizChepi3hj37t3T8ePHjWonT56sNm3aWE4EAP88Qr9Zs2ZG9bm5uaqqqrKcynfhvH+EolCbD6/Xqy1btqiurs7n2tjYWOOTTgEnozFDyC3mjeHxeLR161Z5vV6fazt16mR8qxEANEZKSooyMzONasvLy42PFbctHPePUBZK81FcXGz8zrKJEyeqVatWlhMBwUdjBkmhtZg3xsmTJ3Xv3j2j2rlz53LPOoCAGzNmjHr16mVUW1xcrEuXLllOZCbc9o9QFwrzUV5ebvy8ZEpKisaNG2c3EOAQNGb4h1BYzBvj1atX2rVrl1Hthx9+aPxBCQB84Xa7lZ2drZiYGKP6LVu2qLKy0nIqM+Gyf4QLp89Hfn6+0e24LpdL8+fP58tThC0aM/yI0xfzxti+fbvRkdJxcXHGtxYBgInk5GTjdefVq1favn275UTmwmH/CCdOnY+LFy/q3LlzRrXjxo1Tamqq5USAc9CY4Wecupg3xrlz54wX/GnTphm//BUATI0aNUp9+vQxqj1z5ozOnz9vOZG5UN4/wpHT5qO6ulpbt241qk1KStLkyZMtJwKchcYMb+W0xbwxKioqtG3bNqPabt26aeTIkZYTAcD7vbmlMTY21qg+Ly9P5eXlllOZC8X9I5w5aT527dpl/Gc1KyvL+O8IECpozPBOTlrMG2Pbtm1G7yxzuVyaO3eu3G7+OgAIjrZt2xof/11ZWanc3FyjU2gDJdT2j3DnhPm4du2a8Stshg8frn79+llOBDgPn0Txi5ywmDeGP7cwjho1St26dbOcCAB8M3LkSKWlpRnVXrlyRSdOnLCcyD+hsn9EimDOx/Pnz/Xtt98a1bZo0UIzZ860nAhwJhozvJfTN1d/bmFMTEzUlClTLCcCAN+9OXGuefPmRvUFBQUqLS21nMo/Tt8/Ik0w5qOurk5r1641PkF09uzZSkhIsJwKcCYaMzSKkzdX01sYJWnGjBmKj4+3nAgAzCQlJRn/dKCurk4bN25UQ0OD5VT+cfL+EYmaej7y8/ON3yuakZGhwYMHW04EOBeNGRrNiZurP7cwZmRkaOjQoZYTAYB/RowYofT0dKPae/fuaf/+/XYDWeDE/SOSNdV8FBUV6eTJk0a1sbGxmjt3rlwul7U8gNPRmMEnTtpc/bmFMS4uTvPmzWPBB+A4LpdL8+bNU1xcnFH9gQMHdOfOHcup/Oek/QOBn4979+4Z79HS61fYtGnTxu8cQCihMYPPnLK5+nML4+zZs9WqVSvLiQDAjtatW2vOnDlGtV6vVxs3blRNTY3lVP5zyv6B1wI1HxUVFVqzZo3xGD169NCoUaOMrw+EKhozGAn25urvLYzDhg2znAgA7Bo6dKjx8zXPnj3Tjh07LCeyI9j7B37M9nx4PB5t2LBBL168MMoTHR2t7OxsXmGDiMSfehgL1ubKLYwAIsXcuXPVunVro9qioiJdvHjRciI7aM6cxeZ87N27V9euXTPOMm/ePHXo0MG4HghlNGbwS1Nvrl6vV1u2bOEWRgARIT4+Xjk5Ocb1ubm5Ki8vt5jIHpozZ7ExH5cuXdKBAweMM4wZM4Y7WhDRaMzgt6bcXE+fPm38DTC3MAIIRWlpaRo3bpxRbWVlpb799lvHHaH/Bs2Zs/gzHy9evNDGjRuNr92jRw/NmDHDuB4IB2HZmHm93mBHiDhNsbm+ePFC27dvN6rlFkYAoWzatGnq1KmTUe3Nmze1Z88ey4nsoTlzFpP58Hq9ysvLU3V1tdE1ExMT9dvf/lbNmjUzqgfCRVg2Zg0NDfJ4PMGOEXECubl6vV7l5uYaL/rcwggglEVHR+uLL75QVFSUUf2hQ4d04cIFy6nsoTlzFl/n4/Tp07py5YrRtdxutxYtWsQeDShMGzPpdXPm1Fs3wlmgNtcTJ04YP0zcv39/bmEEEPI6d+6sqVOnGtdv2rRJT58+tZjILpozZ2nsfJSXlys/P9/4OpmZmerTp49xPRBOwrYxk6T6+noW8yCwvbk+ffpUBQUFRlni4uKUlZXFLYwAwsL48ePVq1cvo9qamhqtWbNGtbW1llPZQ3PmLO+bD6/Xq61bt6qqqspo/EGDBmn8+PH+xgTCRlg3ZhKLebDY2lw9Ho82bdqkuro6oxzcwgggnLjdbi1cuFDNmzc3qn/06JHy8vIc/Sw2zZmz/NJ8nDlzxvhArg4dOig7O5svToEfCPvGTGIxDxYbm+vhw4d1584do+sPGDCAWxgBhJ2kpCR9/vnnxvWnT5/WiRMnLCayj+bMWd42H5WVlca3MMbGxmrp0qXGXzAA4SosG7O3PRzNYh4c/myuDx8+ND5JrEWLFtzCCCBsDRs2TEOHDjWuz8/PV0lJicVE9tGcOctP52PXrl2qrKw0Gis7O5uXSANvEZaNmcvlojlzEJPNtb6+Xps2bTI+wGXevHlKTEw0qgUAp3O5XMrKyjI+Qr+hoUFr165VRUWF5WR20Zw5y5v5uHr1qs6fP280xuDBg/WrX/3KcjIgPIRlYya9vg//be/DYDEPDl831wMHDujBgwdG1xo+fLgGDBhgVAsAoSI2NlZLliwxvh3s5cuXWr9+veNPMKY5c5a6ujrjA7kSEhI0e/Zsy4mA8BG2jZn0+pZGFnPnaOzmevfuXR08eNDoGq1bt9asWbOMMwJAKGnfvr1ycnKM62/cuKHt27c7+jAQiebMSXbu3Kny8nKj2jlz5nA3C/ALwroxk1jMneZ981FXV6eNGzcavyA8Oztb8fHx/sYEgJAxcOBAffLJJ8b1J06c0KFDhywmCgz2ZEEFewAAIABJREFU8+C7du2aioqKjGoHDBjALYzAe4R9YyaxmDvNL81HYWGhnjx5YjTuqFGj9MEHH/gbDwBCztSpU9W7d2/j+l27dunMmTMWEwUG+3nwVFZWKjc316g2Li5Oc+bM4UAu4D0iojGTWMyd5m3zcefOHR09etRovOTkZE2fPt1GNAAIOVFRUVq0aJFf723ctGmTbt26ZS9UgLCfNz2Px6MNGzboxYsXRvWzZs3inaJAI0RMYyaxmDvND+ejtrZW27ZtMxrH5XIpJydHsbGxNuMBQEhp2bKlFi9eLLfbbGtvaGjQ6tWrVVpaajmZfeznTevgwYO6evWqUW2/fv00fPhwy4mA8BRRjZnEYu40b+Zjz549ev78udEYn3zyiXr27Gk5GQCEnp49e2rmzJnG9VVVVVq5cqVevXplMVVgsJ83jevXr2vv3r1GtbGxsbxTFPBBxDVmEou509y8eVPFxcVGtSkpKZo0aZLlRAAQusaMGaMhQ4YY15eVlWnVqlWqra21mCow2M8D68WLF1q/fr3xqZ3Tp09XUlKS5VRA+IrIxkxiMXeKqqoq44eJ3W63cnJy3jqPABCpXC6X5s2bZ/zyaen1a0u+/fZb4xNymxL7eWDU19dr3bp1qqysNKrv3bu3Ro4caTkVEN4itjGTWMydYPv27Xr58qVR7aRJk9S1a1fLiQAg9MXGxmr58uVq2bKl8RiXLl0KiXecSezngVBYWKiSkhKj2ujoaM2fP9/4eUcgUkX83xgW8+C5cOGCTp8+bVTbrVs3ffrpp5YTAUD4SEpK0vLlyxUTE2M8xvHjx1VQUEBzFmHOnj2rI0eOGNdnZmYqOTnZYiIgMkR8YyaxmAdDRUWF8vLyjGqbNWumBQsWKCoqynIqAAgvXbt21eLFi/06fOG7777Trl27aM4iRGlpqfEjBtLrF56PGTPGYiIgctCY/R8W86bj9Xq1ZcsWVVRUGNVPnTpVHTt2tJwKAMJTRkaG5syZ49cYhw4dMj6Zr6mxn5urra3V2rVrjQ9+SU5OVnZ2NqcwAoZozH6AxbxpHDt2TBcvXjSq7dWrl8aNG2c3EACEuVGjRumTTz7xa4z9+/dr3759lhIFFvu57zwejzZu3KjHjx8b1UdHR2vJkiWKi4uznAyIHDRmP8FiHlh3795VQUGBUW1MTIyys7N5mBgADEybNk2DBw/2a4y9e/fq4MGDlhIFFvt543m9XuXn5+vChQvGY2RlZSklJcViKiDy8An3LVjMA6Oqqkrr1q1TQ0ODUf2MGTN4mBgADL15xUjPnj39GmfXrl06fPiwpVSBxX7eOIcOHdKxY8eM60eOHKnhw4dbTAREJhqzd2Axt8vr9Wrz5s16/vy5UX1aWpo++ugjy6kAILJER0dr2bJlat++vV/jFBQU+HVqX1NiP/9l33//vXbt2mVc36VLF82ePdtiIiBy0Zj9AhZze44ePWr8XFlcXBwPEwOAJQkJCVq+fLlatGjh1zj5+fk6efKkpVSBxX7+dlevXtXmzZuN6+Pj47VkyZK3/t4C8B2N2XuwmPvv7t272rlzp3H97Nmz1aZNG4uJACCyJScn66uvvlJ8fLxf4+Tl5enSpUuWUgUW+/mP3bt3T2vXrpXH4zEeY+HChWrbtq3FVEBkozFrBBZzc/4+VzZgwAANGzbMcioAQJcuXfTVV1/5dYqe1+vV+vXrVVJSYjFZ4LCfv/bs2TOtXLnS+Fh8Sfrss8+UkZFhMRUAGrNGYjH3ndfr1aZNm4yfK2vTpo3mz5/PLYwAECDdunXT73//e8XGxhqPUVdXp7/97W968uSJxWSBE+n7eUVFhf7f//t/xu8SlaQ+ffpo0qRJFlMBkGjMfBLpi7mvvvvuO+NbXNxutxYtWqSEhATLqQAAP9S9e3f9/ve/V0xMjPEYlZWV+uabb/Tq1SuLyQInUvfz2tpa/e1vf9OzZ8+Mx0hOTtaiRYsUFRVlMRkAicbMZ5G6mPuqpKREhYWFxvWZmZnq0aOHxUQAgHfp2bOnVqxY4VdzVlZWppUrV6qmpsZissCJtP38zV0sd+/eNR4jMTFRK1asUGJiosVkAN6gMTMQaYu5r2pqavTtt98aP1Dcv39/jR8/3nIqAMAv6d27t373u9/5dcLe/fv3/XquuKlF0n5+4MABnT9/3rg+JiZGy5cv532iQADRmBmKpMXcV4WFhSorKzOqTUpKUk5ODs+VAUAQ9O3bV8uWLVOzZs2Mx7h69aq2bNkir9drMVngRMJ+fvHiRe3Zs8e43u1267e//a26detmMRWAn6Ix80MkLOa+un79uo4fP25UGxUVxXNlABBkH3zwgZYuXerXM0TFxcXau3evxVSBFc77+ePHj7Vx40a/xpg/f77S09MtJQLwLjRmfgrnxdxX1dXVfr2oMjMzU927d7cXCABgJD09XQsXLvRrjP3792vfvn385CyIqqqqtGrVKr+e+5s6dao+/PBDi6kAvAuNmQXhuJib2LFjh168eGFUO2DAAI0bN85uIACAscGDB2vmzJl+jbF3717l5eXxzFkQNDQ0aN26dX6dwDh69GhNmDDBYioAv4TGzJJwWsxNXL58WadOnTKqTUpKUnZ2Ns+VAYDDjB8/3u/DmE6ePKnVq1f79TLjphQu+/muXbt0/fp14/qBAwdq9uzZ7M1AE6IxsyhcFnNfVVZWKjc316g2KipKixcvVnx8vOVUAAAbpk+frsGDB/s1xpUrV/TXv/6V95w1ke+//16HDx82ru/Zs6cWLlwot5uPiUBT4m+cZaG+mJvYtm2b8WY7depUpaamWk4EALDF7XYrJydHvXv39muce/fu6c9//rOePn1qKVlghep+fvfuXW3ZssW4vm3btlq2bJlf77QDYIbGLABCdTE3ce7cOZ09e9aotmfPnryvDABCQHR0tJYuXapOnTr5Nc6zZ8/05z//2a+XHDelUNvP79+/r1WrVhlni4mJ0bJlyzgdGQgSGrMACbXF3MSrV6+0detWo9qYmBjl5ORwmwQAhIj4+HitWLFCrVu39muciooK/fWvf9Xly5ctJQusUNnPL1++rL/85S9+3S66cOFCpaSkWEwFwBd8Kg6gUFnMTXi9XuXl5amystKoPjMzU8nJyZZTAQACqU2bNlqxYoXi4uL8Gqeurk6rV6/WmTNnLCULLKfv50ePHtWqVav8OmBl4sSJGjhwoMVUAHxFYxZgTl/MTZ0+fVoXL140qu3bt69GjRplOREAoCmkpKRo6dKlb93bfOHxeLRhwwYVFRVZShZYTtzPPR6P8vPztX37dr/eFzdgwABNnDjRYjIAJmjMmoATF3N/lJWVadu2bUa1sbGxys7O5hZGAAhhffr00fLly9W8eXO/xvF6vcrNzdWRI0csJQssJ+3ntbW1WrNmjd+/d506ddKCBQvYlwEH4G9hE3HSYu4Pj8ejjRs3qqamxqh+1qxZSkpKspwKANDU+vbtqz/+8Y9q1aqV32Pl5+frwIEDFlIFnhP28/Lycv3lL3/RpUuX/BonPj5ey5Yt87vBBmAHjVkTcsJi7q9Dhw7p9u3bRrXp6ekaMWKE5UQAgGDp3Lmz/u3f/k0dOnTwe6zdu3dr165dft2S11SCuZ/fvXtX//3f/6379+/7NY7b7dbixYvVrl07S8kA+IvGrImFcnN279497d2716g2Pj5e8+fPl8vlspwKABBMSUlJ+td//Vf16tXL77EOHjyo/Px8mrO38Hg8+vvf/64///nPevHihd/jzZgxQ2lpaRaSAbCFxiwIQrE5q62t1YYNG+TxeIzq58yZY+V2FwCA8yQkJOirr77SoEGD/B7r6NGj2rJli/F+05Saaj8vLy/XN998o507d1r5ffn1r3+tsWPHWkgGwCYasyAJteZs586devLkiVHtwIEDNXjwYMuJAABOEh0drUWLFln5wF9UVKTVq1cbv5KlKQV6P79y5Yq+/vprXb9+3e+xpNdNWVZWFnewAA5EYxZEodKcXb58WcePHzeqbdGihebOncsGAAARwO12a9asWZoxY4bfY12+fFlff/21bt265X+wAAvEfl5fX6/8/HytXLlSFRUV/kaUJE2bNk3z5s3jBEbAoZoFO0Cka9bs9RTU1dX96J+/+fWb/z1YXr16pc2bNxvXZ2dnKzEx0WIiAICTuVwuffzxx2rRooVWrVrl1/NiL1++1F//+leNGzdOY8eOVVRUlMWkdtncz0tLS7V+/Xo9fPjQWrYFCxZw9wrgcDRmDuDU5uzN+2VMv6n76KOP1L9/f8upAAChYPjw4YqOjtY333yjhoYG43G8Xq/27dunGzduOP55ZX/38/r6eh06dEgHDx60dudMQkKCli1bpp49e1oZD0Dg0Jg5hBObs5MnT+ry5ctGte3bt7dyKwsAIHT96le/UkxMjP7yl7/43Wjcvn1bX3/9tWbMmKH09HRLCe0z3c9v3bqlvLw8lZaWWsvSvn17LV++XMnJydbGBBA4NGYO4qTmrLS0VDt27DCqdbvd+uKLLxQbG2s5FQAg1GRkZGjFihX6n//5H9XW1vo1VlVVldasWaOOHTuqb9++SktLU5cuXRz3zJQv+3llZaUKCwtVVFRkNUPv3r21ZMkSJSQkWB0XQODQmDmME5qzuro6rV+//mcZGmvSpEnq1q2b5VQAgFDVt29fffXVV/rv//5vVVVV+T3ew4cP9fDhQx08eFBxcXHq06eP+vbtqz59+ig+Pt5CYv+9bz+PiorSmTNntGPHDmuHe7wxbNgwzZs3760HkgBwLhozBwp2c7Zz507jB4579uypCRMmWE4EAAh1PXv21L/8y7/oP//zP602IlVVVTpz5ozOnDkjl8ulXr16afjw4UpLSwv6T9J+up/X1NSopKREt2/f1q1bt/To0SOr13O73Zo2bZo+/vhjTkMGQhCNmUMFqzk7f/68jh07ZlQbGxurhQsXBn0jBAA4U9euXfWHP/xBX3/9tV6+fGl9fK/Xq2vXrunatWtq3bq1hg8friFDhgTtp2i1tbW6ffu2rl+/rps3b+rBgwd+nVL5S9q1a6cvv/xSqampARkfQODRmDlYUzdnZWVlys3NNa6fM2eO2rZtazERACDcdOrUSX/84x/1X//1X3ry5EnArvP8+XMVFhZq7969GjBggIYPH67OnTsH7HpvlJWV6fLly7p8+bJu3rzp14mUjTVs2DDNmTNHzZs3D/i1AAQOjZnDNVVz1tDQoPXr16u6utqoftCgQRo2bJiVLACA8JacnKw//elPWrNmjU6fPh3Qa9XX1+vUqVM6deqUunbtqiFDhigjI8NaE9PQ0KC7d+/+oxl7/PixlXEbIzY2VnPnzmX/BcIEjVkIaIrmbPfu3bp7965RbatWrZSVlcX97ACARouPj9dvf/tbHT58WJs3bzY+cMoXJSUlKikp0bZt29S3b18NGDBAffv29fmQjMrKSl27dk2XL1/W1atXrRxo4qtu3brpyy+/5Ch8IIzQmIWIQDZnV65c0d///nfj+gULFnAcLwDAZy6XS6NGjVLPnj31v//7v8YHT/mqvr5eFy5c0IULFxQbG6v09HQNGDBAXbp0UWxs7M++aPR6vXr8+LGuXLmiy5cvq6SkRB6Pp0myvs2nn36qyZMnB+UdpwACh7/RISQQzdnLly+1ceNG40yffvqp0tLSjOsBAEhJSdGf/vQnbd68WYcPH27Sa9fU1Ki4uFjFxcWSXjeLzZs3V1xcnOLi4tS8eXM9ffpUz58/b9Jcb5OcnKysrCz17ds32FEABACNWYix2Zx5PB59++23qqysNMrSvXt3TZkyxagWAIAfiomJUVZWltLS0rRmzZqg3B4ovf7pWFVVVdCu/zZRUVH69NNP9dlnn/FuMiCM0ZiFIFvN2f79+3Xr1i2jDHFxcVq0aJGioqKM6gEAeJtBgwapW7duWrlypa5fvx7sOEHXq1cvZWVlqWPHjsGOAiDAaMxClL/N2a1bt7R//37j62dnZyspKcm4HgCAd0lKStIf/vAHXbp0SXv27NG1a9eC+kxXMMTHx2v69On68MMPeT8oECFozEKYaXNWU1OjTZs2Gb/kcsyYMRo4cKBRLQAAjeFyudSvXz/169dPlZWVunTp0j8O7Hj16lWw4wXU0KFDNXPmTCUmJgY7CoAmRGMW4kyas4KCApWVlRldr0uXLpo+fbpRLQAAJuLj4zV48GANHjxYHo9HJSUlOn/+vC5cuKA7d+4EO54VLpdLGRkZGj9+vPr06RPsOACCgMYsDPjSnF25ckUnT540uk5sbKwWLVrEg8cAgKBxu91KTU1VamqqJk+erIcPH+rvf/+7jh07ppqammDH80n79u3Vp08f9enTR71791bLli2DHQlAENGYhYnGNGeVlZXavHmz8TWysrLUvn1785AAAFjWsWNHff7555oyZYpOnDihQ4cO6dGjR8GO9Vbt2rX7RyPWp08ftWrVKtiRADgIjVkY+aXmzOv1Ki8vz/i+/BEjRmjo0KF+ZwQAIBDi4uI0ZswYjR49WleuXNGhQ4d09uxZ4+epbYiKilLv3r3Vv39/paenKzk5OWhZADgfjVmYeVdzdvr0aZ0/f95ozA4dOmj27Nl+ZwMAINBcLpfS0tKUlpamZ8+eqaioSEVFRbp//36TXD8xMVHp6enq37+/0tLS1Lx58ya5LoDQR2MWhn7anJWXl2vnzp3GYy1evFixsbHW8gEA0BSSkpI0YcIETZgwQffv39epU6d08uRJPXv2zOp1unTpooyMDGVkZKhbt24cbw/ACI1ZmHrTnNXW1mr79u2qrq42Gmfq1KlKSUmxGQ0AgCaXkpKilJQUTZkyRbdu3VJRUZGKi4tVXl7u81gxMTFKS0tTRkaG0tPT1bp16wAkBhBpaMzCWLNmzXTy5EnduHHDqL53794aN26c3VAAAASRy+VSjx491KNHD82aNUulpaW6f/++KioqVFlZqaqqKlVWVv7ov3s8HrVu3VrJyclKT09X7969OaEYgHU0ZmHs6dOnKiwsNKqNjY1VTk4Ot2MAAMKW2+1Whw4d1KFDh2BHAQDxqTtMNTQ0aNOmTT87BKSxZs2apbZt21pOBQAAAOBtaMzCVGFhoe7cuWNU279/f40YMcJyIgAAAADvQmMWhs6ePavvvvvOqDYhIUHz5s2Ty+WynAoAAADAu9CYhZlHjx5p8+bNxvVZWVlq2bKlxUQAAAAA3ofGLIxUV1drzZo1xs+VDR06VIMGDbKcCgAAAMD70JiFCY/Ho40bN+rp06dG9a1atdLnn39uORUAAACAxqAxCxMHDx7UpUuXjOtzcnIUHx9vMREAAACAxqIxCwNXr17V3r17jevHjBmjDz74wGIiAAAAAL6gMQtxZWVl+vbbb+X1eo3qO3furMzMTMupAAAAAPiCxiyE1dXVafXq1aqqqjKqj4+P15IlSxQTE2M5GQAAAABf0JiFKK/Xq7y8PD18+NCo3uVy6YsvvlC7du0sJwMAAADgKxqzEHXkyBF9//33xvWTJk1Senq6xUQAAAAATNGYhaBr166poKDAuL5///767LPPLCYCAAAA4A8asxDz9OlTrV+/3viwj+TkZC1YsEBuN1MPAAAAOAWfzkNIdXW1Vq1aZXzYR0xMjJYsWcL7ygAAAACHoTELER6PRxs3blRpaanxGPPnz1dKSorFVAAAAABsoDELEXv37tWlS5eM68eNG6chQ4ZYTAQAAADAFhqzEHDu3DkdOHDAuL5Xr16aPn26xUQAAAAAbKIxc7gHDx5o06ZNxvWtW7fW4sWLFRUVZTEVAAAAAJtozBysoqJCq1evVl1dnVF9dHS0li5dqpYtW1pOBgAAAMAmGjOH8nq92rBhg54/f248xrx589StWzeLqQAAAAAEAo2ZQxUVFenatWvG9Z988omGDRtmMREAAACAQKExc6CXL1+qoKDAuL5fv36aNm2axUQAAAAAAonGzGG8Xq/y8vJUU1NjVJ+cnKwvv/xSbjdTCwAAAIQKPr07zNmzZ3X58mWj2ubNm+t3v/ud4uPjLacCAAAAEEhh2Zh5vd5gRzBSUVGh7du3G9W6XC59+eWX6tChg+VUAAAAAAItLBuzhoYGeTyeYMfw2fbt21VZWWlUO3XqVGVkZFhOBAAAAKAphGVjJr1uzhoaGoIdo9EuXbqks2fPGtUOGjRIn376qeVEAAAAAJpK2DZmklRfX6/6+vpgx3ivqqoq5eXlGdUmJiYqKytLLpfLcioAAAAATSWsGzNJqqurc3xztnPnTpWXlxvVzpkzRwkJCZYTAQAAAGhKYd+YSc5uzq5fv66ioiKj2oEDB2rQoEGWEwEAAABoamHZmEVFRf3snzmxOautrdWWLVuMauPj4zVnzhzLiQAAAAAEQ1g2Zi6Xy/HNmdfr1Y4dO1RWVmZUP2vWLLVs2dJyKgAAAADB0CzYAQLF7XbL5XL97J1mdXV1kqRmzYL7f/3o0aM6efKkUW2/fv00bNgwy4kAAAAABEtY/sTsjaioKEVHR//snwf7J2dXrlzRjh07jGpjY2M5hREAAAAIM2HdmEmvfzLmpObs0aNHWr9+/c9+ktdYmZmZSkpKspwKAAAAQDCFfWMmOac5q6io0KpVq1RTU2NU36tXL3300UeWUwEAAAAItohozKTgN2f19fVas2aN8WEf0dHRmj9/vtzuiJkyAAAAIGJE1Kf8YDVnXq9XeXl5un37tvEYkydPVvv27S2mAgAAAOAUEdWYScFpzg4fPqzi4mLj+u7du2vcuHH2AgEAAABwlIhrzKSmbc4uXryowsJC4/qWLVtq8eLFb30vGwAAAIDwEJGNmdQ0zdmjR4+0YcMG4xMYo6OjtWzZMrVp08ZKHgAAAADOFLGNmRTY5qympkZr165VbW2t8Rg5OTlKTU31KwcAAAAA54voxkwKXHO2bds2PXnyxLh+4sSJGjx4sHE9AAAAgNAR8Y2ZZL85O3XqlL7//nvjPIMHD9akSZOM6wEAAACEFhqz/2OrOXv8+LG2bdtmnKNbt27Kzs6Wy+UyHgMAAABAaKEx+wF/m7Pa2lqtW7dOdXV1Rtdv1aqVli1bppiYGKN6AAAAAKGJxuwn/GnO8vPz9fjxY6PrxsTE6He/+51atWplVA8AAAAgdNGYvYVJc3b69GkVFRUZX3PhwoXq2rWrcT0AAACA0EVj9g6+NGdPnjxRXl6e8bUmTpyogQMHGtcDAAAACG00Zr+gMc1ZXV2d1q1bZ/y+sr59+2rixIl+5QQAAAAQ2poFO4DTNWv2+rfopwd6vPn1jh079PDhQ6OxExMT9cUXX8jtpj8GAAAAIhkdQSO86ydnx48f14kTJ4zGdLlc+uKLL9SyZUt/4wEAAAAIcTRmjfTT5uz69esqKCgwHm/ChAlKS0uzEQ0AAABAiKMx88Gb5uzhw4fatGmTvF6v0Ti9evXSpEmTLKcDAAAAEKpozHz06tUrrV+/3vgl0gkJCfryyy8VFRVlORkAAACAUEVj5oOqqip98803evXqlfEYCxcuVOvWrS2mAgAAABDqaMwaqb6+XmvWrFFpaanxGJ988onS09MtpgIAAAAQDmjMGsHr9Wrz5s26efOm8Rg9evTQ1KlTLaYCAAAAEC5ozBphz549OnPmjHF9fHw8z5UBAAAAeCcas/c4evSoDhw4YFwfFRWlJUuWKCkpyWIqAAAAAOGkWbADOJXX69XevXu1f/9+v8bJyclRnz597IQCAAAAEJZozN6ioaFBeXl5OnXqlF/jTJs2TUOHDrWUCgAAAEC4ojH7iZqaGq1bt05Xr171a5yPPvpIn376qaVUAAAAAMIZjdkPvHr1SitXrtT9+/f9Gic9PV2ff/65XC6XpWQAAAAAwhmN2f958uSJvvnmG5WVlfk1TpcuXbR48WJOYAQAAADQaDRmkkpKSvS3v/1NlZWVfo2TlJSkFStWKDY21lIyAAAAAJEgohszj8ejo0ePateuXaqvr/drrLi4OC1fvlwtW7a0lA4AAABApIjYxuzly5fatGmTrl+/7vdYUVFRWrp0qTp16mQhGQAAAIBIE5GN2blz55SXl6eqqiq/x4qKitKiRYt4VxkAAAAAY2HVmNXX1+vp06cqLS1VfX29EhISlJiYqLi4ODVv3lx1dXXKz89XcXGxlevFxcVp6dKlNGUAAAAA/BIWjVl9fb0OHDiggoIC1dTUvPPfc7vd8ng8Vq7ZunVrrVixQikpKVbGAwAAABC5Qr4xq6mp0X/8x3/o3r177/13bTVlnTp10ooVK9SmTRsr4wEAAACIbCHdmHm9Xq1du7ZRTZktvXv31tKlSxUfH99k1wQAAAAQ3kK6Mbt586aKioqa7HqDBw9WTk6OoqOjm+yaAAAAAMJfSDdmly5darJrffzxx8rMzJTb7W6yawIAAACIDCHdmN26dSvg13C5XJo1a5bGjh0b8GsBAAAAiEwh3ZglJCQEdPykpCQtXLhQvXr1Cuh1AAAAAES2kG7M2rVrF7Cxhw8frtmzZysuLi5g1wAAAAAASQrpB6aGDRumqKgoq2PGx8dr8eLFWrBgAU0ZAAAAgCYR0o1Z+/btrT77lZaWpn//93/Xr371K2tjAgAAAMD7hPStjJI0ZcoUVVdX67vvvjMeo1mzZpo2bZrGjh3LqYsAAAAAmlzIN2bR0dGaN2+eevfuraNHj+r69etqaGhodH2vXr00Z84cpaSkBDAlAAAAALxbyDdmbwwdOlRDhw5VbW2tSktLVVlZ+Y//VFVV/ejX0dHRat26tfr166eePXsGOzoAAACACBc2jdkbMTEx6ty5c7BjAAAAAECj8UAVAAAAAAQZjRkAAAAABBmNGQAAAAAEGY0ZAAAAAAQZjRkAAAAABBmNGQAAAAAEGY0ZAAAAAAQZjRkAAAAABBmNGQAAAAAEGY0ZAAAAAAQZjRkAAAAABBm0k/uoAAABcElEQVSNGQAAAAAEGY0ZAAAAAAQZjRkAAAAABBmNGQAAAAAEGY0ZAAAAAAQZjRkAAAAABBmNGQAAAAAEGY0ZAAAAAAQZjRkAAAAABBmNGQAAAAAEGY0ZAAAAAAQZjRkAAAAABBmNGQAAAAAEGY0ZAAAAAAQZjRkAAAAABBmNGQAAAAAEGY0ZAAAAAAQZjRkAAAAABBmNGQAAAAAEGY0ZAAAAAAQZjRkAAAAABBmNGQAAAAAEWTOTovr6+h/9+smTJ1bCAAAAAEAkMmrMnj9//qNfr1y50koYAAAAAIhE3MoIAAAAAEFGYwYAAAAAQebyer1eX4sqKyt18+bNf/y6VatWio6OthoMAAAAACKFUWMGAAAAALCHWxkBAAAAIMhozAAAAAAgyGjMAAAAACDIaMwAAAAAIMhozAAAAAAgyGjMAAAAACDIaMwAAAAAIMhozAAAAAAgyGjMAAAAACDIaMwAAAAAIMhozAAAAAAgyP4/QopBfFWnjZ8AAAAASUVORK5CYII=;" parent="1" vertex="1">
          <mxGeometry x="890.56" y="345" width="524.73" height="579" as="geometry" />
        </mxCell>
        <mxCell id="QE3Q9bEi8sq2FOrpUkCx-52" value="&lt;font color=&quot;#c90000&quot; size=&quot;1&quot;&gt;&lt;b style=&quot;font-size: 40px&quot;&gt;head ?&lt;/b&gt;&lt;/font&gt;" style="text;html=1;strokeColor=none;fillColor=none;align=left;verticalAlign=middle;whiteSpace=wrap;rounded=0;dashed=1;dashPattern=1 1;" parent="1" vertex="1">
          <mxGeometry x="30" y="890" width="159.44" height="66.24" as="geometry" />
        </mxCell>
        <mxCell id="QE3Q9bEi8sq2FOrpUkCx-54" value="&lt;font style=&quot;font-size: 35px&quot; color=&quot;#777777&quot;&gt;body segment&lt;/font&gt;" style="text;html=1;strokeColor=none;fillColor=none;align=center;verticalAlign=middle;whiteSpace=wrap;rounded=0;" parent="1" vertex="1">
          <mxGeometry x="400" y="920" width="308.44" height="20" as="geometry" />
        </mxCell>
        <mxCell id="QE3Q9bEi8sq2FOrpUkCx-62" value="&lt;font face=&quot;Arial&quot; style=&quot;font-size: 60px;&quot;&gt;&lt;b style=&quot;font-size: 60px;&quot;&gt;A&lt;/b&gt;&lt;/font&gt;" style="text;html=1;strokeColor=none;fillColor=none;align=center;verticalAlign=middle;whiteSpace=wrap;rounded=0;dashed=1;dashPattern=1 1;fontSize=60;" parent="1" vertex="1">
          <mxGeometry x="-180" y="250" width="173.56" height="66.24" as="geometry" />
        </mxCell>
        <mxCell id="QE3Q9bEi8sq2FOrpUkCx-73" value="&lt;font style=&quot;font-size: 35px&quot; color=&quot;#777777&quot;&gt;body segment&lt;/font&gt;" style="text;html=1;strokeColor=none;fillColor=none;align=center;verticalAlign=middle;whiteSpace=wrap;rounded=0;" parent="1" vertex="1">
          <mxGeometry x="400" y="609" width="318.44" height="20" as="geometry" />
        </mxCell>
        <mxCell id="QE3Q9bEi8sq2FOrpUkCx-87" value="&lt;font face=&quot;Arial&quot; style=&quot;font-size: 60px;&quot;&gt;&lt;b style=&quot;font-size: 60px;&quot;&gt;B&lt;/b&gt;&lt;/font&gt;" style="text;html=1;strokeColor=none;fillColor=none;align=center;verticalAlign=middle;whiteSpace=wrap;rounded=0;dashed=1;dashPattern=1 1;fontSize=60;" parent="1" vertex="1">
          <mxGeometry x="230" y="250" width="163.56" height="66.24" as="geometry" />
        </mxCell>
        <mxCell id="QE3Q9bEi8sq2FOrpUkCx-91" value="&lt;font style=&quot;font-size: 35px&quot; color=&quot;#777777&quot;&gt;body segment&lt;/font&gt;" style="text;html=1;strokeColor=none;fillColor=none;align=center;verticalAlign=middle;whiteSpace=wrap;rounded=0;" parent="1" vertex="1">
          <mxGeometry x="1038" y="932" width="276.56" height="20" as="geometry" />
        </mxCell>
        <mxCell id="QE3Q9bEi8sq2FOrpUkCx-92" value="&lt;font color=&quot;#777777&quot; style=&quot;font-size: 40px&quot;&gt;\(d(\hat{\theta}, \theta_b)\)&lt;/font&gt;" style="text;html=1;strokeColor=none;fillColor=none;align=left;verticalAlign=middle;whiteSpace=wrap;rounded=0;" parent="1" vertex="1">
          <mxGeometry x="1113" y="643" width="240" height="20" as="geometry" />
        </mxCell>
        <mxCell id="QE3Q9bEi8sq2FOrpUkCx-93" value="&lt;font style=&quot;font-size: 40px&quot; color=&quot;#c90000&quot;&gt;\(d(\hat{\theta}, \theta_a)\)&lt;/font&gt;" style="text;html=1;strokeColor=none;fillColor=none;align=left;verticalAlign=middle;whiteSpace=wrap;rounded=0;" parent="1" vertex="1">
          <mxGeometry x="1113" y="351" width="240" height="20" as="geometry" />
        </mxCell>
        <mxCell id="QE3Q9bEi8sq2FOrpUkCx-96" value="&lt;span style=&quot;font-size: 50px;&quot;&gt;$$\hat{\theta}$$&lt;/span&gt;" style="text;html=1;strokeColor=none;fillColor=none;align=right;verticalAlign=middle;whiteSpace=wrap;rounded=0;overflow=width;" parent="1" vertex="1">
          <mxGeometry x="1128" y="454" width="149.44" height="150" as="geometry" />
        </mxCell>
        <mxCell id="QE3Q9bEi8sq2FOrpUkCx-97" value="&lt;font style=&quot;font-size: 50px&quot;&gt;\(\theta_a\)&lt;/font&gt;" style="text;html=1;strokeColor=none;fillColor=none;align=left;verticalAlign=middle;whiteSpace=wrap;rounded=0;" parent="1" vertex="1">
          <mxGeometry x="522.28" y="340" width="210" as="geometry" />
        </mxCell>
        <mxCell id="QE3Q9bEi8sq2FOrpUkCx-108" value="" style="shape=image;verticalLabelPosition=bottom;labelBackgroundColor=#ffffff;verticalAlign=top;aspect=fixed;imageAspect=0;image=data:image/png,iVBORw0KGgoAAAANSUhEUgAAAFUAAADwCAYAAABxJCgHAAAgAElEQVR4AczBb29buZnw4Z/uQx6KYY4kO4rHnUwQTFvsLvZdsd//a+yrYhd9JuO4tixLPiFoHvLcekIgBozBdPpn20yua8EXcnV1dVJVnvPe06gqzTzPqCpPRIRfUmvlyXfffbfgK7HgC7i+vj7xiarynHOORlVp5nlGVXkiIvySWitPRIRvv/12wVdgwb/Q9fX1iU+6ruPniAiNqtLM84yq8kRE+CW1Vp6ICCLC5eXlgl/Zgn+Ru7u7k6rynIjwc1SVZp5nVJUnIsIvqbXyREQQEZrLy8sFv6IF/wdXV1cnnhERnuu6jsYYw8/JOaOqqCqqiojQGGPouo6cMyKCiNB1HSKCqjLPM00IgUZVUVVUlaaUwuXl5YJfyYJ/0N3d3SnnzHMiws/puo5GRHiulIKqoqqoKo2I0IgItVZEBBFBRHhOVQkh0NRaaVSVZp5nmsvLywW/ggX/gNvb25OIkHPmORHh53Rdx5N5nnnSdR3zPFNrRVWZ55mm6zqaUgoiQtN1HSJCY4yh6bqO5+Z5plFVGlXlu+++W/CFLfg7XF1dnUSEpus6Sik8JyI813UdjYigqjyZ55knqkqtlVIKqspztVYaEaExxmCtRUQQERoRQVV5TlUREZpvv/12wRe24G90dXV14jMRoVFVnhMRnnPO8URVaVSVeZ5paq2oKjlnaq3knHlOVXnOe48xBuccIoKI0KgqIkIjIqgqIoJzDlXl1atXC76gBX+Dq6urE38DEeE5ay1PVJV5nlFVVJUm50ytlZwztVZyzqgqqkrT9z2qyhNrLcvlkhACzjmeExGarutoRARjDKrK2dnZgi9owV9xdXV14hlV5YmI8JyI8Jyqoqo0qso8z9RaUVWelFKYpomcMyklVJVaK00IgVIKIkLjvcd7TwgB5xzGGJ50XYeIICI0IoKqoqq8evVqwRe04BdcX1+fVJXnVJUnIsJzIsJzKSVUlUZVqbUyzzO1VhpjDLVWUkrUWokxMs8ztVaa9XpNrRURQVUJIeC9ZxgGnHMYY+i6jkZEEBFEBBGhmaaJUgqXl5cLvqAFf8Ht7e2plMIvUVUaEeE5ay1N3/eklIgxUmsl50xKiXEciTHinMMYg3OOeZ5RVVQV7z3GGK6urjDGYK1luVzinMN7jzEGay0hBJxzLJdLmlortVaMMRhjUFWa9Xq94Ata8Bfc3t6eSin8ElXlOWMMqoqIoKpYa/n48SP39/fknKm10pRSUFWcc4gITYyRh4cHHh8faUQEVaXve0IIrFYrvPcsl0ustYgI3nuccyyXS5paK7VWjDEYY1BVmvV6veALWvAzbm9vT3xSSuGX1FoREUSERkRQVVQVVaWUwvF4ZL/fk1JCRLDWYoyhqbXS5Jw5Ho8cDgdijNRaERG89wzDwHa75eLigmEY8N4jIjTWWpxzLJdLmlortVaMMRhjUFWa9Xq94Ata8DNub29PfFJK4ZeICI21lkZVyTlTSqHWyn6/J8ZISolaK845RIRGVfnw4QOqSs6Z4/HIw8MDj4+PiAjGGFarFWdnZ7x584a3b99ydnaG955GVVFVnHMsl0uaWiu1VowxGGNQVZr1er3gC1rwE9fX16eu62hKKfwS7z1PVJWcMyklUkpM08TNzQ2lFESEruvo+55aKzFGYoz88MMPqCo5Z8ZxJMZIzhkRwVrL7373O7bbLZeXl7x7945vvvmG5XJJrZVaKzlnnHMsl0uaWiu1VowxGGNQVZr1er3gC1rwzPX19YlPuq6jKaXwS7z3iAjNNE2klDgcDhyPR1JKpJRQVYwxWGsREVJK7Pd7xnEkxoiq8vHjR47HI4fDgVorxhi89/zXf/0X5+fnvHnzhu+++47NZoP3nkZV2e/3OOdYLpc0tVZqrRhjMMagqjTr9XrBF7Tgmevr6xOfdF1HU0rhl1hraeZ5ZpomDocDu92O3W5HjJHtdkutlXmeUVVUlRgj4zjy8PCAqqKqlFKIMfL4+IiI4L1nuVzyhz/8gc1mw3a75fLyks1mQ9/3PLm+vsY5x3K5pKm1UmvFGIMxBlWlWa/XC76gBZ9dXV2dRISm6zqaUgp/C1Ulxshut+Pm5oabmxseHh74wx/+wDiOpJSIMaKqpJR4eHggpcTj4yMiwhNVJYTA2dkZm82Gy8tLVqsVZ2dnbLdbNpsNzjmaeZ65vr7GOcdyuaSptVJrxRiDMQZVpVmv1wu+oAWfvX///iQiPOe9p6m1knNmHEfmeaax1vLtt99yf3/Pzc0N+/2eGCMpJVJK5JxZrVbknEkpkXOm1krOmZQS0zSxXq+ZpolSCqqKiLBarTg7O8N7z3/+53/ivcd7zzAMWGsREVQVVWWeZxprLc+VUmistagqr1+/XvAFLfjs6urqxE9472lyzqgqKSVUFVVFRNhsNuz3ez58+MD9/T0pJXLOTNNEKYVhGJimiZwztVZyztRayTmTc2aaJuZ5RlVxznF+fs7FxQWXl5cMw8Bms8E5R9/3hBCw1iIiNKqKqtIYY3iu1kpjjKE5Oztb8AUt+OT29vY0zzNd1zHPM13X0YgITSkFVUVVaUopPLm/v+fHH39kv98zTROqyhNjDKpKKYVpmiilME0TpRRUld1uR2OMIYTAN998w3fffcfbt285Pz8npYS1luVyifceay0igqqiqogIjTGG52qtNH3fMwzDgi9swSd3d3cnVUVEUFVEhCeqyjzPdF1HIyLknKm18vDwwP39PR8+fOD+/p55num6DhFBRKi18iTnTEqJnDOqioiQUqLpuo4QAufn51xeXnJxccEwDFhrMcbgnMM5RyMiPBERGmMMz9VaaZxzvHjxYsEXtri7uzvxiaoiIqgqT0SEUgqqiojgnKOJMZJSYr/fczwe2e12jONIY4xBRGhijFhrERFSShwOB1JKWGsxxlBrRURwzjEMA5vNhouLC9brNd57hmGg6zpEBBHBWouI8EREaIwxPFdrpTk7O1vwK1jc3t6e+GSeZ7quY55nnjjnSCmhqhhjcM7RHA4HxnHkhx9+IMbIOI7UWhERRAQRQVWJMeKcwxjDOI7s93vGcURE6Puex8dHQghst1suLy/Zbrdst1tCCDjnMMbQiAhPuq5DRBARVJXGGMNztVaaV69eLfgVLK6vr0+qSqOqPDcMAzFGaq0YY/DeU2tlv9+z2+344x//yDRN5JxprLWICKpKzhlVxXuPMYbD4cD19TXH4xFjDN57mvPzc7777jt++9vfst1uWa/XWGtpRISmlMKTrusQERpVpTHG8FytldevXy/4lSyur69PtVYaVeW59XpNjJGcM9ZaQgjknLm5ueHm5ob//u//ppRCY63FGEPXdeScyTnjnMN7j4iw3++5vr5mv98jInjvOT8/5+Lignfv3vH999+z3W7x3lNrRVUxxqCqlFJ40nUdxhianDONtZbnXr16teBXtLi6ujrxmarynIigqjQiQrPf77m6uuLDhw88Pj7S9z0iwuPjIx8/fkRVCSEQQmCaJh4eHhjHkePxyJ///GfGcWS73fL999/zm9/8houLC96+fcvZ2Rld1yEiGGOw1vJTqkojIjTGGBoRoem6jhcvXiz4lS3ev39/4idUlUZEUFVEBBGh1sp+v+fHH3/k5uaGaZowxiAiTNPEx48fUVVCCHjviTFyPB55eHggxsjxeCSlxLfffsvvf/97zs/Pubi44PLykvPzc56ICNZaRITnVJVGRGiMMTQiQtN1HS9evFjwK1u8f//+xGeqynMigqrSzPPMNE3s93uur6/Z7XaUUui6DhGhlMI0TTR93+Oc43A4cH9/z8PDA4+Pj6SUEBG+//57/u3f/o31es35+Tnb7ZZhGHiiqogI1lqeU1UaEaExxtCICM0wDAu+Aov/9//+34mfmOeZ57quo5TC8Xhkt9ux2+0Yx5FSCo2IoKqoKo0xhq7r+PjxI7vdjvv7e3LOqCohBL7//nv+4z/+g4uLC7z3bDYbQgg8KaXQdF3HzxERGmMMjYgwDMOCr8Ti/fv3Jz5TVX5KRGhijOz3e25ubtjv98QYqbXSiAgigojwRFWptfLhwwd2ux2qirWWYRj4/vvv+f3vf8+7d+8wxuCcw3uPMYam1so8z3Rdxy/p+55mvV4v+Iosrq6uTnymqvyUiNAcj0f+/Oc/c319zTiOpJQopaCqiAjWWpxziAilFKZpIufM9fU1h8MBESGEwGaz4d27d7x79453797RiAghBJxzGGOYpomcMyJC03UdzTzPNF3X0RhjODs7W/CVWVxfX5/4TFV5TlUxxtDc39/z448/8uOPPzKOI7VWSinUWhERvPd47xERcs6klNjtdtzc3JBS4uXLl1xcXHB2dsbbt295+/YtFxcXqCqqSgiBEALOOXLOpJQQEX5O13U0r1+/XvAVWtze3p74bJ5nnlNVrLU0u92OP/3pT/z444/knFFVUkrUWmm89wzDgIiQUiLGyJ/+9Cd2ux21VrbbLd9++y3ffPMN3333HW/evGEYBmqtqCohBIZhwHtPSomcM3/N5eXlgq/Q4vb29sRfICKUUkgpMY4ju92O3W7Hzc0NMUa89+ScaZxzhBBQVfb7PeM48uOPPyIiNCEEttst5+fnXF5e8vLlS373u99hjME5h/eeRkSYpolmnmees9bSiAhnZ2cLvlKL6+vrEz/RdR2NiJBzJsbI8Xhkv9+z3+/Z7XaklPDek1KisdYyDAOqyuFw4Hg88sMPP9CICCEELi4u2G63vHnzhhAC33//PdZa+r7HOYeqIiLknFFVRITnrLU0IsLZ2dmCr9Ti6urqxGciwnPOOVJKHI9H9vs9+/2e4/HIw8MDtVZEhJQSjbWWYRhQVQ6HA8fjkT/96U+ICCLCMAx88803XFxc8PbtW0IIfPfdd1hrMcbgnKPWSpNzRlXp+57nrLU0r169WvAVW7x///7EZyJCIyI0zjlijOz3e25ubjgcDhyPR3LOqCqqSkoJEcFayzAMqCr7/Z5xHPmf//kfuq7DGMNms+Hy8pKLiwvevHnDMAxcXl5ircUYg7UWVWWeZ6ZpYp5nvPc8Z62lefXq1YKv2OL9+/cnPhMRGhGhcc4RY2S327Hb7djv94zjSM6ZWiulFKZpoun7npcvX9Ls93sOhwM//PADXddhjGGz2XB5ecnFxQVv3rxhGAa22y3GGKy1eO8ppdBM08Q8z3jvec5aS/Pq1asFX7HF1dXVic9EhOestaSU2O/37Pd77u/vORwOjONIKQVVJaVEY61lGAZUlcPhwPF45ObmBhFBRBiGgW+++YaLiwvevn1LCIGzszOstfR9j/eepus6SimoKsYYnrPW0rx69WrBV2xxfX194ie6rqMppVBr5eHhgePxyH6/Z7/fc39/T0qJJqVEY4xhtVoxzzPH45HD4cDxeKQREUIIXFxcsN1uefPmDSEEzs/P6fse5xwhBEQEay2lFH6OtZZGRDg7O1vwlVrc3t6e+AtyzqgqKSUOhwP39/f8+c9/ZrfbEWOkmaaJpu97QgioKvv9nnEciTEiIjQhBLbbLefn51xeXvLy5UvOzs5wzuG9ZxgGRATnHKpKU0rhOWstjYhwdna24Cu1uL29Pc3zTKOqqCpPzs/PeXh44P7+ng8fPrDb7Tgej5RSqLVyc3NDKQVVxRhD13U0KSVyzozjyBPnHOv1mu12y/n5OcMw8ObNG0IIeO8JIdCICCKCtZZSCqqKiKCqGGPoug5jDCLCer1e8BVa3N3dnVSVppSCqvLEOcfHjx+5v7/nw4cP3N/fczgciDFSa2WeZ1QVVUVEEBGalBKPj4/EGJnnma7rMMawXq/Zbrecn58zDAPb7ZaXL18SQmC5XNJ0XYeIYIyh1kojIjQigrUWYwzNer1e8BVa3N/fn1SVppSCqqKqNCJCSonj8cjNzQ37/Z7D4cA4jtRaWS6X1FqptSIiPMk5k1IipYSqoqoYY1itVmy3W7bbLSEEQggMw0AIAe89jTGGruswxvCciNB1HSKCiCAiiAjDMCz4yiyOx+Op1kpTSkFVUVUaYwy1VsZxZL/fs9/v2e/33N/fk3PGGEOtlVorIsKTlBI5Z1JKqCqqiogwDAObzYbz83NCCAzDQAiB1WpFCIHGGIOIYK1FRGhEBBHBOcdz3nuWy+WCr8zi/v7+pKo0pRRUFVWlERFqreScOR6P7Pd7drsdh8OBGCMiQq2VnDNN13XM80xKicfHR+Z5ptaKqtJ471mv12y3W0IIDMPAarXCe88wDIgIzjlEBOccjYhgjKHrOowxNCKCqhJCoNbKixcvFnxFFnd3dydVpSmloKo8SSmhqqgqMUb2+z03NzfsdjtijIQQyDmTUqIREVSVlBIpJVSVWiulFBrvPcMwcH5+TgiB1WrFMAwMw8BqtUJEMMZgraXve6y1GGOw1mKMwRiDqqKqqCohBFSVFy9eLPiKLK6vr098VmtFVRERmhgjT1JKjOPIhw8fuLm5YRxHQgjknKm18qSUQoyRlBJNrRVVRVVZLpesViuGYcB7zzAMDMPAarViGAZEBOccxhiccxhjsNbivccYg7WWUgqqSq2VEAJNzpmzs7MFX4nF1dXVic9qrczzTNd1NPM801hryTlzPB758OEDu92O4/GIiFBrJedMo6qoKh8/fuTx8RERoZRCrRVVpe97VqsVwzDgvcd7z3q9ZrVaMQwDIoJzDmMMzjn6vsdai/ceYwzWWkopNLVW+r6nUVWa9Xq94CuweP/+/UlEaESEpus6GhEh50yMkZQS4ziy3++5vr5mv99jjCHGSIwRVUVEEBFUFVVFRJimiYeHB2qtGGMIIbDZbPDeIyJsNhsuLi44OzvDOYdzjr7vsdaiqiyXS16+fIkxhlor8zzTdF1HzhkRoRERuq7j9evXC35li/fv359EhEZEaLquoxERcs7EGMk5M44j+/2e6+trDocDq9WKGCMPDw9M08STUgq1Vvq+p9ZKSolaK433nr7vcc5hjGGz2bDdbjk/P6fve5xzOOfo+x4RwXtPCAFrLaUUVJXGWkvOGRGhERG6rkNEePXq1YJf0eLq6urEZyLCc13XkXMm58w0TcQY2e/37HY79vs9m82Gh4cHYoyklKi1oqrM80ytFWMMqkqtlVIKqkojInRdx3K5ZLPZsN1uWa/XOOfw3uOco+97nHOEEPDe45yjlIKq0hhjqLUiIjQiQtd1iAivXr1a8CtaXF1dnfhMRHiu6zpKKeScqbUSY+RwOLDb7TgejzQxRmKMpJQwxqCqqCqlFFSVJ7VWcs5M00QpBVXl4uKCYRg4Pz9ns9mwXC7x3uOcw3uPc47lckkIAeccqsoTYwy1VkSERkToug4RoXn16tWCX8ni+vr6xGeqynMiQq2VUgq1VlSVw+HA/f09h8OBm5sbUkrknKm1Yoyh6zqaeZ4Zx5FGVVFVUkqklEgpUWvld7/7HcMwsFqtGIYB7z0hBLz3eO8REbz3hBDo+54nXddhjEFVEREaEaHrOkSERkQ4Oztb8CtYXF9fn/hMVXlORKi1oqrM84yqMo4j+/2ecRz54x//yOPjIzlnSil47+m6DmMMtVYeHh5oaq2UUnh8fCTnTIyRUgq//e1vCSEwDAPDMOCcI4TAMAyEEFBVQgisViv6vueJiGCtpRERGhGh6zpEhEZEUFVevXq14Atb8Mn19fWJT1SVRlVpRARVRVV5EmPkcDgwjiP/+7//y8ePH3l8fKSUgnMOEaFRVUopqCopJaZpIqVEKYVpmpjnmdVqRQiBYRgIIeCcYxgGhmHg5cuXiAghBIZhwHuPqiIiGGOw1tKICI2I0HUdIkIjIjRnZ2cLvrAFn1xfX5/4RFVpVJVGRFBVnosxcjgcGMeR6+trYox8/PiRx8dH+r5HVRERaq0YY6i1klIi50yMEVWl1kpTSsF7zzAMhBBwzjEMA5vNhhACzjmGYSCEgPeeJ8YYnHM0IkIjInRdh4jQiAhPzs7OFnxBCz65u7s78ReUUlBVGlUl58w4jsQYiTGy3+/Z7XaM44iqMs8z1lpKKdRaUVVKKUzTRM6ZnDPTNDHPM9vtlkZVcc7hvWcYBpxzeO8JIRBCYBgGnHP0fY+1lr7vcc7hvcd7j4ggIkzTxDzPNF3XkXNGRLDW8vr16wVfyIJP7u7uTvwFqkophSc5Z8ZxJMZISonj8chut+NwOKCqqCrGGGqtlFJQVWqtlFJIKVFrJeeMqhJCoFFVnHMsl0tWqxXGGJxzrNdrQgisViv6vqfrOowxhBBwzuG9x3uPiCAi1FqZ5xlVxVpLzhkRwVqLiPDq1asFX8CCT+7u7k78DBGh1so8zzyZpokYIzFGUkocDgf2+z3jOKKqlFJoaq2oKqpKKYVaKzlnaq3knFFVRIRGVTHG4JwjhIBzDmMM2+0W7z3DMOCcwxiDcw7nHMvlkhACzjmstYgIpRRUlcZaS84ZEcFai4ggIpydnS34F1vw2d3d3YmfEBFUlVIKXdchIuSciTESYySlxPF4ZL/fM44j8zwzTRPzPDNNE42qUkpBVUkpoarknFFVVJVGVRERjDF47zHGYK1lu90SQmAYBrz3WGsxxuC9x3tPCAHvPcYYrLWUUlBVGuccOWdEBGstIoKIICKs1+sF/0ILPru7uzvxE8YYaq2oKiKCiFBr5ePHj8QYiTEyjiOHw4FxHKm1klKilMI0TZRSUFVUFVUl50ytlVIKT1SVWiuNiND3Pc45jDFsNhtCCIQQCCFgraXve7z3eO8ZhgHvPdZajDHUWhERGmMMtVZEBGstIoKIICJYa3nx4sWCf5EFz9zd3Z14xhiDqqKqiAgigqoSYyTGSEqJGCOHw4FxHKm1EmOklEKMkZQSjaqiqpRSqLVSSqHpuo55nqm1UmtFRBARvPeICCEEQgisVitCCBhjcM7hvWe5XLLZbPDe0/c91lpKKXRdh4hgjKHWiohgrUVEEBFEBGstL168WPAvsuCZu7u7E88YY1BVnhhjqLWSUiKlRDOOI+M48vDwQK2VGCMpJVJKHI9HmnmeUVVqrczzTK2VJ7VWSinUWhERRARrLSJC3/e8fPmSYRgIIWCMwXuP9x7nHOfn5yyXS5xzGGN4Yq1FRFBVRARrLSKCiCAiWGsREZbL5YJ/gQXP3N3dnXjGGIOq0ogIIoKqklIipYRzjhgj4zjy8PBArZVxHEkpEWNkv9/TqCpNKQVVpdZKU0qh1oqqknOmERFEhK7rMMYQQmCz2RBCwBiDcw7vPd57zs7OCCFgraXve1QVEcFai4igqogI1lpEBBFBRLDWIiLs93u+/fbbBf9kC37i9vb2xGfGGH5JSokYI8fjkd1ux8ePHxnHkVorpRRqraSUqLUyzzNd19GUUqi1IiKUUogxMk0TMUZKKTzZbrd479lsNiyXSxrvPd57Qgicn59jjME5RwgBay1936OqiAiqijGGruswxiAidF3HPM801lqaV69eLfgnWvATt7e3Jz4zxvBLaq3knIkxcjgcOB6PPDw88Pj4SCmFlBIpJaZpopRC13U08zxTa0VEUFVijKSUSClRa+VJCIEQAsMw4JxDRPDe45wjhMB6vcZay3K55OXLlxhjcM7RiAjGGKy1iAjGGKy1iAiqSiMiqCqqyuvXrxf8kyz4Gbe3tyc+McbwS1QVVaWUQkqJcRw5HA6M40hKiePxSEqJlBK1VkQEVWWeZ6ZpwntPKYWUEtM0kVKilELXdTTzPOOcYxgGnHOICCEEnHOEEBiGAWst3nuWyyXee5xzNCLCMAxYazHG4JxDRBARntRaaVQVVeX169cL/gkW/Iy7u7sTP0NEeK7WioggItRa+fjxI/f39zw8PBBj5Hg8klIixkjOmUZVyTlTa2UYBmqtxBjJOZNSQlV5knPGOYdzDhFBRPDeE0IghMBms6Hve5xzhBBwzuG9R0QQEdbrNdZajDE453DO0YgITc4ZVUVVUVWa169fL/g/WvAX3N3dnfhMRPg5KSWstRhjaFJKHI9H9vs9MUZSSsQYiTGSc6bWSimFaZrIOTMMA7VWUkqUUnh8fGSeZ7quo8k5IyJYa2lKKXjvcc4RQmC73dL3PSEEXr58yXK5xHtP13WICOv1Gmstfd/jnENEsNZijKHJOaOqqCqqSiMinJ2dLfg/WPAL7u7uTvyClBLGGKy1NDlnxnEkxkiMkZwzMUYOhwOPj4/M88w0TaSUyDkTQkBVSSlRayWlRCMiNKrKk5wz0zTR9z3WWkIIbLdb+r4nhMBqtcJ7TwgBYwwiwmq1whiDMQbnHM45jDFYaxERVJV5nlFVVJVGRGjW6/WCf9CCv+Lu7u7EZyLCcyklRARrLarKPM/EGJmmiZwzMUZijBwOB2KMqCopJXLOPD4+YoxBVYkxUkqh1kojIogIzjlUlVIKKSXGcUREsNYSQmC9XuOcI4TAMAyEEHj58iXGGESE1WqFMQbvPd57+r7HWosxhsZaSzPPM6qKqiIiiAhd1/HixYsF/4AFf8Xt7e2Jz0SE51SVxhiDqlJKYZomcs7UWjkcDsQYiTESYyTnTEqJlBKPj4+ICKpKSolSCtM00YgIIsL5+TmlFKZp4uHhgePxSGOMIYRACAHnHCEENpsN3nuWyyXWWowxnJ+fY61luVzivcd7j7UWEUFE8N6jqszzjKqiqogIIkLXdZRSWK/XC/5OC/4Gt7e3J35GCIF5nmlUlVorqso8z6gqu92OlBLjOBJjJMbIbrdjv9+z3+9ZrVbM84yqoqoYY7DW4r1HRNjv9zS1VlSVnDO1VkopqCrDMOCcY71es1qtWK/XhBBwziEinJ+f45zDGEMIAWMM1lpKKTSr1YpGRBARVBVVRVWZ55nm8vJywd9pwd/g/v7+xM9wzjHPM42qUmtFVZnnGVUlxkhKiXEciTGSUmK/37Pb7Tgej4gIqso8z9RaMcZgrcU5h4iQUkJVmeeZWispJepw0kAAACAASURBVGqtqCrzPGOtpe97QgisVivOz88JIbBcLum6ju12S9/3WGsJIWCMwVrLk77v6boOEeGJqjLPM6qKiNBcXl4u+Dss+Bsdj8cTP2GtZZ5nGlWl1oqqMs8zqoqqklIipUSMkZwzx+OR/X7P8XgkpUQphVorpRSaruswxmCtRURQVUop5Jx5fHyklEKtFVVlnmestXjvGYaBYRgIIRBCwFrL5eUl1lr6vieEgLWWvu/puo7GGIOI0HUdIkKjqszzjKoiIjRd1/H69esFf6MFf4f7+/sTzzjnmOeZRlWptaKqzPOMqiIiTNNESomcM9M08fDwwH6/ZxxHjscjpRSmaSLnTCmFxlpLMwwDqoqqknMm58w0TeScUVVijIgI3nu89wzDQAiBEALWWr799lustfR9z8uXL+n7Hu89zjlEhFIKXddhjEFEeKKqqCrGGJ50Xcfr168X/A0W/J3u7u5OfOa9Z55nGlWl1oqqMs8zqoqIME0TOWdqrZRSiDEyjiMPDw+M48g0TaSUiDGSc0ZVERGaYRhQVWqtlFKotVJKodaKqnI4HGhEBGstIQRCCDjn6Pued+/eYa3FGEMIgRACq9WKvu+x1lJKQUToug5jDCJCo6o0IkLXdTQiwqtXrxb8DRb8A25vb098EkJgnmcaVaXWiqoyzzOqiogwTROlFFQVVSWlxDiOxBhJKZFzJsbIOI7EGCmloKo0zjmaeZ5RVVSVUgqqiqoyjiOqyjzPNNZa+r7He49zjnfv3mGMwTlHCIEQApvNhhACfd9Ta0VEsNZijEFE6LqOeZ5prLU0IsKTs7OzBX/Fgn/A/f39iU+cc8zzTKOq1FpRVeZ5RlWx1lJKodbKk5wzMUbGcSSlRM6ZcRwZx5GHhwemaaKUQlNrpRERnqgqIkIzjiOlFGqt5JwREbquY7lcYq3l3bt3GGOw1jIMAyEEzs/PGYYB7z2qiohgjMFaizGG55xzPBERmvV6veCvWPAPOh6PJ2st8zzTqCq1VlSVeZ5RVbz31FoppdCICNM0EWMkxkhKiZQSDw8PjOPI8Xgk50zOmSbGSGOtpRERGhGhSSkxTRM5Z1JKiAiNtRZjDO/evcNaizGGEALDMHB+fs5ms8F7j4hgjMFaizEGay3P9X3PExGh6zqaFy9eLPgFC/4Pbm9vT3xijOG5WivPiQiNqjLPM7VWVJUPHz4wTRMxRh4eHhjHkRgjpRRUlZubG5xz9H3PNE2klFBVlssl3ntUlVorpRRSSsQYSSkxTROqyr//+7/z8uVLhmFgGAZCCIQQ2Gw2hBDIOeOcw3tPCAHvPSKCiKCqqCoiQiMiNKrK2dnZgl+w4P/o9vb2ZIzhuVorz4kIjaoyzzO1VlSV/X5PzpmUEsfjkRgj4ziSc6aUwv39PcYYnHPknEkpoao45/DeU0qh1krOmZwzj4+PpJQopVBr5e3bt4QQWK/XhBAIIbBarViv16xWK+Z5xlpLCIEQAt57RAQRQVVpRIRGRKi10tRaef369YK/YMH/0e3t7ckYw3O1Vp4TERpVZZ5naq2oKjlncs7EGDkejzw8PDCOIyklpmkixoiIYIxhmiZSSpRSsNbS9z2qSq2VUgopJaZpIudMzhlVJYSA957NZkMIgWEYGIaB7XbLarVCRHDOEUIghEAIAWMMPyUiNLVWmlorzevXrxf8jAX/BPf39yeeqbXynIjQqCrzPFNrRVWZ55laKzFGxnHk4eGB+/t7YozknMk5o6qoKjlnaq3M80zTdR0igqqScybnzDRNlFKotVJKQVXx3jMMAyEEXr58ydnZGdvtls1mg4jgnGO9XjMMAy9fvqTve56oKiJCIyLUWmlqrczzzOXl5YKfseCf5O7u7sRnpRSe67qOZp5nVJVaK/M8o6qoKjlnxnEkxsh+v2ccR1JK1FrJOVNrJeeMqlJKQVWptdL3PaqKqlJKodZKrZVSCqrKOI70fU8IAe89IQTOz8+5uLhgs9nQ9z3ee1arFcMwMAwD3ntEhKbWiojwRFVRVeZ5RlUZhoFhGBb8xIJ/oru7uxOflFJ4rus6mnmeUVVqrczzjKrSqCopJcZxZL/fE2MkpcQ0TaSUiDGSc0ZVmeeZaZoopdB1Hc08z9RaUVVUlXmeUVXGccQYg3MO5xzL5ZLz83N+85vfsF6vMcbgvWez2bBer1mtVnjvMcYgItRaea6UQlNrpVmv1wzDsOAnFvyT3d3dnUopPNd1Hc08z6gqtVbmeabrOpp5nlFVUkocj0dijKSUGMeRGCMPDw9M00RTSiHnzOPjIzlnVJVGVWnmeabrOuZ5ZhxHjDE45xARnHOs12t+85vfsF6vsdbivefs7IzNZsN6vcZ7j7UWESHnTNd1zPNM13XknGlKKagqFxcXDMOw4CcW/ItcX1+f+KzrOpp5nlFVaq3M84y1lkZEUFVyzozjSIyRlBKHw4FxHBnHkZwzjaoSYyTGyDiONPM881zXdTQfP36k6zr6vqfx3jMMA9988w3r9RoR4f8zB2+/cRxnwod/83Z1N8ut5hw0pqkDMUtb1hKCN4lhZLGbBfZ2/+i9zc1i8SFA7AiGVjLB0JRGw5nhDJvtZnVVvfxUgAkIRmLlYDt+Hmsto9GIyWTCcDikqirKskRE6LoOEUFVERFCCKgq3ntUlQcPHpC89957A94y4EfUNM2NqpKoKiKCqpKoKomIcKvrOpqmoes6uq5juVyy3W7ZbDZst1ucc3jv6fse5xwigqqiqhhjyPMc7z3X19d0XUeMEVVFVQkhkNR1zWQyYTgcUtc1o9GIyWTCcDgkz3OqqsJay87ODlmWISKUZYmIICKoKiKCqiIiJOPxeMBbBvzIttvtDW+oKomqkqgqiYggIiRd19F1HV3X0fc9m82G7XbLer1mvV4TQsA5R9d19H1P4r0nERHyPEdV6bqOruu45b2n73sSay3j8ZjRaMRwOGR3d5fxeMxkMqEsS6qqoixLdnZ2yPMcESHPc0QEEUFVERFUFREhGY/HA94y4Ed2cXFxwxuqSqKqxBhRVRIRIcsyRATnHCEEnHOEEOi6js1mw3K55OLigq7raNuWruvoug5VxXuPqmKMIc9zEuccXdeRZRkxRkIIOOcIIVAUBbu7u9R1zd7eHqPRiPF4zGQyoSxLqqrCWou1FhFBRMjzHBFBRFBVRARVRUS4NR6PB3xrwE9gtVrdqCpJjJFEVQkhICKUZYmI4L0nCSGgqnRdx2az4eLiguVySdu2XF5e0jQNXdcRQsA5h6qSFEVBlmU453DOkec5qor3nq7rCCEgIlRVRVVVHBwcMBqNGA6HTCYTqqrCWktVVRRFQVmWiAhZliEiiAiqSqKqGGO4NR6PB3xrwE9gtVrdqCpJjJFEVVFVRAQRIcsyvuvq6ortdstyuWS9XtN1HdvtlvV6TdM0iAjOOfq+R1UREUSEEALee/I8J4kx0nUd19fXJEVRYK3l8PCQ0WjEZDJhOp1SFAVVVWGtxVpLVVWICFmWISKICKpKoqoYY7g1Ho8HfGvAT2S1Wt3whqoSY0RVERGyLCPGSJZlJCJCIiK0bUvTNKzXazabDU3TsN1u2Ww2NE1DjJHr62vatsV7j4iQ9H2P956qqkhUFecc19fXxBgpy5KyLLl//z6TyYTpdMpkMsFaS13XlGVJVVUMh0NEhCzLEBFEBFVFVYkxUpYlbxuPxwPeGPATuri4uFFVElVFRHib954syxARRATnHF3Xsd1u2Ww2tG3LdrtluVzSNA3ee9q2pWkauq5DVYkxEkIghMDOzg5ZlpE453DOoaqUZUlRFHzwwQcMh0Om0ynT6RRrLXVdY63FWsv+/j5ZliEiiAiJqqKqxBgpy5K3jcfjAW8M+IldXFzc8IaqYoxBVVFVElVFREhEBFWl6zqapuHy8pKu69hutywWCy4vL2nblrZtubi44OrqClUlhID3nr7vqaoKYwwiQt/3OOdQVcqypCgKptMpo9GI6XTKdDqlqirquqYsS6y1PHz4kCzLEBFEhERVUVVijJRlydvG4/GANwb8A/zxj3+8iTFy584dvo9zDu89fd/jnKPrOpbLJS9fvmS9XhNC4PXr11xfXyMiiAibzYYQAsYY7ty5w60YI33f472n6zpUlQcPHlAUBbu7u4zHY6bTKdPplN3dXay17OzskOc5RVFgrSXPcxJVJcZI3/eICImIcP/+/QFvDPgH+eMf/3hjreX7xBgJIeC9p+972rZlvV4zn89ZLpc451gsFnRdh4iQrNdrQggYY7hz5w5JjBFVxTlH3/c451BVptMp1lqGwyHT6ZTpdMp0OqWqKsqyZDgckuc5RVFgrSXPcxJVJcaIqpKICFmW8f777w94Y8A/yB//+Mcbay3fR0Tw3hNCwHvP9fU1y+WS169fc3FxQdu2vH79muvra26t12ucc+R5jrWWJMZICAHnHH3f03Ud3nt2d3epqoq9vT329vaYTqdMJhOKoiDPcw4ODjDGUJYl1lpEhERVeZuIkIgI4/F4MOAf6Pz8/IZ3iDESQkBV6bqOzWbDfD5ns9lwfX3N69evaduWJITAer3GOUeWZVhrSWKMhBDouo6u6+i6jhACRVGwu7vL3t4e+/v73Lt3j+FwSFmWGGP48MMPMcZQliXWWowx3FJVRIRERBARkrquBwP+wc7Pz2/4M7z3qCqqSoyRvu9pmobXr19zcXFBjJHFYsF2uyXGiKqyXC7puo4syyiKgiSEgKrinMM5R9d1hBBI6rpmMpmwv7/PvXv3mE6nWGspioJHjx5hjCHPc6y1FEVBoqqoKkVR8F11XQ8G/IOdn5/f8Gd471FVVJXEe0/TNCwWCzabDarKYrFgs9kQQsA5x2KxoG1bRISyLLmlqnjv6fse5xzee0IIWGuZTCbs7e2xt7fH/v4+o9EIay2Hh4cYY8jzHGstxhgSVSUpy5IkxkiiqgyHw8GAn4Hz8/Mb/oQYI6pKIiKEEGiahuVyyeXlJV3XMZ/P2W63eO9xzjGfz2nbFhEhz3OSGCOJqhJCQFWJMdL3PUVRYK1lOp2yt7fHgwcP2N/fZ3d3l/39fYwxlGWJtRZjDImqoqpYa1FVkhgjqspwOBwM+Bk4Pz+/4U8QEd6mqlxdXbFardhsNjRNw6tXr7i4uMB7T9d1LBYLmqYhERFEBBEhyzK896gqt7quQ0Sw1jIajdjf32c2m3Hv3j3G4zGTyQRjDGVZYq3FGMMtVaUsSxJVJcZICAFVZcDPxGq1uuFb3nuSsixRVVQVEUFV6bqOzWZD27acnZ1xcXHBq1evWC6XtG1L27aEEHDOkec5IkJRFGRZRuK9p+97YoyoKiEEqqri8PCQyWRCVVXUdc10OmUymWCtxVpLXdeUZYmIoKrEGLmV5zmJqpIM+JlYrVY3fMt7T1KWJaqKqiIiJF3XsdlsaJqG+XzOZrNhuVyyXC5p25amaei6DuccWZYhIhRFQZZlJN57+r4nxoiqoqpYa5nNZkwmE6qqYjgcMp1OmUwmWGux1lLXNWVZIiKoKjFGsiwjERESVSUZ8DOyWq1ueMN7T5LnOapKIiIkzjm22y1t23J2dkbTNGw2G9brNW3bcnFxweXlJW3bkuc5IkJRFGRZRuK9p+97YoyEEPDec+fOHe7fv890OqWuayaTCXt7e4xGI6y1VFVFXdfkeY6I4L0nyfOcRERIVJVkwM/IarW64Q3vPUme56gqiTGGxDnHdrulbVtOT09p25bNZsN2u6VtW5bLJev1mrZtKcsSEaEoCrIsI/He0/c9MUaSrusoy5J79+5x9+5ddnd3mU6n3L9/n8lkgrUWay11XSMiZFlGjBFVpSxLEhHhbQN+Rlar1Q1veO9J8jxHVUmMMSQhBC4vL2nbluPjY9q2ZbPZcHFxwdXVFavViuVyydXVFXfu3EFEKIqCLMtIvPf0fU+MkSzLuLq6Ivnggw+YTqcMh0MePHjA/fv3mU6nWGspy5K6rhERsizDe4+qUpYliTGGtw34mVmtVjfee5I8z1FVRAQRQUQIIXB5eUnbtnz99ddcXl6yXC5ZLpe0bctyuWS73dJ1HWVZIiIURUGWZSTee/q+J8ZInudsNhuSyWTCdDplMplwcHDAw4cPmU6nWGspy5K6rhERsizDe4+qYowhyfOcRERIBvzMrFarG+89SZZlJCKCiCAiqCpN09C2Lev1mvV6zXw+Z7FYcHl5ycXFBVdXV7RtS5ZliAhFUZBlGYn3nr7viTFSliVN0+CcYzQasbe3x3g85p/+6Z+YzWZMp1N2dnYoy5K6rkmyLMM5h6oiIiRlWZKICMmAn5nVanXjvSfJsoxERBARjDGEEGjblrZtaduW5XLJ2dkZ8/mczWZD0zR0XUfbtoQQEBGKoiDLMhLvPX3fE2OkLEuapqHrOobDIdPplOl0ymw2YzabMZ1OsdZiraWua5Isy3DOoarcstaSiAjJgJ+Z1Wp1w7dEBFUlERESVaVtW5xzLBYLNpsNy+WSr7/+muVyyXq9xntPCAHnHLeyLENEEBFEhKRtW1QVVaUoCqbTKbPZjNlsxnQ65YMPPqCqKnZ2drDWEkJAREjyPEdESFSVGCOqiqoy4GdotVrd8IaIoKokIkKiqrRti3OO4+NjLi8v2W63zOdzNpsN6/Wavu/x3tN1HVmWYYxBRPiurusIIeC9pyxLptMps9mM2WzGZDLhwYMHVFVFVVUURYGqkogIeZ4jIqgqiaoSY0RVGfAzc35+fiMiqCpFURBCIBERElXl8vKSvu/58ssv6bqOpmlYLpdsNhsuLi5wzuG9J4SAiFCWJSKCqpKoKjFGrq+v8d4TQqAoCkajEQcHBxwcHHD37l0+/PBDqqrCWktRFKgqiYiQ5znGGG6pKiEEkgE/M+fn5ze8EWOkqipCCKgqIoKqoqpcXl7S9z3Pnz+nbVvatmWxWLDZbFgsFnRdR9d17O7uIiIYY8jznERV6bqOGCPX19d47wkhYIxhNBrx8OFDDg4OmEwmPHr0iLquqaqKsiy5JSKICGVZksQYSVQVVWXAz8h8Pr/hjSzLiDFSVRUhBFQVESGEQIyRpmlwzrFYLGiahuVyydnZGRcXF7x+/Zq2bem6jnv37iEiWGsREVSVEALOObz39H2P956+7ymKgtFoxMHBAffv32c6nfLo0SOqqqKqKqy1qCoigohgjCHPc1SVJMZIoqoM+BmZz+c3fEtVqeuaEAKqiojgnCPZbrc45+i6jouLC169esXx8TGLxYLFYoFzDuccDx48wBhDWZYYY0j6vqdtW5xzhBCIMRJCoCxLhsMhh4eHHBwcMJ1OOTg4oKoqrLWUZYmIkBhjyPOc74oxkgz4mTg/P7+JMaKqiAiqSl3XhBBQVUQE5xyqStM0OOfouo7lcsnXX3/NV199xXw+Z7PZkKgqo9GIoigoyxJjDKpK3/dcXl7S9z1JjJEQAtZaptMph4eHHBwcMJ1OmU6nVFVFVVVYa0lEhLIsERFUlRgjiaqS5zkxRgb8DKxWqxve8N6jqiSqynA4JISAqiIiOOdQVbbbLc452rZlsVhwenrK8+fPWS6XXF9fUxQFIkJSliVVVZHnOd57uq6jbVv6vieJMRJCoKoq9vb2ODw8ZDab8cEHH1BVFVVVUdc1ZVlijCHJ8xwRwXvPd6kqA34GttvtjYigqqgqiaqiqhRFgarSNA0iQlVVJF3X8b//+78sFgtOT085PT2lbVucc6gqqspwOCTPc6y1GGMIIdB1HU3T4JwjadsW7z2j0YjDw0MeP37M3t4e1lo++eQT8jzHGEOe5xRFgYjwLgP+wS4uLm5EBBFBVVFVElVFRDDGEEKgbVsSay2qymaz4dmzZ8znc05OTjg5OaHrOpxzZFlGUtc1xhjKskRE6Pueq6srmqYhhIAxhrZtcc4xGo346KOPePz4Mfv7+9y5c4d//ud/Js9zRISyLDHGICK8y4B/oNVqdSMiiAgigqqiqiSqiohgjCGEQNu2JGVZcnV1xWq1YrlccnZ2xrNnzzg5OaHve5KiKBARdnd3ERFEhKTrOtq2Zbvd4r1nd3eXy8tLuq5jMpnw6NEjnjx5wv3796mqig8//BBjDCJCnucYYxAR3mXAP9BqtboREUQEEUFVUVUSVUVVMcbgnKPve4wx5HnOZrNhPp/z6tUrXr58ybNnzzg9PSWEgDGGuq4py5K6rrkVQqBpGtq25erqihACo9GIq6sr+r5nOp3y0Ucf8eTJEw4ODqiqioODA0SELMswxmCM4V3quh4M+AeZz+c3eZ4jIogIIoKqoqokqkrbthhjCCHgvcdaS1mWLBYLTk5O+Oqrr3j58iXPnz9nuVyiqpRlyXg8xlrLaDRCVfHe0/c9V1dXtG1L27aEEBgOh/R9j/eee/fu8fHHH/PkyRPu3btHVVXs7++T5zmJMQYR4V3quh4M+Ac4Pz+/4Q0RQUQQEUQEVUVVSVSVtm0REbz3qCpVVZFlGaenpzx79owvvviCxWLBq1evaJoGEaGqKiaTCdZaqqpCVXHO4ZyjbVu6rqNtW1SVsiyJMZLnObPZjMePH3N0dMR0OqUoCh48eICIICKICFmWEWMkUVVEhO+q63ow4Ce2Wq1uVJVERBARRAQRQVVRVRJVJVFVnHN47ynLkhACz54944svvuDLL79ks9mw3W5xzlGWJXVdM5lMKIqCLMuIMdL3Pc452ral6zqcc6gqqoqIsLu7y0cffcTR0REfffQRu7u7iAiz2QwRIcnznFsxRlQVEeG76roeDPgJXVxc3PCGqnJLRBARRARVRVVJVBVrLTFG2ral73tEhK7r+OKLL/jd737HyckJbdvSdR3ee8qyZDQaMR6PKcuSEAIxRvq+xzlH27Y45+j7Hu89fd9TFAWj0YijoyOePHnC4eEh1lqSw8NDRIQkyzJuxRhRVUSE76rrejDgJ3R+fn7DGyJCsl6vERHyPMcYg4iQ5znGGESEEAK3RISu6zg+PuZ3v/sdL1684MsvvyQREUSEPM8pioI8zxER8jwnERFUFeccbdvSdR3OOUSEO3fusLe3x/7+Pvfu3ePhw4ccHBwwmUwwxpBlGYmIICKICCJCEkIgERGS4XA44I0BP5Hz8/MbvsM5RyIiiAhJlmWICImqIiKoKt57FosFz5494+nTp5yenvLy5UtEBBFBRLDWkuc5xhjyPEdEuOW9p+972ral6zqcc6gqdV1zcHDAbDZjb2+Pg4MD9vb2mEwmlGXJLRFBRLglIqgqbxuPxwPeGPATOD8/v+EdYoxkWUaMkRACiTGGLMvw3rNcLnnx4gVPnz7l+fPnrNdruq4jyzKMMZRlSVEUlGVJnueICCKCqpI45+i6jrZt6boOVSWEwP7+Po8fP+ajjz7i3r177O/vMxwO2d3dRVVJRITvIyIk4/F4wBsDfgKr1epGVUlijNzK85xbqkqMEVXlloiQZRnOOY6Pj/nd737H06dPWSwWOOfw3pPnOcYYrLVYa8nzHGMMt1QV7z1939O2LV3X4ZxDVbHWMpvNODo64smTJ+zv77O3t4e1FmstTdOQqCoigqryNhEhERGS8Xg84I0BP7LtdnujqqgqiarivScREW5lWUaMkSzLeJv3nvV6zf/93//x+eef8+LFC5qmIem6DmMM1lrKssRai4ggIiSqiveeEAJd19F1Hc45QgioKtPplNlsxieffMKTJ0+YTqeMRiOMMeR5jveeRFVJVBVVJcZIUpYlbxuPxwPeGPAj+uabb25ijKgqqkoIgRgjiaoiIiRZliEieO/JsgwRIdlsNjRNw3w+59mzZ5yenrJYLHDOISK0bUue51hrKYqCsixJVBVVxXtPCAHvPV3X0fc93nsSVeXBgwfMZjOOjo44OjpiPB5TVRVJlmXs7OyQhBBIVJVEVUl2dna4Vdf1gG8N+JE0TXOT5zmqSowRVaXve2KMqCqqSl3XJCEEVJUYI0kIgeT09JT5fM7JyQknJydcXl7S9z23nHMYY7DWkuc5xhhCCHjvCSHgvSeEQAgB5xzee25lWcavfvUrHjx4wKNHj5jNZtR1TVmWxBjJsoy6rlFVkhgjIQRUlVvWWm699957A7414EfQNM0Nb+R5jqoSY0RVCSGgqnjvUVX29vZQVbz3hBBwzhFCwHuPqvL06VNOTk548eIFZ2dnJCJCWZaoKjFG8jynLEuMMYgIIQScc4QQcM4RQsB7TwiBGCNJlmWICP/1X//F/v4+H374Iffv38daizGGJMsyRIREVYkxoqqoKomqUtc1t4qiGPCtAT+C8/PzG94wxvB96rqm6zqur68xxpCoKmdnZywWC/77v/+bpmnouo6u6xARQggkzjl2d3cpigJrLWVZoqo452jbFuccXdcRQkBECCGwWCzouo79/X0+++wznjx5wnQ65d69e9y9exdrLVmWEWMkyzJ2dnZIVJVEVflTxuPxgLcM+IGtVqsbVSUxxvB9rLV0XUcIAWMMqkrbtpycnHB2dsb//M//cHl5Sdd1tG1LWZaoKsYYVJWqqsjznKIoyPOcGCMhBNq2xXuPqtL3Pd57Qgis12tUlY8//pjPPvuMR48eMZlM2NvbYzKZYIxBRFBVRAQRIVFVElXlbcYYkrquB7xlwA/o4uLiRlW5JSK8i6qSiAhd1zGfz3n27BknJyccHx9zeXlJ0zQ45yjLkrIsKYqC5M6dO4gIIkISQiDGiKqiqiRt29J1Hc45+r6nrms+/fRTfvWrX3Hv3j0mkwnT6ZS6rrnlvSfLMmKMJKpKoqq8zVrLzs7OgO8Y8AO6uLi44a+gqtxSVTabDcfHx3z++eecnJyw3W5pmobLy0tCCFRVhbUWay0iQlVVJKqKquK9R1VRVRLvPW3bst1ucc5hreXw8JDPPvuMJ0+ecO/ePeq6ZjgcYq1FVVFVVJXEe8/bVJVEREjyPOe9994b8B0DfiCr1eqGv5KIRccx0wAAIABJREFUoKqoKpeXlywWC549e8aXX37Jy5cvaduWtm1xzqGqWGupqgprLSJCVVWoKqqK9x5VRVXx3qOqbDYb+r6n6zpCCOzt7fGLX/yCzz77jIODA/b397lz5w47OzuUZUkIAe89qsqfIiK8bTgcDvgTBvxAVqvVDW+ICLdUle9jjKHve66urpjP55yenvLixQtOTk5Yr9c45+j7Hu89IoK1lrIsMcagqlhruaWqqCrOOUIIeO/Zbrck3nvyPOfhw4f827/9G0dHR9R1zf7+PtZayrLEGEMIAVVFVTHG8F0iQiIiJHVdD/gTBvwA5vP5TZZlJCKCiJCEEPg+xhiapuHVq1ccHx9zcnLC8fExm82GrusIIaCqJMYYrLUYYwghEEJgZ2eHLMswxpCEEOi6jq7rcM4RQsAYg4hQliVHR0f85je/YTaboarcvXsXay3WWkSEvu9RVRJjDN8lIiQiQl3XA/6MAX+nly9f3ogIWZaRiAgiQhJC4F02mw0nJyc8ffqU4+NjTk9Pcc4RQkBEuGWtxVpL0nUdzjmstRhjKMsSEaHve9q2pes6nHOICNZa8jynrmt+8Ytf8Jvf/IbpdErbtkwmE4qioCxLRIQQAqqKiGCMQVV5m4iQiAh1XQ/4Mwb8nbbb7Q3foaok1lqcc7Rti6qiqogIzjlCCHjvefnyJc+fP+fFixcsl0uWyyVd1+Gc44MPPkBEMMaQ5zlvizHS9z3WWoqiQFVp25au63DOcevOnTvs7e0xm8349NNP+eSTTyjLks1mw3Q65fuEEPhT3n///QHfY8DfoWmaG96iqiSqSlKWJd572rZFRFBVEuccfd+zXq85OzvjxYsXHB8fs16vaZoG5xwhBKbTKSJCURRkWYaIoKokMUaur68pigJrLaqKc462bXHOkVhrefDgAQcHB8xmMx4/fszHH39MnudcXl5SliV/i/F4POB7DPg7fPPNNze8EWMkUVUSVSUxxhBCIISAiJCoKldXV1xfX/OHP/yB+XzO8fExp6enNE2Dcw4RIRmNRogIxhiyLONWjJHk+vqaoiiw1qKqtG1L13V470nKsuTo6IijoyMePHjA3t4e+/v7iAhd1zEajfg+xhi+q67rAe8w4G80n89vdnd3eZv3nkRVSVSVREQQEZK+71mv1zRNw29/+1tev37N8fExi8WCEAIiQlEUZFlGVVWICMYYsixDREhUlRgjIQSMMWRZhnOOpmnouo5ERNjf3+fTTz/ll7/8JXt7exhjsNYiIoQQmE6nfB8R4buGw+GAdxjwN5rP5zej0YhEVUm89yQhBN4mIhhjUFXW6zXz+Zzlcslvf/tblsslL1++5PLykiTPc+q6RkQoyxIRIcnznLfFGElUlRACbdvSti3ee/I8pygK/vM//5PPPvuMo6Mjdnd3cc5RliVJjJGyLPk+qsrb7t69O+AvMOBvsFqtbnijrmsSVSVxzpGEELglIogISdd1vHz5kufPnzOfz/l//+//0TQNm80G5xx5nmOtpSgKsiyjKApEhCTLMkSExHvPrRACbdvSti3OOay1TKdTRqMR//Ef/8HR0REHBwfkec7l5SVlWSIiqCpVVfF9Qgi87f333x/wFxjwN/jmm29ueKMoCpIQAolzjiSEwC0RQURQVdbrNS9evODp06ecnJxwcnJC13V0XUdiraUoCrIsIymKAhEhyzJEhERViTGiqiRd19E0Dc45sixjf3+fo6MjHjx4wOHhIfv7+1RVRQiBruuo6xoRIYTAdDrl+6gqt+7evTvgLzTgb/DNN9/c8EZRFCQhBBLnHEkIgURESESEEAKLxYI//OEP/P73v+f58+c0TYNzjhACIoK1lrIsERFUFWMMIkKWZYgIt7z3qCohBJxzNE2D956qqnj06BGfffYZh4eHHBwcUNc1qkrXdfR9z3g8JssyYoyUZcn3ERGS4XA44K8w4K90cXFxo6okIoKq4pxDVUlEBBEhyzJijFhrUVVOT0+Zz+e8evWKp0+f8vvf/57NZkOe5xRFgbWWsiwxxiAiJFmWkRhjKMsSESGEwNXVFW3b0rYtIQSSoii4d+8eR0dHfPzxxxwcHFBVFXmeIyKUZYm1FmMMZVmSXF5ekmRZRiIiJCJCYoyhrusBf6UBf6XVanXDt4wxhBDw3qOqqCoiQpLnOd578jzHOcfx8TGvXr3i5cuXfPnll3z++edkWYYxBmMMeZ5jjCHLMm6Nx2MSVeWWquKco+97nHN0XYeqMp1OefLkCU+ePGFvb4+qqtjb2yPPc5KyLCmKAhGhLEtUlbZtSUSERERIRIRbdV0P+CsN+CusVqsb3mKMQVVRVVQV7z2JiJCEEFBVNpsNL1684OzsjJOTE168eMHJyQn7+/uICCJClmWICImqEmPkwYMHqCree0IIOOcIIaCqxBhRVUIIFEXBo0eP+PWvf83jx48xxhBC4ODgAGMMqooxhjzPSYwxqCree96WZRlve++99wb8DQb8FVar1Q1vqCpJURSoKqpK4r0nUVUSEWG73fLq1StevHjB6ekpx8fHnJycsFgs+Pjjj8nzHBHBGEOWZYgIqkpSFAV5niMiOOdo25a2bXHOoaqICNZaDg4O+Jd/+ReePHnCw4cPSUII7O3tcUtEyLKMRERQVbz3vE1EuFXX9YC/0YC/wvn5+Q1v2dnZIQkhkKgqqor3HlXFGMN8Puf4+JivvvqKly9f8vz5cxaLBW3bsr+/T57nlGVJURTkeY4xBhEhaduWqqqoqgpVZbvdslwuaduWGCN5nnNwcMCvf/1rjo6OmE6n1HVNVVVYa0lEhBACIoKIoKokqoqI8DZVJbl79+6Av8OAv9D5+fkN37Gzs0OWZcQYSUIIhBDw3qOqqCrPnz/n+PiY09NT5vM5X331FdvtFlWlKAryPMcYg7WWsiwpioIsy0jatqWua6qqIoTAer1mvV4TQiCp65qjoyP+/d//nQ8//BBrLUVRUFUVo9GIzWZDlmXEGEnKskRVERFUFREhUVUSVeX9998f8Hca8Bc6Pz+/4Tt2dnbIsgwRIem6jhACzjm897Rty9OnT3nx4gWvXr1iuVzy9ddf03Ud1lqKoiDPc4wxlGWJMQYRIcsyEu891lpEhKZpWC6XOOfI85y6rjk4OGA2m/HLX/6S2WzGcDikLEuMMVhrWS6XiAhJlmWICKpKURS8TVVJVJW7d+8O+DsN+Audn5/f8B1VVSEi3HLO0fc9zjm89ywWC7744guePXvGcrnk4uKCs7MzVJW6rtnf3yfLMowxiAhZlpHEGElUFRGh73uWyyXr9ZpkOBzywQcf8MknnzAajZjNZsxmM/b396nrmr7viTHSNA0iQpLnOSJCYowhybKMJMZIUtf1gB/AgL/A+fn5Dd+KMXKrLEtUlcQYg4jQ9z2bzYamaQgh8Pnnn/PFF19wdnbGer2mbVuSqqqYTqeoKnmeUxQFVVWRZRmJ957tdkvXdSyXS1SVoiiw1lLXNdZa/vVf/5XDw0M++ugjJpMJIQS6rsN7T1mWlGWJMQYRQURIVJW+74kxkmUZiYhw9+7dAT+QAX+B8/PzG94SYyQpyxJVJRERRISu69hutzRNw3K55Msvv+TLL79ksVhwdXVF3/eICHVdU1UVqkpZlpRlSVVViAiJc462bUnatqVtW7z33Llzh4cPH3Lv3j2Ojo64f/8+BwcH1HVN3/c451BVyrJERBAREmMMSQgBVUVVERGSu3fvDvgBDfgLrFarG1VFRFBVkhgjZVmiqiQiQtK2Lev1mu12y/Pnz3n27BnHx8c0TYP3HlWlLEuGwyFZlpEYY7DWYq1FRFBVnHOcnp5SliXOOdq2pes6JpMJn3zyCUdHRxwdHTGZTJhMJhRFQd/3eO/J85yiKOj7HhEhERESVSWEQIyRsixJxuPxgB/QgHe4uLi44Q1V5ZaqkogI37XZbFgsFmy3W/7whz/w4sULzs7OaNsWEUFVsdYyGo0QERJjDNZarLUkzjmur695/vw5qor3HlWlqioePXrEL37xCx4/fsxsNqOqKsqyREQIIRBjpCxLyrLEOcefoqokRVFQ1/WAH9iAd9hutzeqyi1V5c/x3nNxccHZ2Rnr9ZoXL15wfHzM2dkZzjlEBFWlLEuGwyFlWZLkeU5RFFhrCSFweXlJ27a0bUvTNHRdx2Qy4cmTJ3z66accHR1x9+5drLVkWcYt5xwiQp7nFEWBqpKoKm8TERJjDHVdD/iBDXiH7XZ7wxuqioigqiSqynd1XcdyueT09JTFYsHp6SknJyfM53O89+R5ToyRPM8ZDofcuXOHREQwxiAiXF9fs9lsaJoG7z1N05DMZjN+85vf8Nlnn3H//n3yPKcoClQVEUFVUVVEhDzPERGMMagqqoqqEmMkyzKMMYgIw+FwwI9gwDs0TXOjqrxNVUlUlVuqStd1vHr1ipOTExaLBaenp5yenrJcLknKskRVsdYyHA7J85zEGIOI0Pc9l5eXLJdLttstt4bDIY8fP+aXv/wlR0dHTKdTiqJgd3eXxHuPiJDnOSKCqpIURUEIAVVFVUlEBBFhPB4P+JEMeIemaW54Q1W5paokqsotVaXrOs7Ozjg+PmaxWPDVV1/x8uVLNpsNIoK1lizLqKqK4XCIqpKICCLC9fU1m82G+XxO27ZUVcV0OuXhw4d8+OGHzGYz7t+/z3Q6ZXd3FxFBVYkxkuc5xhhEBFVFVTHGoKqEEPDek+R5jjGG4XA44Ecy4B3Oz89v+FaMkSSEQGKtxXtPoqo45/j666959uwZp6ennJ6e0vc9zjnatkVEsNYynU4ZDoeoKsvlkrZtyfMc7z3b7RbnHCLCcrlkNptxdHTEwcEBh4eHPHnyhAcPHpDnOa9fv+ZWlmWICImIkJRlSRJjJFFVkuFwOOBHNOAdVqvVjaqSxBhJVJWkLEu89yQhBJqm4fT0lOfPn/Py5UtevXpF3/d0XUfXdYgIVVUxGo2o65pku93inENECCHw+vVr+r5HREgODw95/PgxDx484P79+zx69Ii9vT1EhPV6TZJlGYmIkIgISVmWJDFGElVlOBwO+JENeIeLi4sbVSVRVZIYI0me53jvSdq2ZbvdcnJywsnJCWdnZ6zXa7quo+97nHOICFVVMRqNsNYiIjRNg/eeLMvouo7Xr1/Tti15njObzTg8POTw8JDpdMp0OuXg4ICqqkjatkVESLIsIxEREhHBGEOiqiSqyng8HvAjG/AO2+32RlVJQgi8LcZIEkJgs9mwXC45OTnh5cuXLJdLNpsNXddxfX2N956yLKmqiqqqMMaQ5zld16GqJJvNhvl8jveesiz55JNP+PDDD5nNZozHY0ajEfv7+1hrCSHgvSfJsoxERBARbhljSFSVZDgcDvgJDHiH7XZ7o6okIQTeFmNEVXHOsVqteP36NScnJywWC5qmoW1bLi8v6fseVaWqKqy1GGNIqqqi6zpCCHjvubi44PXr12RZRlVVHB0d8dFHHzGbzZhMJgyHQz744AOKoqDve2KM3MqyDBEhERESESFRVcbj8YCfyIB3uLi4uFFVElUliTGS9H1P4r1nsVhwdnbG119/zeXlJX3fs9ls2G63dF1HMhwOsdYiIoQQqKqKruvo+56u61iv12w2G/I8Z29vj8PDQx49esRsNmMymTAcDplMJogIzjmSLMtIRIREREhEhFuqyng8HvATGfAOq9XqRlVJYowkqkrSdR2JqjKfzzk7O+Ps7Izr62tijFxcXLDZbGiaBhFhOp1SVRUhBJxzVNX/Lw+Oe+O48YOPf+c35HBpZrQrWXGV+AwjvQAFir7/19K/Diiul9zZq90djRmKQ85vawIWIBi2ldzlkj59Pp9AjJGUEjFG9vs9MUaur695/fo1L1++5I9//COvX79mt9ux2WzY7XaoKjFGvPc0IkIjIjQiwmPb7bbjN9TxhLdv3575YF1XmlorTUoJEWFZFv72t7/x3//93/z444/UWhER3rx5w+FwIMaIMYarqytCCKgqMUZCCMQYmeeZu7s7jscjKSW+/fZbvv/+e169esV3333Hd999RwgB5xwhBGqt3N3dcXFxQSMiNCKCiPCx7Xbb8RvqeMLbt2/P67qiqqgqIoKI0Pc9D+7u7vjzn//Mf/3Xf/HXv/6VnDPNDz/8QM6ZlBKN9x5rLSKCqhJC4HA4kHOm1srpdKLWynfffcd//Md/8PLlS3a7HdvtlqurK4ZhwDmHiND3PcYYvqTWiojw/Pnzjt9QxxPevn17XtcVVUVVERFEhL7vWdeVWivzPPPjjz/y5z//mb/+9a/knGn2+z3LspBSQlXx3jMMA42qYoxhmiZyztRaubu7Q1X513/9V/793/+dm5sbdrsdl5eX7HY7hmHAOYeI0Pc9xhi+pNbK119/3fEb63jC7e3tuZRCo6o01lqalBKlFGKMvHnzhr/85S/s93vu7+9Z15V5nkkpkVJCVfHe45xjXVdUlSbGSM6ZZVlIKWGM4fXr13z//ffc3Nyw2+24urpiu91ijME5h4jQ9z3GGL5EVXn+/HnHb6zjCbe3t2dVZV1XVBURoe97RIS7uztqrUzTxH6/Z7/fczgciDFSSiHGSEqJ+/t71nXFe4+1lnVdUVVqreScyTmzLAuqSgiB169fc3Nzw8uXL9lut+x2O7bbLdZajDGICH3fY4zhSy4vLzt+Bx1POB6PZ1VFVVnXlb7vERFEhHmeiTFyOp04HA5M08ThcCDGSEqJlBIpJe7v71nXFeccIoKIoKqklFBVaq2klDDG8OLFC7755hu22y2vXr1iHEd2ux3jOGKtxRhDY63FGMOXXF5edvwOOp4wTdO51kqjqjTGGJqcM/M8czgc2O/3zPPMNE2cTidijKgqKSVSSqgqwzDQ9z3Nuq5M04QxhlorMUZCCLx69YqbmxustfzhD39gt9sxjiPjOGKtRURoRATnHF9yeXnZ8TvoeMI0TWdVRVVRVUQEEUFEUFVOpxNv3rxhv98zzzPTNHE4HLi7u2O32xFjJMZIKQXnHMYYGlXlhx9+YBgGaq2klBjHke+//54XL16gqrx69Yrtdss4jlxcXCAiiAiNiOCc43MuLy87ficdT5im6ayqqCqqioggIogI1loOhwN/+ctf2O/3xBiZpon9fs/pdOLFixfc39+TUqKUgnMOEUFVUVX+9Kc/4b1HVYkxstvt+Ld/+zeur69ZloXXr18zjiO73Y4QAiKCiNCICM45Pufy8rLjd9LxhHmez7ynqjSqSqOqpJRIKRFjZL/fs9/v2e/3TNNEzhkRodZKU0qhUVVEhGa/37MsCzlnmt1ux7fffsurV6+4vr5GVQkhEEIghIAxhhACX331FZvNhmVZaEQEYwyqirWW5tmzZx2/k44nTNN05j1VpVFVGlVlXVeWZeHu7o79fs/xeGS/33M6nUgp0fc9pRRUlVIKqoqqoqo0h8OBnDOqioiw2+148eIFL1++ZLvdEkLAe08IAe89qor3nhAC3ntEhAcigqoiIogI4zh2/E46nnA8Hs+8p6qoKuu60qgqzjlSSsQY2e/3HA4HDocD0zSRc6aptaKq5JwppVBrpdbKuq4cj0fWdaXve4wxjOPI1dUV19fXhBD45ptv2Gw2eO9xzqGqDMOA9x7vPd57GlVFRPjY5eVlx++g4wm3t7dn3lNVmnVdaVQV5xwpJWKMHA4HDocDx+OR0+lEzpm+71nXFVVlWRZyzqSUyDlTa+VwONA453DOMY4j4zgyjiPOOV6/fo33Hu893ntUlWEYCCHgvSeEgKryoNbKY19//XXH76DjCbe3t2feU1XWdUVVaVQVYwzLshBj5HA4cDgcOBwOzPNMzhnnHKpKk3MmpUSMkZQSy7Jwd3dH45zDOUcIAe89IQSMMbx69QrvPeM4EkKgCSFwcXGB955hGFBVHtRaeUxEeP78ecdvrOMJt7e3Z95TVZp1XWlUlSbnzP39PYfDgdPpxPF4JMZISgkRoRERaq3knJnnmRgjOWfmeaYxxmCtZbPZ4L0nhIBzjpubG0IIXFxcEEJARBjHkRACX331FcYYGlVFRPhYrZWvv/664zfW8YTj8XhWVVSVZl1XGlXFWkvOmZQSh8OBaZo4nU7EGFmWhZQSIoKIoKqUUpjnmRgjOWdijNRaEREa5xzjOBJCwDnH69ev8d4TQiCEQOO9J4RACIEQAg9EBFVFRBARmvv7e5qvv/664zfU8YTj8XjmPVWlUVXWdUVV8d6TcyalxDRNnE4npmlinmdyzpxOJ/q+xxhDU2slxsjd3R3LspBSIueMqqKqeO8JIbDdbvHe88c//hHvPd57nHOoKsMw4L3He8/V1RWNiGCMQVWx1tKICIfDARGhubm56fiNdDzh9vb2zGeoKuu6klIixsjxeORwOLDf70kpUWullIKI0FhryTkTYyTGSIyRnDMpJWqtOOe4vLzk+vqai4sLrq+v2Ww2eO+5uLhgGAb6vqeUgqpyfX3NMAx47/HeY62lyTmjqoQQUFVijJRS+Pbbbzt+Ax1POB6PZ76g1kophRgjh8OB4/HI4XAgxkgphWVZeKyUQoyRGCMpJVJKLMtCKQVrLdvtluvra0IIXF1d4b3He884jjjnMMaQc6a5vr7GOYf3Hu89wzDQ1FqptRJCoEkpUUqh1sof/vCHjn+yjiccj8cznyEiqCo5Z1JKTNPE4XBgmiZSSpRSWJaFUgq1VpqcMzFGYoyklFiWhZwzOWecc4QQuLq6wnvPOI547xnHkXEccc4hItRaaV68eIFzjs1mg/ceay0iQq2VJoTAuq4sy4KqUkpBRGhubm46/kk6nvD27dsznzEMA6pKrZV3794xzzPTNHE6nUgp0aSUuL+/p5SCiLAsCzFGUkrEGMk5k1Ki1oqI4L1nHEe892y3W7z3XFxcMI4jzjmMMagqzXa7xTmHc47NZoNzDmst67rSeO9paq00qoqI8MB7z7Nnzzp+ZR1P+OGHH858hnMOVaWUQkqJGCPTNBFjJKVEk1IipUStlaaUQkqJZVk4HA7knFmWhZwzIoK1ls1mg3OO6+trQgiEELi6usI5hzGGRlUJIWCMwVqL9x5jDM45jDE0zjkaEeGBqvJgGAb6vqeUQlNr5fnz5x3/oI4n/PDDD2c+w1pLs64rKSVijMzzzDzP5JxpYoyklKi18iDnTK2VH3/8kWVZSCmRc0ZVERG894gI33zzDZvNhouLCy4vL/He45yjUVVEBGMM1lqcc2w2G5xzOOcwxiAi9H2PMQYRQURQVRpVxRhDU2tFRKi1oqqs68rNzU3H36njCbe3t2c+Q0RQVVSVnDM5Z6ZpIsZISomcMyklYozUWjHGICLUWqm18qc//YllWSilkFKi1kpjjKHve168eIH3nu12y9XVFSEEnHOs60rT9z0igjEG7z3OOUIIDMOAtRYRQURwzmGMoe971nVFVVFVRAQRodaKiFBrRVVZ15XGe892u+34hTp+hnmez3yBqrIsCykl7u7uiDGyLAun04mUEjFGVBVjDNZaVJV1XfnP//xPlmWhlEKMkVorqooxhubq6ooQAtvtlqurK0IIOOd4ICKICM45nHN47wkhMAwDzjkaYwzOOYwx9H3Puq6oKqpKIyKoKiJCrZVGVVnXFe89jbWWZ8+edfxMHT/DNE1nVUVVUVWadV3x3qOqNCJCrZUYI2/evOHu7o5aK3d3dxyPR3LOiAjOOUSEZr/fM88z+/2e/X5Pzpnm4uICYwzX19d47xnHkaurK5xzDMOAqtIYY/jqq68YxxHnHOu68sBai/ceYwzOOYZhwFpLU0qhqbVijME5h3MOEaEppaCqWGt57NmzZx0/Q8fPME3TWVVRVVSVB5vNBlVFVRERaq3EGDmdTkzTRCmFeZ45nU7c398jIogIxhia+/t77u7umKaJN2/ekFIipYQxhub6+hrvPeM4cnV1RQgB7z2NiKCqhBAIIeCco5RC0/c9IsJ2u8VaizEG7z3WWkQEVaVZ15W+7zHGICKICE8Zx7HjCR0/0/F4PKsqjarSDMOAqqKqiAhNzplpmpjnmZwz8zxzOp1IKWGtRUQQEVSVUgr39/e8e/eO/X5PjJFpmkgpUWtlHEecc4zjyNXVFeM4Mo4jzjmMMSzLQgiBEALGGFSVWisigjGGEALWWrz3bDYbvPdYa2lEBBGhUVVUFRFBRBAR+r6nlMKnbLfbji/o+JmOx+OZ91SVB8YYVBVVRURoaq28e/eOGCP39/e8e/eOeZ5JKSEiNLVWaq2UUqi1UkphnmdOpxPH45EYIyklVJVhGLi4uGC73TKOI1dXV4QQcM5RSiGEwFdffYWIoKqs60pjrcV7jzEG5xzeezabDd57rLWICM45SinUWiml0FhrMcZgraWUwudst9uOz+j4BY7H45mPqCqqijGGRlVJKZFSIudMjJF5nkkp0agqOWeWZeF0OvEg58z9/T2n04l5nkkpEWNERHDO4b1nu92y2+3Ybrd472lCCIzjiLUWVWVdV/q+R0QQEUQE7z3OObz3bDYbnHNYaxmGAVWl1kopBRHBWsswDPR9z7qufMk4jh2f0PELHY/Hs4jQqCq1VtZ1pe97jDGICMuykHMmpUSMkXmeSSnR5JzJOXN/f8/pdEJEaFSVnDPzPBNjJOfMfr9HVRERrLWEEBjHkd1uh/ceYwwhBMZxxDnHA2stIkIjIjTOOYZhwHuP9x5jDNZaHogIIoK1FmMMIsJTVJXtdtvxkY5faJqmM++JCKpKrZVSCn3fIyKICLVWSinUWokxcnd3R0qJZVlIKZFSIqXEY6pKzpkYIzFGcs7c3t6Sc6YppeCcI4TA1dUVzjlEhBAC4zjivUdEEBH6vmcYBqy1PBARRATvPc45hmGg73uMMTjnGIYBay3GGESExlrLl+ScabbbbccjHb/QNE1nEaFZloVSCqqKtRYRwRjDsixs4qZOAAAJ7ElEQVSUUqi1klJinmfevXtHrZWUEvM8k1Jiu93S1FrJObMsCzFGYoyUUjgcDtzf35NzJueMcw7vPeM44r1HVRnHkXEc8d5jrcUYg4hgrSWEQFNKoe97RIRhGHDOYa1FRBiGAe89IQScc4gID5xzfEnOmQfb7bbjg45f6Pb29iwi/ByqSimFGCPzPDPPMyklUkqoKqUUGhGh1kqtlRgjOWdKKcQYmeeZw+FAjJFGRHjwL//yLwzDQAiBEAIXFxd47zHGICI0IoKq4pzDGIO1FhFBRNjtdogIzjmGYcBayzAMWGsREVQVEUFEEBFqrTS1Vh4TEZ4/f97xQcffYZqmM++pKl9Sa2VdV1JKxBiJMRJjJMZIrZUHIoKqUkphWRZyztRaKaUwzzN3d3fM80ytFVWllEKtFe89wzDgvSeEQAiBi4sLNpsN1lrGcaRRVUQEEaHvexoRYRgGrLUYY3DOYYzBOYcxhr7vCSEgIogI1lrWdeWBqqKqNCLCdrvt+KDj7/DTTz+deS/nzJfknGlqreScSSkxzzPTNJFzxhhD0/c967qiquScqbWiqhhjiDEyzzMxRnLOxBiZ55mUEiJCY61lGAZCCOx2O8ZxxHvP9fU1jYjQqCoigqrSeO8REYwxOOew1jIMA9ZajDGM40jf9xhjcM7RiAgPcs40IsI4jh0fdPydfvrpp3POmS9JKSEiNKpKSol5njmdTtzf3/OxdV1RVVQVVaXJOZNSotZKzpkYI6fTiXmeUVVUlVIKjXOOEAIhBLz3vHz5EhFBVRERjDGICKqKiHBxcYGI4JzDGIO1lmEYcM4hIogI1lqGYcA5hzGGvu8REUSEeZ4REZrLy8uODzr+Acfj8cwX5Jxp+r6nyTkTY+R0OpFSYlkWVJVmXVdUlcdijNRaWdeVpu97Ukrc3d0xzzNNzpllWUgpoaqICN57jDFcXV0hIogIzjmccwzDgLUWYwzee6y1GGNwzmGMwTmHMQYRobHWMgwDzjmstRhjMMbQxBh5cHNz0/FBxz/oeDye+QxV5YGqsq4rKSVijCzLwt3dHarKsiyUUlBVVBVjDM00TazrSt/3iAjGGGqtxBhJKeGcI+dMSokYIyklaq08EBGMMTjn8N4zDAPee7z3iAjOOUQE5xzGGKy1DMOAcw4RwTmHMQbnHM45jDFYaxERmpQSjYjw7bffdnzQ8Q86Ho9nPkNEaGqtqCqlFGqtlFJQVaZpopRCzpllWcg5o6oYY2hqrZRSUFUaay1NzpmUEtZaSinUWkkpkVIipUStlVIKy7IgInjvGYYB5xzOOYwxWGvZbreICNZahmHAWsswDFhrERHGccRaizEG5xwigrWWB6UUGhHh5uam44OOX8HxeDzzCc451nVlWRZKKagqqoqq0sQYKaWQUiLGyLIslFKw1tIYY8g5sywLjTGGptZKzplGVWlyzizLwrt371iWhVIKKSX6vqcZhgFrLcYYrLWICK9evcIYg7WWYRiw1jIMA9ZaRIQQAiKCtZZhGOj7HhHhgarSiAjPnz/v+KDjV/D27dszj4gIjfeeZl1XVBVVRVVRVdZ1JcZIrZVSCvf396SUSCmRc6bWyna7JaVESomm73selFLw3qOqlFJYloWcM8uykHNGVXlQSkFEsNZijKHve4wxvHjxAuccwzDgvcdaS6OqNDc3NzwmIjzmnKMRES4vLzs+6PgVvH379swjIkLjvadZ1xVVpdaKqvLg7u4OVaXWSs6ZnDPLspBzRlXx3pNzJqWEqiIiiAi1VkopXFxcoKqUUqi1knOm1kopBVXFGIOqUmtFVRERGhFBRLi+vsZay2azwXuPtRYRQURoXrx4waf0fU8jIjQiwuXlZccHHb+S29vbs4jwmHOOZl1XVBVVRVVRVZp3796hqjS1Vkop1FqptbKuK82yLKSUUFVEBBGh1kophRACjaqiqpRSUFVUlcYYg6qSc6bWSqOqNCLCOI5Ya/He471nGAastYgIIsJut+NTRITHRITLy8uODzp+Rcfj8cwjxhgeU1VUlUZVSSnRqCrrutKoKg+maSLnTEoJVUVEEBFUlVorwzDwmKrSqCqNiKCq5JxRVR4TEZxzGGNwzuGcYxgGnHMYY+j7HmMMjYjwoO97HogIjYhweXnZ8UHHr2ye57Oq0ogID1SVRlV5kHPmQd/3fOxvf/sby7IQY2RdV/q+R0QopVBrxTnHl+ScUVVKKTTWWowxiAh939OICMYYnHMYY/DeY63FGEOtlUZEeExEaJxzNCLC5eVlxwcd/yQ//fTTeV1XHlNVVJUHqsoDEeFj+/2enDP39/es60rf94gIpRRqrYgIjarymKrSlFJQVVQVEcEYg7UWYwx93/OYMQYRwTnHMAxYa1FVPiYiPPDe04gIl5eXHR90/JPN83xWVT4mInyOqtIsy0LOmZQSqoqIICIsy0IpBVVFVWlUlXVdUVUaVcU5x7qu1FppRAQRoe97RARjDKrKY8YYnHMYY3DO8TER4YG1lub58+cdj3T8k83zfFZVGhHhsb7vadZ15TFVpRERlmUhpcRjqkophWVZWNeVptaKqqKqrOtKs9vtUFVyztRa+dg4jqgqpRRUlcYYQ9/3GGPY7XZ8TER47Pnz5x0f6fgN3N7enkUEEUFEqLVSa8UYw5eklGhEhE9JKdH0fc+6rqgqj6WU+JKLiws+RURottstj/V9z2PPnj3r+ISO38jxeDwbY+j7npwztVaMMXxJrZVPERGalBKNqvJgXVceqCpf4r3nU0SEJoTAY33f8+DZs2cdn9HxG5rn+dz3PTlnaq0YY/glRITHUko8UFVUlceMMXxK3/d8iYjQDMPAY33f0zx79qzjCzp+J7e3t2cR4VNEhEZEaPq+51NKKagqjaqiqqzrygNrLY+JCI+JCJ8iIjR93/OYiLDZbDqe0PE7Oh6PZ94TET7FWksjInyKqtKUUmhqrTSqymMiQiMiNCJCIyI0fd/zmIjwmIjQDMPQ8TN0/C8wTdOZR0SEpu97vsQYQ6OqqCo5Z5paK4+JCI2I0IgIjbWWTxERGhHhwTAMHT9Tx/8y8zyf+Ujf93yK9551Xam1oqqs64qqUmulUVUaEaExxtCICE3f93yKiNAYY2iMMR2/QMf/YvM8n3mv73s+xXtPU0pBVck50yzLQmOMoRERGmstj63ryqf0fU8zDAPGmI5fqOP/ET/99NOZ99Z1pe97mpQSjYggIogIfd/TiAjzPGOMQUSw1iIiPFBVhmFAVck5o6qoKiKCc47NZtPxd+r4P2SaprOI0Pc9Tc4ZEUFE6PseEUFVERFUlWEYUFVyzqgq2+2241fQ8X/UNE1nEaHvexoRoVFV1nVFVQkhYIzp+JV1/H9gWZYz76kqpRTGcez4J/ofA/1cRIknfO4AAAAASUVORK5CYII=;flipH=1;" parent="1" vertex="1">
          <mxGeometry x="0.5600000000000023" y="390" width="177.08" height="500" as="geometry" />
        </mxCell>
        <mxCell id="2lvLxO11U5quX8xkSqHF-1" value="&lt;font style=&quot;font-size: 50px&quot;&gt;&amp;nbsp;\(\theta_b\)&lt;/font&gt;" style="text;html=1;strokeColor=none;fillColor=none;align=left;verticalAlign=middle;whiteSpace=wrap;rounded=0;" parent="1" vertex="1">
          <mxGeometry x="506.15" y="685" width="190" height="20" as="geometry" />
        </mxCell>
        <mxCell id="2lvLxO11U5quX8xkSqHF-6" value="" style="shape=image;verticalLabelPosition=bottom;labelBackgroundColor=#ffffff;verticalAlign=top;aspect=fixed;imageAspect=0;image=data:image/svg+xml,PHN2ZyB4bWxucz0iaHR0cDovL3d3dy53My5vcmcvMjAwMC9zdmciIHhtbG5zOnhsaW5rPSJodHRwOi8vd3d3LnczLm9yZy8xOTk5L3hsaW5rIiBoZWlnaHQ9IjEyMy44NHB0IiB2ZXJzaW9uPSIxLjEiIHZpZXdCb3g9IjAgMCAxNTkuODQgMTIzLjg0IiB3aWR0aD0iMTU5Ljg0cHQiPiYjeGE7IDxkZWZzPiYjeGE7ICA8c3R5bGUgdHlwZT0idGV4dC9jc3MiPiYjeGE7KntzdHJva2UtbGluZWNhcDpidXR0O3N0cm9rZS1saW5lam9pbjpyb3VuZDt9JiN4YTsgIDwvc3R5bGU+JiN4YTsgPC9kZWZzPiYjeGE7IDxnIGlkPSJmaWd1cmVfMSI+JiN4YTsgIDxnIGlkPSJwYXRjaF8xIj4mI3hhOyAgIDxwYXRoIGQ9Ik0gMCAxMjMuODQgIEwgMTU5Ljg0IDEyMy44NCAgTCAxNTkuODQgMCAgTCAwIDAgIHogIiBzdHlsZT0iZmlsbDojZmZmZmZmOyIvPiYjeGE7ICA8L2c+JiN4YTsgIDxnIGlkPSJheGVzXzEiPiYjeGE7ICAgPGcgaWQ9InBhdGNoXzIiPiYjeGE7ICAgIDxwYXRoIGQ9Ik0gMC43MiAxMjMuMTIgIEwgMTU5LjEyIDEyMy4xMiAgTCAxNTkuMTIgMC43MiAgTCAwLjcyIDAuNzIgIHogIiBzdHlsZT0iZmlsbDojZmZmZmZmOyIvPiYjeGE7ICAgPC9nPiYjeGE7ICAgPGcgaWQ9Im1hdHBsb3RsaWIuYXhpc18xIj4mI3hhOyAgICA8ZyBpZD0ieHRpY2tfMSIvPiYjeGE7ICAgIDxnIGlkPSJ4dGlja18yIi8+JiN4YTsgICA8L2c+JiN4YTsgICA8ZyBpZD0ibWF0cGxvdGxpYi5heGlzXzIiPiYjeGE7ICAgIDxnIGlkPSJ5dGlja18xIi8+JiN4YTsgICAgPGcgaWQ9Inl0aWNrXzIiLz4mI3hhOyAgICA8ZyBpZD0ieXRpY2tfMyIvPiYjeGE7ICAgPC9nPiYjeGE7ICAgPGcgaWQ9ImxpbmUyZF8xIj4mI3hhOyAgICA8cGF0aCBjbGlwLXBhdGg9InVybCgjcGFmMjM0NDI3M2EpIiBkPSJNIDcuOTIgMTAuMDY5NDcyICBMIDkuMzc0NTQ1IDEwLjg3Mjc4ICBMIDEwLjgyOTA5MSAxMS41NDQyMDIgIEwgMTIuMjgzNjM2IDEyLjM0MjQ2MiAgTCAxMy43MzgxODIgMTMuMzI0NDc4ICBMIDE1LjE5MjcyNyAxNC4yMDE2NTMgIEwgMTYuNjQ3MjczIDE1LjQxOTQyNSAgTCAxOC4xMDE4MTggMTYuNzc1MDc5ICBMIDE5LjU1NjM2NCAxOC4xMDI5NTUgIEwgMjEuMDEwOTA5IDE5LjYyNTY1OSAgTCAyMi40NjU0NTUgMjEuMzc4NjQzICBMIDIzLjkyIDIzLjAzNDc5NiAgTCAyNS4zNzQ1NDUgMjQuNjc5ODcgIEwgMjYuODI5MDkxIDI2LjQ0NTQ1ICBMIDI4LjI4MzYzNiAyOC4wMzgyNjYgIEwgMjkuNzM4MTgyIDI5Ljk3NzUzNSAgTCAzMS4xOTI3MjcgMzEuNzIyMTEzICBMIDMyLjY0NzI3MyAzMy4zMTgwNzEgIEwgMzQuMTAxODE4IDM1LjA5MzAzOCAgTCAzNS41NTYzNjQgMzYuNzgxMTMxICBMIDM3LjAxMDkwOSAzOC4zNDU0ODMgIEwgMzguNDY1NDU1IDM5LjYzMDIzMSAgTCAzOS45MiA0MS4xNjEzMyAgTCA0MS4zNzQ1NDUgNDIuNDY2NDUyICBMIDQyLjgyOTA5MSA0My41OTExMTEgIEwgNDQuMjgzNjM2IDQ0LjgyNTk4ICBMIDQ1LjczODE4MiA0NS42OTA4ICBMIDQ3LjE5MjcyNyA0Ni40MTgyNzcgIEwgNDguNjQ3MjczIDQ3LjA0NzYyNSAgTCA1MC4xMDE4MTggNDcuMzAxOTU5ICBMIDUxLjU1NjM2NCA0Ny42MDAyODIgIEwgNTMuMDEwOTA5IDQ3Ljg5NjI1NSAgTCA1NC40NjU0NTUgNDcuODI5NTU0ICBMIDU1LjkyIDQ3LjQ3NzE3OSAgTCA1Ny4zNzQ1NDUgNDcuMDUzNzA5ICBMIDU4LjgyOTA5MSA0Ni43NjEzNzMgIEwgNjAuMjgzNjM2IDQ2LjAyOTE2MyAgTCA2MS43MzgxODIgNDUuMDcxMTc4ICBMIDYzLjE5MjcyNyA0NC4xNzkxMDQgIEwgNjQuNjQ3MjczIDQzLjA0OTQ2MSAgTCA2Ni4xMDE4MTggNDIuMDIzOTU5ICBMIDY3LjU1NjM2NCA0MC44NzExMjIgIEwgNjkuMDEwOTA5IDM5LjU3ODQ1MiAgTCA3MC40NjU0NTUgMzguMTQyMzU5ICBMIDcxLjkyIDM2LjY0ODQyMyAgTCA3My4zNzQ1NDUgMzUuMjM5OTQ0ICBMIDc0LjgyOTA5MSAzMy42OTk2ODEgIEwgNzYuMjgzNjM2IDMyLjI2NDAwMiAgTCA3Ny43MzgxODIgMzEuMDI5MzQgIEwgNzkuMTkyNzI3IDI5LjU2NjUxMyAgTCA4MC42NDcyNzMgMjguMDY1NDA2ICBMIDgyLjEwMTgxOCAyNi44MDI4NyAgTCA4My41NTYzNjQgMjUuNDAyMzMxICBMIDg1LjAxMDkwOSAyNC4yNTE5NzQgIEwgODYuNDY1NDU1IDIzLjIyNjU2ICBMIDg3LjkyIDIyLjE5OTkzNSAgTCA4OS4zNzQ1NDUgMjEuNDA4Mzk2ICBMIDkwLjgyOTA5MSAyMC41NTU2NjEgIEwgOTIuMjgzNjM2IDE5Ljg5NzAyOSAgTCA5My43MzgxODIgMTkuMTU2MjM2ICBMIDk1LjE5MjcyNyAxOC43NzA1OTcgIEwgOTYuNjQ3MjczIDE4LjY4MDgzNiAgTCA5OC4xMDE4MTggMTguNTU2NTAyICBMIDk5LjU1NjM2NCAxOC42MjgzMjEgIEwgMTAxLjAxMDkwOSAxOC43MzU0MzMgIEwgMTAyLjQ2NTQ1NSAxOC43ODQzOTUgIEwgMTAzLjkyIDE5LjA0ODQ2OSAgTCAxMDUuMzc0NTQ1IDE5LjYyODQyNyAgTCAxMDYuODI5MDkxIDIwLjMwMTEyMiAgTCAxMDguMjgzNjM2IDIxLjEwNzIwMyAgTCAxMDkuNzM4MTgyIDIxLjg1NzgxOSAgTCAxMTEuMTkyNzI3IDIyLjgxODkxMiAgTCAxMTIuNjQ3MjczIDIzLjg1MDAxMSAgTCAxMTQuMTAxODE4IDI0LjgzMzQzNyAgTCAxMTUuNTU2MzY0IDI2LjEyNjI5ICBMIDExNy4wMTA5MDkgMjcuNjA2OTk4ICBMIDExOC40NjU0NTUgMjguODk4NzgxICBMIDExOS45MiAzMC4yNDg4NjIgIEwgMTIxLjM3NDU0NSAzMS45MTA2OTMgIEwgMTIyLjgyOTA5MSAzMy4yNTgzNDcgIEwgMTI0LjI4MzYzNiAzNC42NzU4ODcgIEwgMTI1LjczODE4MiAzNi4yMzQ1OTEgIEwgMTI3LjE5MjcyNyAzNy44ODI5MTYgIEwgMTI4LjY0NzI3MyAzOS4zODc2NSAgTCAxMzAuMTAxODE4IDQwLjg1NzU1ICBMIDEzMS41NTYzNjQgNDIuMzM0NDgzICBMIDEzMy4wMTA5MDkgNDMuNjY5NDU5ICBMIDEzNC40NjU0NTUgNDUuMTUwNTkgIEwgMTM1LjkyIDQ2LjU3NjY3OSAgTCAxMzcuMzc0NTQ1IDQ3LjkzNDIxOSAgTCAxMzguODI5MDkxIDQ5LjM5NjIzOCAgTCAxNDAuMjgzNjM2IDUwLjY3Mzc3NiAgTCAxNDEuNzM4MTgyIDUxLjkwNzYyNyAgTCAxNDMuMTkyNzI3IDUzLjQ0NzczICBMIDE0NC42NDcyNzMgNTQuNjQ2MTkgIEwgMTQ2LjEwMTgxOCA1NS45OTQyMzYgIEwgMTQ3LjU1NjM2NCA1Ny4xNDI3MTIgIEwgMTQ5LjAxMDkwOSA1OC4wMzQwOSAgTCAxNTAuNDY1NDU1IDU4Ljc0MDUgIEwgMTUxLjkyIDU4LjY3MzE2OCAgIiBzdHlsZT0iZmlsbDpub25lO3N0cm9rZTojMDAwMDAwO3N0cm9rZS1saW5lY2FwOnJvdW5kO3N0cm9rZS13aWR0aDo2OyIvPiYjeGE7ICAgPC9nPiYjeGE7ICAgPGcgaWQ9InBhdGNoXzMiPiYjeGE7ICAgIDxwYXRoIGQ9Ik0gMC43MiAxMjMuMTIgIEwgMC43MiAwLjcyICAiIHN0eWxlPSJmaWxsOm5vbmU7c3Ryb2tlOiM3Nzc3Nzc7c3Ryb2tlLWxpbmVjYXA6c3F1YXJlO3N0cm9rZS1saW5lam9pbjptaXRlcjtzdHJva2Utd2lkdGg6MC44OyIvPiYjeGE7ICAgPC9nPiYjeGE7ICAgPGcgaWQ9InBhdGNoXzQiPiYjeGE7ICAgIDxwYXRoIGQ9Ik0gMC43MiAxMjMuMTIgIEwgMTU5LjEyIDEyMy4xMiAgIiBzdHlsZT0iZmlsbDpub25lO3N0cm9rZTojNzc3Nzc3O3N0cm9rZS1saW5lY2FwOnNxdWFyZTtzdHJva2UtbGluZWpvaW46bWl0ZXI7c3Ryb2tlLXdpZHRoOjAuODsiLz4mI3hhOyAgIDwvZz4mI3hhOyAgPC9nPiYjeGE7IDwvZz4mI3hhOyA8ZGVmcz4mI3hhOyAgPGNsaXBQYXRoIGlkPSJwYWYyMzQ0MjczYSI+JiN4YTsgICA8cmVjdCBoZWlnaHQ9IjEyMi40IiB3aWR0aD0iMTU4LjQiIHg9IjAuNzIiIHk9IjAuNzIiLz4mI3hhOyAgPC9jbGlwUGF0aD4mI3hhOyA8L2RlZnM+JiN4YTs8L3N2Zz4=;" parent="1" vertex="1">
          <mxGeometry x="412.28" y="379" width="283.87" height="220" as="geometry" />
        </mxCell>
        <mxCell id="QE3Q9bEi8sq2FOrpUkCx-11" value="bg" style="" parent="0" />
        <mxCell id="QE3Q9bEi8sq2FOrpUkCx-16" value="&lt;font color=&quot;#c90000&quot; size=&quot;1&quot;&gt;&lt;b style=&quot;font-size: 40px&quot;&gt;head ?&lt;/b&gt;&lt;/font&gt;" style="text;html=1;strokeColor=none;fillColor=none;align=left;verticalAlign=middle;whiteSpace=wrap;rounded=0;dashed=1;dashPattern=1 1;" parent="QE3Q9bEi8sq2FOrpUkCx-11" vertex="1">
          <mxGeometry x="30" y="313.24" width="178" height="70" as="geometry" />
        </mxCell>
        <mxCell id="QE3Q9bEi8sq2FOrpUkCx-19" value="&lt;font face=&quot;Arial&quot; style=&quot;font-size: 60px;&quot;&gt;&lt;b style=&quot;font-size: 60px;&quot;&gt;C&lt;/b&gt;&lt;/font&gt;" style="text;html=1;strokeColor=none;fillColor=none;align=center;verticalAlign=middle;whiteSpace=wrap;rounded=0;dashed=1;dashPattern=1 1;fontSize=60;" parent="QE3Q9bEi8sq2FOrpUkCx-11" vertex="1">
          <mxGeometry x="725.56" y="250" width="163.56" height="66.24" as="geometry" />
        </mxCell>
        <mxCell id="QE3Q9bEi8sq2FOrpUkCx-46" value="worms" style="" parent="0" />
        <mxCell id="QE3Q9bEi8sq2FOrpUkCx-47" value="text" style="" parent="0" />
      </root>
    </mxGraphModel>
  </diagram>
</mxfile>
